<svg width="158" height="158" viewBox="0 0 158 158" fill="none" xmlns="http://www.w3.org/2000/svg">
<g filter="url(#filter0_d_1_3890)">
<path d="M78.9104 133.032C111.163 133.032 137.309 106.906 137.309 74.6766C137.309 42.4476 111.163 16.3208 78.9104 16.3208C46.658 16.3208 20.5122 42.4476 20.5122 74.6766C20.5122 106.906 46.658 133.032 78.9104 133.032Z" fill="#040404"/>
</g>
<path d="M103.069 67.2794C104.124 59.8997 98.757 55.9315 91.4246 53.2843L93.804 43.2854L87.9972 41.7722L85.6789 51.5068C84.1533 51.105 82.5874 50.7322 81.0246 50.3593L83.3605 40.5607L77.5537 39.0435L75.1744 49.0383C73.9103 48.7357 72.6669 48.4403 71.4638 48.1232L71.4711 48.0912L63.4596 45.9966L61.9144 52.4963C61.9144 52.4963 66.2255 53.5312 66.1346 53.5942C68.487 54.2108 68.9108 55.8406 68.8395 57.1358L66.1315 68.525C66.2927 68.5674 66.5004 68.6314 66.7361 68.7265L66.1211 68.5674L62.3237 84.5228C62.0353 85.2695 61.3056 86.3933 59.6591 85.9667C59.7201 86.0545 55.4389 84.8647 55.4389 84.8647L52.5552 91.8291L60.1159 93.804C61.5206 94.1737 62.8984 94.561 64.2524 94.9236L61.8503 105.035L67.6539 106.548L70.0323 96.5503C71.6188 96.9965 73.1579 97.4127 74.6638 97.8062L72.2907 107.763L78.0974 109.277L80.5005 99.1871C90.4065 101.152 97.8536 100.359 100.989 90.9729C103.516 83.4177 100.864 79.056 95.652 76.2146C99.4494 75.2995 102.306 72.6833 103.069 67.2794ZM89.7957 86.7765C88.0045 94.3359 75.8566 90.2479 71.9175 89.2233L75.1103 75.8273C79.0484 76.8591 91.6737 78.8969 89.7957 86.7765ZM91.5931 67.1699C89.9569 74.0456 79.8484 70.5494 76.5719 69.6942L79.4618 57.5479C82.7383 58.4031 93.3006 59.9989 91.5931 67.1699Z" fill="#E5FF00"/>
<defs>
<filter id="filter0_d_1_3890" x="0.512207" y="0.320801" width="156.796" height="156.712" filterUnits="userSpaceOnUse" color-interpolation-filters="sRGB">
<feFlood flood-opacity="0" result="BackgroundImageFix"/>
<feColorMatrix in="SourceAlpha" type="matrix" values="0 0 0 0 0 0 0 0 0 0 0 0 0 0 0 0 0 0 127 0" result="hardAlpha"/>
<feOffset dy="4"/>
<feGaussianBlur stdDeviation="10"/>
<feColorMatrix type="matrix" values="0 0 0 0 0 0 0 0 0 0 0 0 0 0 0 0 0 0 0.1 0"/>
<feBlend mode="normal" in2="BackgroundImageFix" result="effect1_dropShadow_1_3890"/>
<feBlend mode="normal" in="SourceGraphic" in2="effect1_dropShadow_1_3890" result="shape"/>
</filter>
</defs>
</svg>
