<svg width="54" height="35" viewBox="0 0 54 35" fill="none" xmlns="http://www.w3.org/2000/svg">
<path fill-rule="evenodd" clip-rule="evenodd" d="M32.1278 13.6819C32.1278 13.0937 32.6982 12.4579 33.9132 12.2981C35.3366 12.1616 36.7697 12.4149 38.0674 13.0325L38.8078 9.54412C37.5445 9.08459 36.2128 8.85702 34.8731 8.87177C30.7065 8.87177 27.7912 11.1107 27.7665 14.305C27.7665 16.668 29.8564 17.977 31.4114 18.7845C32.9656 19.592 33.5971 20.1062 33.5855 20.8287C33.5855 21.9295 32.2731 22.4191 31.0705 22.4318C29.5675 22.4633 28.0809 22.1056 26.7471 21.3914L25.9935 25.0014C27.4871 25.5854 29.0726 25.8802 30.6702 25.8709C35.0795 25.8709 37.9585 23.6558 37.9585 20.2414C37.9585 17.6455 35.8372 16.5175 34.141 15.6148C32.9978 15.0071 32.0478 14.5013 32.0668 13.7176L32.1278 13.6811V13.6819ZM11.795 20.3136L16.1804 9.12762H20.6259L13.8106 25.5768H9.36505L5.97762 12.4324C5.94778 12.1249 5.84052 11.8308 5.66645 11.579C5.4907 11.3252 5.25488 11.1219 4.98137 10.9883C3.65679 10.3513 2.26177 9.88287 0.827148 9.59342L0.924545 9.11572H8.07826C8.54644 9.11258 9.00058 9.28031 9.3601 9.58917C9.71667 9.89772 9.95191 10.3244 10.0221 10.7928L11.795 20.3136ZM18.9405 25.5649L22.4154 9.12847H26.6167L23.1442 25.5649H18.9405ZM46.5475 13.6199L44.3132 19.739H47.7625L46.5475 13.6199ZM44.8158 9.44552C45.1383 9.22596 45.5172 9.11107 45.9037 9.11572L49.4505 9.12847L52.8271 25.576H48.9288L48.4179 23.1288H43.0379L42.163 25.5768H37.8033L44.1068 10.3397C44.2472 9.97592 44.4939 9.66397 44.8158 9.44552Z" fill="#040404"/>
</svg>
