<svg width="82" height="54" viewBox="0 0 82 54" fill="none" xmlns="http://www.w3.org/2000/svg">
<path fill-rule="evenodd" clip-rule="evenodd" d="M49.5807 21.3149C49.5807 20.3974 50.4704 19.4056 52.3656 19.1563C54.586 18.9433 56.8216 19.3386 58.8458 20.3019L60.0007 14.8604C58.0302 14.1436 55.9528 13.7886 53.863 13.8116C47.3636 13.8116 42.816 17.304 42.7774 22.2868C42.7774 25.9729 46.0374 28.0148 48.4631 29.2744C50.8876 30.534 51.8725 31.3362 51.8545 32.4632C51.8545 34.1802 49.8073 34.944 47.9314 34.9639C45.5868 35.013 43.2679 34.455 41.1873 33.3409L40.0118 38.9721C42.3416 39.8832 44.8148 40.343 47.3069 40.3285C54.1849 40.3285 58.6758 36.8732 58.6758 31.547C58.6758 27.4977 55.3669 25.7382 52.721 24.3301C50.9378 23.382 49.4558 22.5931 49.4854 21.3706L49.5807 21.3136V21.3149ZM17.8636 31.6597L24.7043 14.2107H31.6389L21.0078 39.8697H14.0731L8.78909 19.3658C8.74254 18.8862 8.57522 18.4273 8.30369 18.0346C8.02954 17.6387 7.66168 17.3215 7.23504 17.1131C5.16883 16.1195 2.99274 15.3888 0.754883 14.9373L0.906812 14.1921H12.0659C12.7962 14.1872 13.5046 14.4489 14.0654 14.9307C14.6216 15.412 14.9886 16.0776 15.098 16.8082L17.8636 31.6597ZM29.0098 39.8512L34.4303 14.212H40.9839L35.5672 39.8512H29.0098ZM72.0739 21.2181L68.5886 30.7634H73.9692L72.0739 21.2181ZM69.3727 14.7066C69.8756 14.3641 70.4667 14.1849 71.0696 14.1921L76.6022 14.212L81.8695 39.8684H75.7884L74.9915 36.0511H66.5993L65.2345 39.8697H58.4338L68.2667 16.1014C68.4856 15.534 68.8705 15.0473 69.3727 14.7066Z" fill="white"/>
</svg>
