<svg width="181" height="54" viewBox="0 0 181 54" fill="none" xmlns="http://www.w3.org/2000/svg">
<mask id="mask0_12_6508" style="mask-type:luminance" maskUnits="userSpaceOnUse" x="0" y="0" width="181" height="54">
<path d="M180.049 0.736328H0.661133V53.7728H180.049V0.736328Z" fill="white"/>
</mask>
<g mask="url(#mask0_12_6508)">
<path d="M39.8028 16.8223H28.5947V37.6709H39.8028V16.8223Z" fill="#FF5F00"/>
<path d="M29.3024 27.2533C29.3006 25.2454 29.7402 23.2635 30.5878 21.4574C31.4354 19.6514 32.6689 18.0685 34.1948 16.8289C32.3052 15.2915 30.0358 14.3354 27.646 14.0699C25.2562 13.8044 22.8425 14.2402 20.6808 15.3275C18.5189 16.4149 16.6963 18.1099 15.4211 20.2188C14.1459 22.3276 13.4697 24.7653 13.4697 27.2533C13.4697 29.7412 14.1459 32.1789 15.4211 34.2878C16.6963 36.3966 18.5189 38.0917 20.6808 39.179C22.8425 40.2663 25.2562 40.7021 27.646 40.4367C30.0358 40.1711 32.3052 39.215 34.1948 37.6776C32.6689 36.438 31.4354 34.8551 30.5878 33.0491C29.7402 31.2431 29.3006 29.2611 29.3024 27.2533Z" fill="#EB001B"/>
<path d="M54.9285 27.2572C54.9287 29.7451 54.2525 32.1828 52.9774 34.2917C51.7022 36.4005 49.8797 38.0956 47.7179 39.1829C45.5562 40.2702 43.1425 40.706 40.7528 40.4406C38.3631 40.1751 36.0937 39.219 34.2041 37.6815C35.7286 36.4406 36.9612 34.8576 37.8086 33.0518C38.6561 31.246 39.0965 29.2647 39.0965 27.2572C39.0965 25.2496 38.6561 23.2683 37.8086 21.4625C36.9612 19.6568 35.7286 18.0738 34.2041 16.8328C36.0937 15.2955 38.3631 14.3393 40.7528 14.0738C43.1425 13.8083 45.5562 14.2441 47.7179 15.3315C49.8797 16.4188 51.7022 18.1138 52.9774 20.2227C54.2525 22.3317 54.9287 24.7694 54.9285 27.2572Z" fill="#F79E1B"/>
<path d="M53.7033 35.4652V35.0389H53.8694V34.952H53.4463V35.0389H53.6126V35.4652H53.7033ZM54.5248 35.4652V34.9512H54.3951L54.2459 35.3048L54.0966 34.9512H53.967V35.4652H54.0585V35.0775L54.1984 35.4118H54.2934L54.4333 35.0766V35.4652H54.5248Z" fill="#F79E1B"/>
<path d="M67.9676 40.5848H67.4932V36.1109V27.1625V18.214V13.7402H67.9676V22.6883V31.6368V40.5848Z" fill="white"/>
<path d="M81.0978 35.4657H79.7666V19.653H81.0978V35.4657ZM90.809 19.653C91.9766 19.6358 93.1388 19.8229 94.2462 20.2065C95.2086 20.5411 96.0931 21.0797 96.8432 21.7878C97.5624 22.4825 98.1249 23.3328 98.4906 24.2782C99.262 26.3928 99.262 28.7259 98.4906 30.8404C98.1249 31.7858 97.5624 32.6362 96.8432 33.331C96.0931 34.0392 95.2086 34.5778 94.2462 34.9124C93.1388 35.296 91.9766 35.4831 90.809 35.4657H85.2331V19.653H90.809ZM86.5643 20.9632V34.1556H90.809C91.8097 34.174 92.8061 34.0154 93.7553 33.6868C94.5543 33.4066 95.2869 32.9543 95.9047 32.3598C96.4916 31.7797 96.9431 31.0689 97.2252 30.2814C97.8214 28.5191 97.8214 26.5995 97.2252 24.8374C96.9422 24.0486 96.491 23.3363 95.9047 22.7536C95.2887 22.1564 94.5556 21.7037 93.7553 21.4263C92.8053 21.1016 91.8093 20.945 90.809 20.9632H86.5643ZM114.541 19.4723C115.181 19.4705 115.818 19.5463 116.44 19.6983C117.036 19.843 117.613 20.0612 118.159 20.3477C118.683 20.6225 119.171 20.9661 119.61 21.3698C120.039 21.765 120.412 22.2213 120.718 22.7253L119.605 23.4931C119.343 23.0792 119.029 22.7033 118.672 22.3751C118.31 22.043 117.911 21.7585 117.482 21.5279C117.04 21.2908 116.571 21.1106 116.086 20.9914C115.58 20.8664 115.062 20.8038 114.541 20.8051C113.674 20.7973 112.812 20.9621 112.005 21.2907C111.241 21.602 110.547 22.071 109.964 22.6688C109.376 23.2787 108.912 24.0047 108.6 24.8035C107.938 26.5768 107.938 28.542 108.6 30.3154C108.912 31.1142 109.376 31.8402 109.964 32.4501C110.547 33.0479 111.241 33.5168 112.005 33.828C112.812 34.1568 113.674 34.3217 114.541 34.3136C115.059 34.3152 115.576 34.2546 116.08 34.1329C116.563 34.0169 117.031 33.8386 117.471 33.602C117.9 33.3717 118.3 33.0872 118.661 32.755C119.02 32.4245 119.334 32.0443 119.594 31.6255L120.685 32.4501C120.367 32.9441 119.987 33.3923 119.556 33.7828C119.117 34.1781 118.634 34.5157 118.115 34.7881C117.577 35.0709 117.007 35.2851 116.419 35.4262C114.759 35.8174 113.024 35.6856 111.437 35.0478C110.511 34.669 109.667 34.1027 108.955 33.3818C108.246 32.6545 107.688 31.7862 107.313 30.8291C106.52 28.7285 106.52 26.396 107.313 24.2953C107.687 23.336 108.246 22.4657 108.955 21.7368C109.667 21.0161 110.511 20.4497 111.437 20.0708C112.425 19.6658 113.479 19.4626 114.541 19.4723ZM124.809 26.6783C125.004 26.3431 125.245 26.0388 125.524 25.7748C125.79 25.5234 126.09 25.3123 126.413 25.1479C126.733 24.9863 127.07 24.8649 127.417 24.7866C127.761 24.7081 128.112 24.6682 128.465 24.6679C129.063 24.6607 129.658 24.762 130.222 24.9672C130.729 25.1521 131.195 25.4424 131.591 25.8199C131.978 26.1969 132.279 26.6578 132.475 27.1696C132.688 27.7362 132.794 28.3404 132.785 28.9486V35.4657H131.543V29.344C131.549 28.8527 131.475 28.3639 131.323 27.8981C131.19 27.4897 130.97 27.1173 130.68 26.8083C130.387 26.5047 130.033 26.2715 129.644 26.1249C129.195 25.9597 128.722 25.8794 128.247 25.8877C127.786 25.884 127.329 25.9702 126.899 26.1418C126.492 26.3039 126.121 26.5498 125.808 26.8648C125.495 27.1832 125.246 27.5633 125.077 27.9828C124.895 28.4353 124.804 28.9214 124.809 29.4116V35.4657H123.565V19.2012H124.809V26.6783ZM140.184 24.6679C140.839 24.6618 141.487 24.7985 142.088 25.0689C142.663 25.3285 143.18 25.7093 143.605 26.187C144.043 26.6877 144.386 27.2704 144.614 27.9039C144.867 28.6027 144.997 29.3431 144.995 30.0894C144.995 30.1873 144.994 30.2797 144.99 30.366C144.986 30.4527 144.981 30.5374 144.975 30.6203H136.366C136.396 31.191 136.532 31.7503 136.763 32.2692C136.972 32.7328 137.266 33.1492 137.63 33.4946C137.988 33.8301 138.404 34.0892 138.858 34.2572C139.332 34.4326 139.833 34.5205 140.336 34.5169C141.001 34.5288 141.66 34.39 142.269 34.1103C142.839 33.8367 143.36 33.4621 143.806 33.0034L144.473 33.8844C144.169 34.2025 143.835 34.4865 143.474 34.7316C143.149 34.9509 142.8 35.1327 142.437 35.2736C142.089 35.4078 141.729 35.5025 141.363 35.556C140.998 35.6088 140.629 35.6352 140.261 35.6352C139.551 35.6429 138.846 35.5066 138.188 35.2341C137.573 34.9797 137.015 34.5971 136.55 34.1103C136.084 33.6156 135.72 33.0275 135.481 32.3822C135.219 31.672 135.089 30.9171 135.1 30.157C135.092 29.4022 135.223 28.6528 135.487 27.949C135.729 27.3018 136.091 26.7106 136.555 26.2097C137.014 25.7215 137.564 25.3351 138.171 25.0746C138.809 24.8002 139.493 24.6619 140.184 24.6679ZM140.162 25.8086C139.671 25.8024 139.183 25.8964 138.727 26.0853C138.303 26.264 137.916 26.5247 137.587 26.8534C137.254 27.1897 136.982 27.5857 136.785 28.0225C136.573 28.4928 136.439 28.9969 136.387 29.5134H143.731C143.694 28.9933 143.572 28.4833 143.371 28.0055C143.186 27.5694 142.926 27.1729 142.601 26.8366C142.28 26.5069 141.9 26.2463 141.481 26.0699C141.062 25.8934 140.615 25.8046 140.162 25.8086ZM152.153 24.6679C152.881 24.6606 153.603 24.8046 154.276 25.0914C154.913 25.3637 155.482 25.783 155.939 26.3169L155.132 27.1867C154.745 26.7814 154.288 26.454 153.785 26.2209C153.26 25.9856 152.692 25.8683 152.121 25.8763C151.583 25.8718 151.05 25.9814 150.555 26.1983C150.081 26.4055 149.653 26.709 149.294 27.0906C148.933 27.4806 148.649 27.9413 148.46 28.446C148.06 29.5491 148.06 30.765 148.46 31.8683C148.645 32.3683 148.925 32.8244 149.287 33.2088C149.647 33.5931 150.078 33.898 150.555 34.1047C151.05 34.3217 151.583 34.4313 152.121 34.4266C152.701 34.4334 153.277 34.3101 153.807 34.0652C154.311 33.8306 154.771 33.5056 155.165 33.1052L155.939 33.9861C155.478 34.518 154.908 34.9366 154.27 35.2116C152.91 35.7744 151.393 35.7764 150.031 35.2171C149.407 34.9547 148.842 34.5636 148.369 34.0674C147.896 33.5713 147.526 32.9806 147.281 32.3315C146.765 30.9293 146.765 29.3794 147.281 27.9772C147.525 27.3266 147.895 26.7346 148.368 26.2373C148.841 25.74 149.407 25.3482 150.031 25.0858C150.705 24.8013 151.426 24.6592 152.153 24.6679ZM159.682 29.3213H161.352L165.672 24.8372H167.243L162.355 29.8522L167.332 35.4657H165.749L161.352 30.4848H159.682V35.4657H158.438V19.2012H159.682V29.3213Z" fill="white"/>
</g>
</svg>
