<svg width="48" height="35" viewBox="0 0 48 35" fill="none" xmlns="http://www.w3.org/2000/svg">
<mask id="mask0_1_3393" style="mask-type:luminance" maskUnits="userSpaceOnUse" x="-1" y="0" width="48" height="35">
<path d="M-0.172852 0.488281H46.8271V34.4883H-0.172852V0.488281Z" fill="white"/>
</mask>
<g mask="url(#mask0_1_3393)">
<path d="M28.1669 8.58203H18.4521V26.4006H28.1669V8.58203Z" fill="#FF5F00"/>
<path d="M19.0739 17.4883C19.0739 14.0254 20.6468 10.7198 23.2989 8.57865C18.4881 4.7069 11.4885 5.5569 7.69491 10.4996C3.93239 15.4101 4.76581 22.5254 9.60764 26.3972C11.5568 27.9715 13.9761 28.8289 16.4692 28.8289C18.9624 28.8289 21.3816 27.9715 23.3308 26.3972C22.0045 25.3329 20.9329 23.9789 20.1961 22.4362C19.4592 20.8935 19.0762 19.2021 19.0756 17.4883H19.0739Z" fill="#EB001B"/>
<path d="M41.2761 17.4883C41.2761 23.7528 36.3109 28.8214 30.1732 28.8214C27.6755 28.8214 25.2701 27.9714 23.3271 26.3972C28.1379 22.5254 28.9705 15.4101 25.1778 10.4682C24.6222 9.77545 24.0053 9.11415 23.3271 8.57865C28.1379 4.7069 35.1393 5.5569 38.9009 10.4996C40.4456 12.4927 41.2823 14.9547 41.2761 17.4883Z" fill="#F79E1B"/>
</g>
</svg>
