<svg width="34" height="35" viewBox="0 0 34 35" fill="none" xmlns="http://www.w3.org/2000/svg">
<path d="M30.3537 3.03516H2.30371V17.5022H30.3537V3.03516Z" fill="#FEFEFE"/>
<path d="M30.3537 17.4727H2.30371V31.9397H30.3537V17.4727Z" fill="#1A1F71"/>
<path d="M10.5643 22.915C10.3383 22.8093 10.0922 22.757 9.84405 22.762C9.1626 22.762 8.72865 23.1581 8.72865 23.6843C8.72865 24.1348 9.0735 24.4357 9.58417 24.6363C9.99172 24.8012 10.1658 24.9763 10.1658 25.2585C10.1658 25.5585 9.9381 25.7634 9.53055 25.7634C9.24757 25.7634 8.9712 25.6758 8.78722 25.567L8.6709 25.9886C8.83755 26.0974 9.17745 26.1884 9.4992 26.1884C10.2681 26.1884 10.693 25.7719 10.693 25.2143C10.693 24.7587 10.429 24.4663 9.87952 24.2308C9.44557 24.0498 9.25252 23.9095 9.25252 23.6273C9.25252 23.4148 9.42247 23.1845 9.83002 23.1845C10.1105 23.1845 10.3267 23.2703 10.438 23.3324L10.5643 22.915ZM13.1143 25.72H11.7671V24.6133H12.9667V24.1968H11.7671V23.2304H13.0376V22.8088H11.2474V26.1408H13.1143V25.7183V25.72ZM15.7675 25.6444C15.5709 25.7257 15.3606 25.7661 15.1488 25.7634C14.4434 25.7634 14.0045 25.3052 14.0045 24.4875C14.0045 23.6222 14.4962 23.187 15.1587 23.187C15.3644 23.1847 15.5684 23.2263 15.7576 23.3094L15.869 22.8972C15.775 22.8487 15.5349 22.7654 15.1397 22.7654C14.191 22.7654 13.4592 23.3842 13.4592 24.5156C13.4592 25.5747 14.0969 26.1884 15.0514 26.1884C15.4227 26.1884 15.7139 26.1187 15.8566 26.049L15.7675 25.6444ZM18.7788 22.8096H18.2582V24.8267C18.2582 25.4897 17.9909 25.7761 17.5611 25.7761C17.1667 25.7761 16.8846 25.4922 16.8846 24.8267V22.8096H16.3665V24.7961C16.3665 25.7889 16.8409 26.1884 17.5421 26.1884C18.2722 26.1884 18.7788 25.7719 18.7788 24.7833V22.8096ZM20.9518 24.5496C21.2959 24.4221 21.5648 24.1322 21.5648 23.7055C21.5648 23.4361 21.4708 23.2057 21.2909 23.0527C21.0772 22.8657 20.7646 22.7884 20.3166 22.7884C20.0377 22.7883 19.7593 22.8116 19.4842 22.8581V26.1416H19.999V24.7323H20.3116C20.6746 24.7323 20.8396 24.9015 20.9345 25.3443C21.0195 25.7532 21.0995 26.0456 21.1482 26.1416H21.6861C21.6184 26.0141 21.5335 25.6707 21.4312 25.2355C21.3487 24.8836 21.2059 24.6499 20.9518 24.5572V24.5496ZM19.999 24.3532V23.21C20.0617 23.193 20.1871 23.1794 20.362 23.1794C20.7332 23.1794 21.0459 23.3273 21.0459 23.7574C21.0459 24.1144 20.7769 24.3524 20.3479 24.3524L19.999 24.3532ZM24.0118 25.7192H22.6654V24.6142H23.8641V24.1977H22.6654V23.2312H23.9359V22.8096H22.1464V26.1416H24.0109L24.0118 25.7192Z" fill="#FEFEFE" stroke="#FEFEFE" stroke-width="0.245"/>
<path fill-rule="evenodd" clip-rule="evenodd" d="M15.6714 7.09846L14.3267 13.5848H12.7014L14.0462 7.09846H15.6714ZM22.5156 11.2873L23.3736 8.84946L23.867 11.2873H22.5156ZM24.329 13.5848H25.8321L24.522 7.09846H23.1336C22.9849 7.09796 22.8395 7.14304 22.7158 7.22796C22.5921 7.31287 22.4957 7.43378 22.4389 7.57531L20.0002 13.5916H21.7063L22.0446 12.6209H24.131L24.329 13.5848ZM20.086 11.4675C20.091 9.75471 17.7925 9.66121 17.8065 8.89451C17.8107 8.66076 18.0276 8.41596 18.4971 8.35306C18.7281 8.32161 19.3674 8.29781 20.1009 8.64036L20.3855 7.26166C19.8992 7.07133 19.3835 6.97342 18.8634 6.97266C17.2571 6.97266 16.1244 7.85411 16.1145 9.11891C16.1046 10.0539 16.9238 10.5716 17.5417 10.8844C18.1728 11.2023 18.3849 11.4071 18.3849 11.6919C18.3799 12.1228 17.8783 12.3175 17.4114 12.3277C16.5921 12.3421 16.1194 12.0982 15.7383 11.9197L15.4446 13.3417C15.8249 13.5219 16.5253 13.6809 17.253 13.686C18.9632 13.6902 20.0769 12.8139 20.086 11.4675ZM13.3482 7.09846L10.7115 13.5848H8.98895L7.6937 8.40661C7.61615 8.08786 7.5485 7.96971 7.3076 7.83456C6.91655 7.61611 6.26975 7.41126 5.70215 7.28206L5.7401 7.09336H8.50715C8.85942 7.09336 9.17787 7.33646 9.25955 7.75551L9.94347 11.5108L11.6347 7.09336H13.3474V7.09846H13.3482Z" fill="#1A1F71"/>
</svg>
