<svg width="116" height="35" viewBox="0 0 116 35" fill="none" xmlns="http://www.w3.org/2000/svg">
<mask id="mask0_1_3406" style="mask-type:luminance" maskUnits="userSpaceOnUse" x="-1" y="0" width="116" height="35">
<path d="M114.827 0.488281H-0.172852V34.4883H114.827V0.488281Z" fill="white"/>
</mask>
<g mask="url(#mask0_1_3406)">
<path d="M24.9185 10.8008H17.7334V24.1662H24.9185V10.8008Z" fill="#FF5F00"/>
<path d="M18.1879 17.4883C18.1868 16.2011 18.4686 14.9305 19.012 13.7728C19.5553 12.615 20.3461 11.6002 21.3243 10.8056C20.1129 9.82001 18.6581 9.20707 17.1261 9.03682C15.594 8.86662 14.0467 9.14604 12.6608 9.84304C11.2749 10.5401 10.1065 11.6268 9.28905 12.9787C8.47156 14.3306 8.03809 15.8933 8.03809 17.4883C8.03809 19.0832 8.47156 20.6459 9.28905 21.9979C10.1065 23.3498 11.2749 24.4364 12.6608 25.1335C14.0467 25.8305 15.594 26.1099 17.1261 25.9397C18.6581 25.7695 20.1129 25.1566 21.3243 24.171C20.3461 23.3763 19.5553 22.3616 19.012 21.2038C18.4686 20.046 18.1868 18.7754 18.1879 17.4883Z" fill="#EB001B"/>
<path d="M34.6129 17.4883C34.613 19.0832 34.1795 20.6459 33.3621 21.9979C32.5447 23.3498 31.3763 24.4364 29.9904 25.1335C28.6046 25.8305 27.0573 26.1099 25.5253 25.9397C23.9933 25.7696 22.5385 25.1566 21.3271 24.171C22.3045 23.3755 23.0946 22.3607 23.6379 21.203C24.1812 20.0454 24.4635 18.7753 24.4635 17.4883C24.4635 16.2013 24.1812 14.9311 23.6379 13.7735C23.0946 12.6159 22.3045 11.6011 21.3271 10.8056C22.5385 9.82001 23.9933 9.20707 25.5253 9.03682C27.0573 8.86662 28.6046 9.14604 29.9904 9.84313C31.3763 10.5401 32.5447 11.6268 33.3621 12.9787C34.1795 14.3307 34.613 15.8934 34.6129 17.4883Z" fill="#F79E1B"/>
<path d="M33.828 22.7557V22.4821H33.9347V22.4263H33.6631V22.4821H33.7698V22.7557H33.828ZM34.3552 22.7557V22.4258H34.272L34.1762 22.6527L34.0805 22.4258H33.9972V22.7557H34.056V22.5069L34.1458 22.7214H34.2067L34.2965 22.5063V22.7557H34.3552Z" fill="#F79E1B"/>
<path d="M42.9751 26.0334H42.6709V23.1654V17.4288V11.6922V8.82422H42.9751V14.5606V20.2971V26.0334Z" fill="#040404"/>
<path d="M51.3915 22.7509H50.5381V12.6139H51.3915V22.7509ZM57.617 12.6139C58.3656 12.6028 59.1106 12.7228 59.8205 12.9687C60.4375 13.1832 61.0045 13.5285 61.4853 13.9824C61.9464 14.4278 62.307 14.9729 62.5415 15.579C63.036 16.9345 63.036 18.4302 62.5415 19.7858C62.307 20.3918 61.9464 20.937 61.4853 21.3824C61.0045 21.8364 60.4375 22.1817 59.8205 22.3962C59.1106 22.6421 58.3656 22.762 57.617 22.7509H54.0425V12.6139H57.617ZM54.8958 13.4538V21.911H57.617C58.2585 21.9228 58.8973 21.8212 59.5058 21.6105C60.018 21.4309 60.4876 21.1409 60.8837 20.7598C61.2599 20.3879 61.5494 19.9322 61.7302 19.4274C62.1124 18.2977 62.1124 17.067 61.7302 15.9374C61.5488 15.4317 61.2595 14.9751 60.8837 14.6015C60.4888 14.2187 60.0188 13.9285 59.5058 13.7507C58.8968 13.5425 58.2583 13.4421 57.617 13.4538H54.8958ZM72.8312 12.498C73.2411 12.4969 73.6496 12.5455 74.0485 12.6429C74.4304 12.7357 74.8002 12.8755 75.1501 13.0592C75.486 13.2354 75.7987 13.4557 76.0805 13.7145C76.3558 13.9678 76.5948 14.2603 76.7905 14.5834L76.077 15.0757C75.9092 14.8103 75.7081 14.5693 75.4789 14.3589C75.2473 14.146 74.9912 13.9636 74.7163 13.8158C74.4326 13.6638 74.132 13.5483 73.8211 13.4719C73.4969 13.3917 73.1646 13.3516 72.8312 13.3525C72.2748 13.3474 71.7226 13.4531 71.2048 13.6637C70.7154 13.8633 70.2704 14.164 69.8969 14.5472C69.5199 14.9382 69.2225 15.4036 69.0225 15.9157C68.5981 17.0525 68.5981 18.3123 69.0225 19.4492C69.2225 19.9613 69.5198 20.4267 69.8969 20.8177C70.2704 21.2009 70.7154 21.5015 71.2048 21.701C71.7226 21.9118 72.2748 22.0175 72.8312 22.0123C73.1632 22.0134 73.4941 21.9745 73.8175 21.8965C74.1274 21.8221 74.427 21.7078 74.7094 21.5562C74.9843 21.4085 75.2404 21.2261 75.4719 21.0132C75.7024 20.8013 75.9036 20.5576 76.0701 20.2891L76.7695 20.8177C76.5658 21.1344 76.3223 21.4217 76.0455 21.672C75.7646 21.9255 75.4545 22.1419 75.1222 22.3165C74.7769 22.4978 74.4117 22.6351 74.0345 22.7256C72.9705 22.9763 71.8584 22.8918 70.8411 22.483C70.2472 22.2401 69.7062 21.8771 69.2497 21.415C68.7956 20.9487 68.4374 20.3921 68.197 19.7785C67.6888 18.4319 67.6888 16.9366 68.197 15.5899C68.4369 14.9749 68.7951 14.417 69.2497 13.9498C69.7062 13.4877 70.2473 13.1246 70.8411 12.8817C71.4743 12.6221 72.1501 12.4918 72.8312 12.498ZM79.4136 17.1175C79.5385 16.9027 79.6929 16.7076 79.8718 16.5383C80.0425 16.3772 80.2345 16.2419 80.4418 16.1365C80.6466 16.0329 80.8627 15.9551 81.0854 15.9048C81.3059 15.8545 81.5311 15.8289 81.757 15.8288C82.1406 15.8242 82.5217 15.8891 82.8832 16.0206C83.2084 16.1392 83.5074 16.3253 83.7613 16.5672C84.0093 16.809 84.2024 17.1044 84.328 17.4325C84.4644 17.7958 84.5326 18.1831 84.5268 18.573V22.7509H83.73V18.8265C83.7341 18.5115 83.6865 18.1981 83.5896 17.8995C83.5042 17.6377 83.3629 17.399 83.1772 17.2009C82.9891 17.0063 82.7624 16.8568 82.5127 16.7628C82.2252 16.6569 81.9219 16.6054 81.6171 16.6108C81.3218 16.6084 81.0287 16.6636 80.7532 16.7736C80.4921 16.8776 80.2542 17.0352 80.0537 17.2371C79.8528 17.4412 79.6935 17.6849 79.5851 17.9539C79.4683 18.244 79.4099 18.5556 79.4135 18.8698V22.7509H78.6161V12.3242H79.4136V17.1175ZM89.2698 15.8288C89.6895 15.8249 90.1052 15.9125 90.4904 16.0858C90.8592 16.2522 91.1903 16.4964 91.463 16.8026C91.7439 17.1236 91.9632 17.4971 92.1094 17.9033C92.2721 18.3512 92.355 18.8259 92.3542 19.3043C92.3542 19.3671 92.3534 19.4263 92.3509 19.4816C92.3485 19.5372 92.3452 19.5915 92.3411 19.6447H86.8219C86.8416 20.0105 86.9287 20.369 87.0765 20.7017C87.2104 20.9989 87.3994 21.2659 87.6327 21.4873C87.8618 21.7024 88.1288 21.8684 88.4196 21.9761C88.7235 22.0886 89.0447 22.1449 89.3675 22.1427C89.7938 22.1503 90.216 22.0613 90.6062 21.882C90.9718 21.7066 91.3061 21.4665 91.5919 21.1724L92.0191 21.7372C91.8244 21.9411 91.61 22.1232 91.3792 22.2803C91.1705 22.4209 90.9471 22.5374 90.7138 22.6277C90.4912 22.7138 90.2604 22.7745 90.0255 22.8088C89.7914 22.8426 89.5548 22.8595 89.319 22.8595C88.864 22.8645 88.4122 22.7771 87.99 22.6024C87.5957 22.4393 87.2384 22.1941 86.9402 21.882C86.6412 21.5648 86.4079 21.1878 86.2551 20.7742C86.0867 20.3189 86.0038 19.8349 86.0103 19.3477C86.0054 18.8638 86.0892 18.3834 86.2584 17.9322C86.4137 17.5173 86.6461 17.1383 86.9435 16.8171C87.2375 16.5042 87.5899 16.2565 87.9793 16.0895C88.3884 15.9136 88.827 15.8249 89.2698 15.8288ZM89.2558 16.56C88.9412 16.556 88.6282 16.6163 88.3358 16.7374C88.0639 16.852 87.8158 17.0191 87.6047 17.2298C87.3912 17.4454 87.217 17.6993 87.0905 17.9793C86.955 18.2808 86.8687 18.6039 86.8359 18.9351H91.5435C91.5197 18.6016 91.4416 18.2747 91.3127 17.9684C91.1944 17.6888 91.0276 17.4347 90.819 17.219C90.6136 17.0077 90.3697 16.8406 90.101 16.7276C89.8324 16.6144 89.5458 16.5575 89.2558 16.56ZM96.9427 15.8288C97.4093 15.8241 97.8726 15.9164 98.3038 16.1003C98.7121 16.2748 99.0768 16.5436 99.37 16.8859L98.8525 17.4435C98.6045 17.1837 98.3112 16.9738 97.9892 16.8244C97.6524 16.6735 97.2885 16.5983 96.9222 16.6035C96.5772 16.6006 96.2355 16.6708 95.9184 16.8098C95.6145 16.9427 95.3401 17.1373 95.1101 17.3819C94.8785 17.6319 94.6961 17.9272 94.5754 18.2508C94.3191 18.958 94.3191 19.7374 94.5754 20.4447C94.6937 20.7652 94.8735 21.0576 95.1052 21.304C95.336 21.5505 95.6128 21.7459 95.9184 21.8784C96.2355 22.0175 96.5772 22.0877 96.9222 22.0848C97.2943 22.0891 97.6631 22.0101 98.0032 21.8531C98.326 21.7027 98.6209 21.4944 98.8739 21.2377L99.37 21.8024C99.0743 22.1433 98.7088 22.4117 98.2997 22.588C97.4282 22.9488 96.4556 22.9501 95.5824 22.5915C95.1824 22.4233 94.8202 22.1726 94.517 21.8545C94.2139 21.5364 93.9765 21.1578 93.8197 20.7417C93.4886 19.8427 93.4886 18.8492 93.8197 17.9503C93.9757 17.5332 94.2131 17.1537 94.5162 16.8348C94.8193 16.5161 95.1824 16.2649 95.5824 16.0967C96.0145 15.9143 96.477 15.8232 96.9427 15.8288ZM101.769 18.8119H102.84L105.61 15.9373H106.617L103.483 19.1523L106.673 22.7509H105.659L102.84 19.5578H101.769V22.7509H100.972V12.3242H101.769V18.8119Z" fill="#040404"/>
</g>
</svg>
