<svg width="728" height="728" viewBox="0 0 728 728" fill="none" xmlns="http://www.w3.org/2000/svg">
<path d="M218.688 0.994636C218.745 0.994636 218.786 0.95369 218.786 0.896366C218.786 0.839042 218.737 0.798096 218.688 0.798096C218.639 0.798096 218.59 0.839042 218.59 0.896366C218.59 0.95369 218.639 0.994636 218.688 0.994636Z" fill="#040404"/>
<path d="M254.986 1.19797C255.15 1.19797 255.289 1.06659 255.289 0.894149C255.289 0.721712 255.158 0.590332 254.986 0.590332C254.813 0.590332 254.682 0.721712 254.682 0.894149C254.682 1.06659 254.813 1.19797 254.986 1.19797Z" fill="#040404"/>
<path d="M291.287 1.50262C291.624 1.50262 291.895 1.23165 291.895 0.894987C291.895 0.558325 291.624 0.287354 291.287 0.287354C290.951 0.287354 290.68 0.558325 290.68 0.894987C290.68 1.23165 290.951 1.50262 291.287 1.50262Z" fill="#040404"/>
<path d="M327.582 1.70023C328.026 1.70023 328.387 1.33893 328.387 0.895524C328.387 0.452116 328.026 0.0908203 327.582 0.0908203C327.139 0.0908203 326.777 0.452116 326.777 0.895524C326.777 1.33893 327.139 1.70023 327.582 1.70023Z" fill="#040404"/>
<path d="M363.884 1.80648C364.385 1.80648 364.787 1.40413 364.787 0.903238C364.787 0.402352 364.385 0 363.884 0C363.383 0 362.98 0.402352 362.98 0.903238C362.98 1.40413 363.383 1.80648 363.884 1.80648Z" fill="#040404"/>
<path d="M400.178 1.70023C400.621 1.70023 400.983 1.33893 400.983 0.895524C400.983 0.452116 400.621 0.0908203 400.178 0.0908203C399.734 0.0908203 399.373 0.452116 399.373 0.895524C399.373 1.33893 399.734 1.70023 400.178 1.70023Z" fill="#040404"/>
<path d="M436.471 1.50262C436.808 1.50262 437.079 1.23165 437.079 0.894987C437.079 0.558325 436.808 0.287354 436.471 0.287354C436.134 0.287354 435.863 0.558325 435.863 0.894987C435.863 1.23165 436.134 1.50262 436.471 1.50262Z" fill="#040404"/>
<path d="M472.771 1.19797C472.935 1.19797 473.075 1.06659 473.075 0.894149C473.075 0.721712 472.943 0.590332 472.771 0.590332C472.598 0.590332 472.467 0.721712 472.467 0.894149C472.467 1.06659 472.598 1.19797 472.771 1.19797Z" fill="#040404"/>
<path d="M509.063 0.994636C509.12 0.994636 509.161 0.95369 509.161 0.896366C509.161 0.839042 509.112 0.798096 509.063 0.798096C509.014 0.798096 508.965 0.839042 508.965 0.896366C508.965 0.95369 509.014 0.994636 509.063 0.994636Z" fill="#040404"/>
<path d="M146.092 37.2866C146.15 37.2866 146.191 37.2457 146.191 37.1884C146.191 37.131 146.142 37.0901 146.092 37.0901C146.043 37.0901 145.994 37.131 145.994 37.1884C145.994 37.2457 146.043 37.2866 146.092 37.2866Z" fill="#040404"/>
<path d="M182.39 37.6883C182.669 37.6883 182.891 37.4666 182.891 37.1874C182.891 36.9082 182.669 36.6865 182.39 36.6865C182.11 36.6865 181.889 36.9082 181.889 37.1874C181.889 37.4666 182.11 37.6883 182.39 37.6883Z" fill="#040404"/>
<path d="M218.688 38.1906C219.246 38.1906 219.69 37.739 219.69 37.1806C219.69 36.6223 219.238 36.1707 218.688 36.1707C218.138 36.1707 217.678 36.6223 217.678 37.1806C217.678 37.739 218.129 38.1906 218.688 38.1906Z" fill="#040404"/>
<path d="M254.982 38.6997C255.811 38.6997 256.493 38.0264 256.493 37.1889C256.493 36.3513 255.82 35.678 254.982 35.678C254.144 35.678 253.471 36.3513 253.471 37.1889C253.471 38.0264 254.144 38.6997 254.982 38.6997Z" fill="#040404"/>
<path d="M291.287 39.1016C292.346 39.1016 293.2 38.2476 293.2 37.1884C293.2 36.1291 292.346 35.2751 291.287 35.2751C290.227 35.2751 289.373 36.1291 289.373 37.1884C289.373 38.2476 290.227 39.1016 291.287 39.1016Z" fill="#040404"/>
<path d="M327.583 39.2999C328.75 39.2999 329.694 38.3556 329.694 37.1896C329.694 36.0236 328.75 35.0793 327.583 35.0793C326.417 35.0793 325.473 36.0236 325.473 37.1896C325.473 38.3556 326.417 39.2999 327.583 39.2999Z" fill="#040404"/>
<path d="M363.886 39.3982C365.109 39.3982 366.103 38.4046 366.103 37.1812C366.103 35.9577 365.109 34.9641 363.886 34.9641C362.662 34.9641 361.668 35.9577 361.668 37.1812C361.668 38.4046 362.662 39.3982 363.886 39.3982Z" fill="#040404"/>
<path d="M400.177 39.3982C401.4 39.3982 402.394 38.4046 402.394 37.1812C402.394 35.9577 401.4 34.9641 400.177 34.9641C398.953 34.9641 397.959 35.9577 397.959 37.1812C397.959 38.4046 398.953 39.3982 400.177 39.3982Z" fill="#040404"/>
<path d="M436.47 39.1016C437.53 39.1016 438.384 38.2476 438.384 37.1884C438.384 36.1291 437.53 35.2751 436.47 35.2751C435.411 35.2751 434.557 36.1291 434.557 37.1884C434.557 38.2476 435.411 39.1016 436.47 39.1016Z" fill="#040404"/>
<path d="M472.776 38.7977C473.663 38.7977 474.386 38.0751 474.386 37.1883C474.386 36.3014 473.663 35.5789 472.776 35.5789C471.889 35.5789 471.166 36.3014 471.166 37.1883C471.166 38.0751 471.889 38.7977 472.776 38.7977Z" fill="#040404"/>
<path d="M509.064 38.2888C509.672 38.2888 510.173 37.7961 510.173 37.1803C510.173 36.5645 509.68 36.0718 509.064 36.0718C508.448 36.0718 507.955 36.5645 507.955 37.1803C507.955 37.7961 508.448 38.2888 509.064 38.2888Z" fill="#040404"/>
<path d="M545.366 37.6883C545.645 37.6883 545.867 37.4666 545.867 37.1874C545.867 36.9082 545.645 36.6865 545.366 36.6865C545.087 36.6865 544.865 36.9082 544.865 37.1874C544.865 37.4666 545.087 37.6883 545.366 37.6883Z" fill="#040404"/>
<path d="M581.663 37.2866C581.72 37.2866 581.761 37.2457 581.761 37.1884C581.761 37.131 581.712 37.0901 581.663 37.0901C581.614 37.0901 581.564 37.131 581.564 37.1884C581.564 37.2457 581.614 37.2866 581.663 37.2866Z" fill="#040404"/>
<path d="M109.803 73.6794C109.91 73.6794 110 73.589 110 73.4741C110 73.3591 109.91 73.2688 109.803 73.2688C109.696 73.2688 109.598 73.3591 109.598 73.4741C109.598 73.589 109.688 73.6794 109.803 73.6794Z" fill="#040404"/>
<path d="M146.092 74.2784C146.537 74.2784 146.897 73.9181 146.897 73.4736C146.897 73.0292 146.537 72.6689 146.092 72.6689C145.647 72.6689 145.287 73.0292 145.287 73.4736C145.287 73.9181 145.647 74.2784 146.092 74.2784Z" fill="#040404"/>
<path d="M182.385 75.0843C183.272 75.0843 183.995 74.3617 183.995 73.4749C183.995 72.5881 183.272 71.8655 182.385 71.8655C181.498 71.8655 180.775 72.5881 180.775 73.4749C180.775 74.3617 181.498 75.0843 182.385 75.0843Z" fill="#040404"/>
<path d="M218.691 75.7906C219.972 75.7906 221.007 74.756 221.007 73.475C221.007 72.194 219.972 71.1594 218.691 71.1594C217.41 71.1594 216.375 72.194 216.375 73.475C216.375 74.756 217.41 75.7906 218.691 75.7906Z" fill="#040404"/>
<path d="M254.987 76.2904C256.539 76.2904 257.804 75.0259 257.804 73.4739C257.804 71.922 256.539 70.6575 254.987 70.6575C253.435 70.6575 252.17 71.922 252.17 73.4739C252.17 75.0259 253.435 76.2904 254.987 76.2904Z" fill="#040404"/>
<path d="M291.286 76.6945C293.068 76.6945 294.506 75.2493 294.506 73.4756C294.506 71.702 293.06 70.2568 291.286 70.2568C289.512 70.2568 288.066 71.702 288.066 73.4756C288.066 75.2493 289.512 76.6945 291.286 76.6945Z" fill="#040404"/>
<path d="M327.58 76.9964C329.527 76.9964 331.104 75.4199 331.104 73.4738C331.104 71.5277 329.527 69.9512 327.58 69.9512C325.634 69.9512 324.057 71.5277 324.057 73.4738C324.057 75.4199 325.634 76.9964 327.58 76.9964Z" fill="#040404"/>
<path d="M363.878 77.0958C365.882 77.0958 367.5 75.47 367.5 73.4747C367.5 71.4793 365.882 69.8535 363.878 69.8535C361.874 69.8535 360.256 71.4793 360.256 73.4747C360.256 75.47 361.882 77.0958 363.878 77.0958Z" fill="#040404"/>
<path d="M400.176 76.9964C402.122 76.9964 403.699 75.4199 403.699 73.4738C403.699 71.5277 402.122 69.9512 400.176 69.9512C398.229 69.9512 396.652 71.5277 396.652 73.4738C396.652 75.4199 398.229 76.9964 400.176 76.9964Z" fill="#040404"/>
<path d="M436.468 76.7927C438.3 76.7927 439.787 75.3064 439.787 73.4753C439.787 71.6442 438.3 70.158 436.468 70.158C434.637 70.158 433.15 71.6442 433.15 73.4753C433.15 75.3064 434.637 76.7927 436.468 76.7927Z" fill="#040404"/>
<path d="M472.771 76.3908C474.381 76.3908 475.687 75.0852 475.687 73.4758C475.687 71.8664 474.381 70.5608 472.771 70.5608C471.161 70.5608 469.855 71.8664 469.855 73.4758C469.855 75.0852 471.161 76.3908 472.771 76.3908Z" fill="#040404"/>
<path d="M509.066 75.7906C510.347 75.7906 511.382 74.756 511.382 73.475C511.382 72.194 510.347 71.1594 509.066 71.1594C507.785 71.1594 506.75 72.194 506.75 73.475C506.75 74.756 507.785 75.7906 509.066 75.7906Z" fill="#040404"/>
<path d="M545.372 75.1825C546.317 75.1825 547.081 74.4188 547.081 73.4745C547.081 72.5302 546.317 71.7666 545.372 71.7666C544.428 71.7666 543.664 72.5302 543.664 73.4745C543.664 74.4188 544.428 75.1825 545.372 75.1825Z" fill="#040404"/>
<path d="M581.659 74.3778C582.16 74.3778 582.563 73.9754 582.563 73.4745C582.563 72.9736 582.16 72.5713 581.659 72.5713C581.158 72.5713 580.756 72.9736 580.756 73.4745C580.756 73.9754 581.158 74.3778 581.659 74.3778Z" fill="#040404"/>
<path d="M617.957 73.6794C618.064 73.6794 618.154 73.589 618.154 73.4741C618.154 73.3591 618.064 73.2688 617.957 73.2688C617.851 73.2688 617.752 73.3591 617.752 73.4741C617.752 73.589 617.842 73.6794 617.957 73.6794Z" fill="#040404"/>
<path d="M73.4963 109.965C73.6031 109.965 73.6935 109.875 73.6935 109.76C73.6935 109.645 73.6031 109.555 73.4963 109.555C73.3896 109.555 73.291 109.645 73.291 109.76C73.291 109.875 73.3814 109.965 73.4963 109.965Z" fill="#040404"/>
<path d="M109.805 110.769C110.364 110.769 110.807 110.317 110.807 109.759C110.807 109.2 110.355 108.749 109.805 108.749C109.255 108.749 108.795 109.2 108.795 109.759C108.795 110.317 109.247 110.769 109.805 110.769Z" fill="#040404"/>
<path d="M146.095 111.673C147.155 111.673 148.009 110.819 148.009 109.76C148.009 108.7 147.155 107.846 146.095 107.846C145.036 107.846 144.182 108.7 144.182 109.76C144.182 110.819 145.036 111.673 146.095 111.673Z" fill="#040404"/>
<path d="M182.391 112.585C183.944 112.585 185.208 111.32 185.208 109.768C185.208 108.216 183.944 106.952 182.391 106.952C180.839 106.952 179.574 108.216 179.574 109.768C179.574 111.32 180.839 112.585 182.391 112.585Z" fill="#040404"/>
<path d="M218.693 113.285C220.64 113.285 222.217 111.708 222.217 109.762C222.217 107.816 220.64 106.239 218.693 106.239C216.747 106.239 215.17 107.816 215.17 109.762C215.17 111.708 216.747 113.285 218.693 113.285Z" fill="#040404"/>
<path d="M254.982 113.889C257.257 113.889 259.105 112.041 259.105 109.767C259.105 107.492 257.257 105.645 254.982 105.645C252.707 105.645 250.859 107.492 250.859 109.767C250.859 112.041 252.707 113.889 254.982 113.889Z" fill="#040404"/>
<path d="M291.288 114.391C293.843 114.391 295.921 112.322 295.921 109.76C295.921 107.198 293.851 105.129 291.288 105.129C288.726 105.129 286.656 107.198 286.656 109.76C286.656 112.322 288.726 114.391 291.288 114.391Z" fill="#040404"/>
<path d="M327.579 114.696C330.305 114.696 332.507 112.487 332.507 109.761C332.507 107.035 330.297 104.826 327.579 104.826C324.86 104.826 322.643 107.035 322.643 109.761C322.643 112.487 324.852 114.696 327.579 114.696Z" fill="#040404"/>
<path d="M363.884 114.792C366.66 114.792 368.919 112.542 368.919 109.759C368.919 106.975 366.669 104.725 363.884 104.725C361.1 104.725 358.85 106.975 358.85 109.759C358.85 112.542 361.1 114.792 363.884 114.792Z" fill="#040404"/>
<path d="M400.174 114.696C402.901 114.696 405.102 112.487 405.102 109.761C405.102 107.035 402.893 104.826 400.174 104.826C397.456 104.826 395.238 107.035 395.238 109.761C395.238 112.487 397.448 114.696 400.174 114.696Z" fill="#040404"/>
<path d="M436.472 114.39C439.026 114.39 441.104 112.321 441.104 109.759C441.104 107.197 439.035 105.128 436.472 105.128C433.91 105.128 431.84 107.197 431.84 109.759C431.84 112.321 433.91 114.39 436.472 114.39Z" fill="#040404"/>
<path d="M472.773 113.889C475.048 113.889 476.896 112.041 476.896 109.767C476.896 107.492 475.048 105.645 472.773 105.645C470.498 105.645 468.65 107.492 468.65 109.767C468.65 112.041 470.498 113.889 472.773 113.889Z" fill="#040404"/>
<path d="M509.068 113.285C511.015 113.285 512.592 111.708 512.592 109.762C512.592 107.816 511.015 106.239 509.068 106.239C507.122 106.239 505.545 107.816 505.545 109.762C505.545 111.708 507.122 113.285 509.068 113.285Z" fill="#040404"/>
<path d="M545.368 112.585C546.92 112.585 548.185 111.32 548.185 109.768C548.185 108.216 546.92 106.952 545.368 106.952C543.816 106.952 542.551 108.216 542.551 109.768C542.551 111.32 543.816 112.585 545.368 112.585Z" fill="#040404"/>
<path d="M581.663 111.779C582.771 111.779 583.675 110.876 583.675 109.767C583.675 108.659 582.771 107.756 581.663 107.756C580.554 107.756 579.65 108.659 579.65 109.767C579.65 110.876 580.554 111.779 581.663 111.779Z" fill="#040404"/>
<path d="M617.954 110.769C618.512 110.769 618.956 110.317 618.956 109.759C618.956 109.2 618.504 108.749 617.954 108.749C617.403 108.749 616.943 109.2 616.943 109.759C616.943 110.317 617.395 110.769 617.954 110.769Z" fill="#040404"/>
<path d="M654.252 109.965C654.359 109.965 654.449 109.875 654.449 109.76C654.449 109.645 654.359 109.555 654.252 109.555C654.145 109.555 654.047 109.645 654.047 109.76C654.047 109.875 654.137 109.965 654.252 109.965Z" fill="#040404"/>
<path d="M37.2018 146.151C37.2591 146.151 37.3001 146.11 37.3001 146.053C37.3001 145.996 37.251 145.955 37.2018 145.955C37.1527 145.955 37.1035 145.996 37.1035 146.053C37.1035 146.11 37.1527 146.151 37.2018 146.151Z" fill="#040404"/>
<path d="M73.5002 146.858C73.9437 146.858 74.3051 146.497 74.3051 146.054C74.3051 145.61 73.9437 145.249 73.5002 145.249C73.0567 145.249 72.6953 145.61 72.6953 146.054C72.6953 146.497 73.0567 146.858 73.5002 146.858Z" fill="#040404"/>
<path d="M109.804 147.967C110.864 147.967 111.718 147.113 111.718 146.054C111.718 144.995 110.864 144.141 109.804 144.141C108.745 144.141 107.891 144.995 107.891 146.054C107.891 147.113 108.745 147.967 109.804 147.967Z" fill="#040404"/>
<path d="M146.097 148.968C147.707 148.968 149.013 147.662 149.013 146.053C149.013 144.444 147.707 143.138 146.097 143.138C144.488 143.138 143.182 144.444 143.182 146.053C143.182 147.662 144.488 148.968 146.097 148.968Z" fill="#040404"/>
<path d="M182.392 149.88C184.503 149.88 186.219 148.172 186.219 146.053C186.219 143.935 184.503 142.227 182.392 142.227C180.281 142.227 178.564 143.935 178.564 146.053C178.564 148.172 180.281 149.88 182.392 149.88Z" fill="#040404"/>
<path d="M218.689 150.685C221.243 150.685 223.321 148.616 223.321 146.054C223.321 143.492 221.251 141.423 218.689 141.423C216.126 141.423 214.057 143.492 214.057 146.054C214.057 148.616 216.126 150.685 218.689 150.685Z" fill="#040404"/>
<path d="M254.985 151.382C257.934 151.382 260.324 148.993 260.324 146.045C260.324 143.097 257.934 140.716 254.985 140.716C252.037 140.716 249.646 143.105 249.646 146.045C249.646 148.985 252.037 151.382 254.985 151.382Z" fill="#040404"/>
<path d="M291.284 151.991C294.561 151.991 297.222 149.33 297.222 146.054C297.222 142.778 294.561 140.117 291.284 140.117C288.007 140.117 285.346 142.778 285.346 146.054C285.346 149.33 288.007 151.991 291.284 151.991Z" fill="#040404"/>
<path d="M327.578 152.295C331.027 152.295 333.82 149.503 333.82 146.054C333.82 142.605 331.027 139.813 327.578 139.813C324.128 139.813 321.336 142.605 321.336 146.054C321.336 149.503 324.128 152.295 327.578 152.295Z" fill="#040404"/>
<path d="M363.883 152.393C367.382 152.393 370.224 149.551 370.224 146.053C370.224 142.555 367.382 139.714 363.883 139.714C360.385 139.714 357.543 142.555 357.543 146.053C357.543 149.551 360.385 152.393 363.883 152.393Z" fill="#040404"/>
<path d="M400.178 152.295C403.627 152.295 406.419 149.503 406.419 146.054C406.419 142.605 403.627 139.813 400.178 139.813C396.728 139.813 393.936 142.605 393.936 146.054C393.936 149.503 396.728 152.295 400.178 152.295Z" fill="#040404"/>
<path d="M436.467 151.991C439.744 151.991 442.405 149.33 442.405 146.054C442.405 142.778 439.744 140.117 436.467 140.117C433.19 140.117 430.529 142.778 430.529 146.054C430.529 149.33 433.19 151.991 436.467 151.991Z" fill="#040404"/>
<path d="M472.773 151.49C475.771 151.49 478.21 149.059 478.21 146.054C478.21 143.049 475.779 140.618 472.773 140.618C469.767 140.618 467.336 143.049 467.336 146.054C467.336 149.059 469.767 151.49 472.773 151.49Z" fill="#040404"/>
<path d="M509.069 150.783C511.68 150.783 513.799 148.665 513.799 146.054C513.799 143.442 511.68 141.324 509.069 141.324C506.457 141.324 504.338 143.442 504.338 146.054C504.338 148.665 506.457 150.783 509.069 150.783Z" fill="#040404"/>
<path d="M545.367 149.978C547.536 149.978 549.293 148.221 549.293 146.053C549.293 143.885 547.536 142.128 545.367 142.128C543.199 142.128 541.441 143.885 541.441 146.053C541.441 148.221 543.199 149.978 545.367 149.978Z" fill="#040404"/>
<path d="M581.661 149.075C583.328 149.075 584.684 147.72 584.684 146.053C584.684 144.387 583.328 143.032 581.661 143.032C579.994 143.032 578.639 144.387 578.639 146.053C578.639 147.72 579.994 149.075 581.661 149.075Z" fill="#040404"/>
<path d="M617.96 148.065C619.068 148.065 619.972 147.162 619.972 146.054C619.972 144.945 619.068 144.042 617.96 144.042C616.851 144.042 615.947 144.945 615.947 146.054C615.947 147.162 616.851 148.065 617.96 148.065Z" fill="#040404"/>
<path d="M654.263 146.956C654.764 146.956 655.166 146.554 655.166 146.053C655.166 145.552 654.764 145.149 654.263 145.149C653.762 145.149 653.359 145.552 653.359 146.053C653.359 146.554 653.762 146.956 654.263 146.956Z" fill="#040404"/>
<path d="M690.557 146.151C690.615 146.151 690.656 146.11 690.656 146.053C690.656 145.996 690.606 145.955 690.557 145.955C690.508 145.955 690.459 145.996 690.459 146.053C690.459 146.11 690.508 146.151 690.557 146.151Z" fill="#040404"/>
<path d="M37.2061 182.848C37.4853 182.848 37.7071 182.626 37.7071 182.347C37.7071 182.068 37.4853 181.846 37.2061 181.846C36.9268 181.846 36.7051 182.068 36.7051 182.347C36.7051 182.626 36.9268 182.848 37.2061 182.848Z" fill="#040404"/>
<path d="M73.5024 183.95C74.3894 183.95 75.1122 183.227 75.1122 182.341C75.1122 181.454 74.3894 180.731 73.5024 180.731C72.6154 180.731 71.8926 181.454 71.8926 182.341C71.8926 183.227 72.6154 183.95 73.5024 183.95Z" fill="#040404"/>
<path d="M109.803 185.163C111.356 185.163 112.621 183.899 112.621 182.347C112.621 180.795 111.356 179.53 109.803 179.53C108.251 179.53 106.986 180.795 106.986 182.347C106.986 183.899 108.251 185.163 109.803 185.163Z" fill="#040404"/>
<path d="M146.097 186.166C148.208 186.166 149.924 184.458 149.924 182.339C149.924 180.221 148.208 178.513 146.097 178.513C143.986 178.513 142.27 180.221 142.27 182.339C142.27 184.458 143.986 186.166 146.097 186.166Z" fill="#040404"/>
<path d="M182.39 187.176C185.059 187.176 187.219 185.017 187.219 182.348C187.219 179.679 185.059 177.52 182.39 177.52C179.721 177.52 177.561 179.679 177.561 182.348C177.561 185.017 179.721 187.176 182.39 187.176Z" fill="#040404"/>
<path d="M218.691 188.176C221.919 188.176 224.531 185.565 224.531 182.338C224.531 179.111 221.919 176.5 218.691 176.5C215.463 176.5 212.852 179.111 212.852 182.338C212.852 185.565 215.463 188.176 218.691 188.176Z" fill="#040404"/>
<path d="M254.985 188.882C258.599 188.882 261.531 185.951 261.531 182.338C261.531 178.725 258.599 175.794 254.985 175.794C251.372 175.794 248.439 178.725 248.439 182.338C248.439 185.951 251.372 188.882 254.985 188.882Z" fill="#040404"/>
<path d="M291.286 189.483C295.237 189.483 298.431 186.281 298.431 182.34C298.431 178.398 295.237 175.196 291.286 175.196C287.335 175.196 284.141 178.398 284.141 182.34C284.141 186.281 287.335 189.483 291.286 189.483Z" fill="#040404"/>
<path d="M327.579 189.885C331.751 189.885 335.127 186.51 335.127 182.339C335.127 178.167 331.743 174.792 327.579 174.792C323.415 174.792 320.031 178.167 320.031 182.339C320.031 186.51 323.415 189.885 327.579 189.885Z" fill="#040404"/>
<path d="M363.882 190.09C368.161 190.09 371.635 186.625 371.635 182.339C371.635 178.052 368.169 174.587 363.882 174.587C359.595 174.587 356.129 178.052 356.129 182.339C356.129 186.625 359.595 190.09 363.882 190.09Z" fill="#040404"/>
<path d="M400.176 189.994C404.397 189.994 407.822 186.57 407.822 182.349C407.822 178.129 404.397 174.705 400.176 174.705C395.954 174.705 392.529 178.129 392.529 182.349C392.529 186.57 395.954 189.994 400.176 189.994Z" fill="#040404"/>
<path d="M436.471 189.588C440.47 189.588 443.715 186.345 443.715 182.346C443.715 178.347 440.47 175.104 436.471 175.104C432.471 175.104 429.227 178.347 429.227 182.346C429.227 186.345 432.471 189.588 436.471 189.588Z" fill="#040404"/>
<path d="M478.865 184.842C480.262 181.449 478.644 177.567 475.251 176.17C471.857 174.773 467.974 176.391 466.577 179.783C465.18 183.176 466.798 187.058 470.191 188.455C473.584 189.852 477.467 188.234 478.865 184.842Z" fill="#040404"/>
<path d="M509.064 188.176C512.292 188.176 514.904 185.565 514.904 182.338C514.904 179.111 512.292 176.5 509.064 176.5C505.836 176.5 503.225 179.111 503.225 182.338C503.225 185.565 505.836 188.176 509.064 188.176Z" fill="#040404"/>
<path d="M545.37 187.272C548.096 187.272 550.298 185.063 550.298 182.337C550.298 179.611 548.088 177.402 545.37 177.402C542.651 177.402 540.434 179.611 540.434 182.337C540.434 185.063 542.643 187.272 545.37 187.272Z" fill="#040404"/>
<path d="M581.664 186.266C583.832 186.266 585.59 184.508 585.59 182.341C585.59 180.173 583.832 178.416 581.664 178.416C579.496 178.416 577.738 180.173 577.738 182.341C577.738 184.508 579.496 186.266 581.664 186.266Z" fill="#040404"/>
<path d="M617.956 185.163C619.508 185.163 620.773 183.899 620.773 182.347C620.773 180.795 619.508 179.53 617.956 179.53C616.404 179.53 615.139 180.795 615.139 182.347C615.139 183.899 616.404 185.163 617.956 185.163Z" fill="#040404"/>
<path d="M654.259 184.055C655.204 184.055 655.967 183.292 655.967 182.347C655.967 181.403 655.204 180.639 654.259 180.639C653.315 180.639 652.551 181.403 652.551 182.347C652.551 183.292 653.315 184.055 654.259 184.055Z" fill="#040404"/>
<path d="M690.546 182.848C690.825 182.848 691.047 182.626 691.047 182.347C691.047 182.068 690.825 181.846 690.546 181.846C690.267 181.846 690.045 182.068 690.045 182.347C690.045 182.626 690.267 182.848 690.546 182.848Z" fill="#040404"/>
<path d="M0.906907 218.731C0.964245 218.731 1.0052 218.69 1.0052 218.632C1.0052 218.575 0.956054 218.534 0.906907 218.534C0.857761 218.534 0.808594 218.575 0.808594 218.632C0.808594 218.69 0.857761 218.731 0.906907 218.731Z" fill="#040404"/>
<path d="M37.2055 219.633C37.764 219.633 38.2075 219.182 38.2075 218.624C38.2075 218.065 37.7558 217.614 37.2055 217.614C36.6552 217.614 36.1953 218.065 36.1953 218.624C36.1953 219.182 36.647 219.633 37.2055 219.633Z" fill="#040404"/>
<path d="M73.5017 220.949C74.7829 220.949 75.8178 219.914 75.8178 218.633C75.8178 217.352 74.7829 216.317 73.5017 216.317C72.2204 216.317 71.1855 217.352 71.1855 218.633C71.1855 219.914 72.2204 220.949 73.5017 220.949Z" fill="#040404"/>
<path d="M109.799 222.156C111.745 222.156 113.322 220.58 113.322 218.633C113.322 216.687 111.745 215.111 109.799 215.111C107.852 215.111 106.275 216.687 106.275 218.633C106.275 220.58 107.852 222.156 109.799 222.156Z" fill="#040404"/>
<path d="M146.093 223.257C148.647 223.257 150.725 221.187 150.725 218.626C150.725 216.064 148.656 213.994 146.093 213.994C143.531 213.994 141.461 216.064 141.461 218.626C141.461 221.187 143.531 223.257 146.093 223.257Z" fill="#040404"/>
<path d="M182.39 224.472C185.618 224.472 188.23 221.861 188.23 218.634C188.23 215.407 185.618 212.796 182.39 212.796C179.163 212.796 176.551 215.407 176.551 218.634C176.551 221.861 179.163 224.472 182.39 224.472Z" fill="#040404"/>
<path d="M218.695 225.474C222.473 225.474 225.537 222.412 225.537 218.634C225.537 214.857 222.473 211.794 218.695 211.794C214.917 211.794 211.854 214.857 211.854 218.634C211.854 222.412 214.917 225.474 218.695 225.474Z" fill="#040404"/>
<path d="M254.984 226.377C259.263 226.377 262.737 222.911 262.737 218.625C262.737 214.339 259.271 210.874 254.984 210.874C250.696 210.874 247.23 214.339 247.23 218.625C247.23 222.911 250.696 226.377 254.984 226.377Z" fill="#040404"/>
<path d="M291.285 227.082C295.95 227.082 299.737 223.296 299.737 218.632C299.737 213.968 295.95 210.183 291.285 210.183C286.62 210.183 282.834 213.968 282.834 218.632C282.834 223.296 286.62 227.082 291.285 227.082Z" fill="#040404"/>
<path d="M327.582 227.584C332.526 227.584 336.542 223.577 336.542 218.625C336.542 213.674 332.534 209.667 327.582 209.667C322.629 209.667 318.621 213.674 318.621 218.625C318.621 223.577 322.629 227.584 327.582 227.584Z" fill="#040404"/>
<path d="M367.265 227.052C371.907 225.186 374.157 219.911 372.291 215.27C370.425 210.629 365.149 208.379 360.507 210.245C355.865 212.111 353.614 217.386 355.48 222.027C357.347 226.668 362.623 228.918 367.265 227.052Z" fill="#040404"/>
<path d="M400.179 227.584C405.124 227.584 409.14 223.577 409.14 218.625C409.14 213.674 405.132 209.667 400.179 209.667C395.227 209.667 391.219 213.674 391.219 218.625C391.219 223.577 395.227 227.584 400.179 227.584Z" fill="#040404"/>
<path d="M436.469 227.082C441.134 227.082 444.92 223.296 444.92 218.632C444.92 213.968 441.134 210.183 436.469 210.183C431.804 210.183 428.018 213.968 428.018 218.632C428.018 223.296 431.804 227.082 436.469 227.082Z" fill="#040404"/>
<path d="M472.775 226.377C477.054 226.377 480.528 222.911 480.528 218.625C480.528 214.339 477.062 210.874 472.775 210.874C468.487 210.874 465.021 214.339 465.021 218.625C465.021 222.911 468.487 226.377 472.775 226.377Z" fill="#040404"/>
<path d="M509.066 225.474C512.844 225.474 515.908 222.411 515.908 218.634C515.908 214.857 512.844 211.794 509.066 211.794C505.288 211.794 502.225 214.857 502.225 218.634C502.225 222.411 505.288 225.474 509.066 225.474Z" fill="#040404"/>
<path d="M545.369 224.472C548.597 224.472 551.208 221.861 551.208 218.634C551.208 215.407 548.597 212.796 545.369 212.796C542.141 212.796 539.529 215.407 539.529 218.634C539.529 221.861 542.141 224.472 545.369 224.472Z" fill="#040404"/>
<path d="M581.664 223.362C584.276 223.362 586.395 221.243 586.395 218.632C586.395 216.021 584.276 213.903 581.664 213.903C579.053 213.903 576.934 216.021 576.934 218.632C576.934 221.243 579.053 223.362 581.664 223.362Z" fill="#040404"/>
<path d="M617.958 222.254C619.962 222.254 621.58 220.628 621.58 218.633C621.58 216.638 619.962 215.012 617.958 215.012C615.954 215.012 614.336 216.638 614.336 218.633C614.336 220.628 615.962 222.254 617.958 222.254Z" fill="#040404"/>
<path d="M654.254 221.045C655.585 221.045 656.669 219.961 656.669 218.631C656.669 217.301 655.585 216.217 654.254 216.217C652.924 216.217 651.84 217.301 651.84 218.631C651.84 219.961 652.924 221.045 654.254 221.045Z" fill="#040404"/>
<path d="M690.552 219.741C691.16 219.741 691.661 219.249 691.661 218.633C691.661 218.017 691.168 217.524 690.552 217.524C689.936 217.524 689.443 218.017 689.443 218.633C689.443 219.249 689.936 219.741 690.552 219.741Z" fill="#040404"/>
<path d="M726.852 218.731C726.91 218.731 726.95 218.69 726.95 218.632C726.95 218.575 726.901 218.534 726.852 218.534C726.803 218.534 726.754 218.575 726.754 218.632C726.754 218.69 726.803 218.731 726.852 218.731Z" fill="#040404"/>
<path d="M0.907423 255.222C1.07169 255.222 1.21131 255.09 1.21131 254.918C1.21131 254.745 1.07169 254.614 0.907423 254.614C0.74316 254.614 0.603516 254.745 0.603516 254.918C0.603516 255.09 0.734947 255.222 0.907423 255.222Z" fill="#040404"/>
<path d="M37.2085 256.429C38.038 256.429 38.7197 255.756 38.7197 254.918C38.7197 254.081 38.0462 253.407 37.2085 253.407C36.3707 253.407 35.6973 254.081 35.6973 254.918C35.6973 255.756 36.3707 256.429 37.2085 256.429Z" fill="#040404"/>
<path d="M73.4987 257.734C75.051 257.734 76.3158 256.47 76.3158 254.918C76.3158 253.366 75.051 252.102 73.4987 252.102C71.9465 252.102 70.6816 253.366 70.6816 254.918C70.6816 256.47 71.9465 257.734 73.4987 257.734Z" fill="#040404"/>
<path d="M109.803 259.05C112.078 259.05 113.926 257.202 113.926 254.928C113.926 252.653 112.078 250.806 109.803 250.806C107.528 250.806 105.68 252.653 105.68 254.928C105.68 257.202 107.528 259.05 109.803 259.05Z" fill="#040404"/>
<path d="M146.092 260.254C149.041 260.254 151.431 257.865 151.431 254.925C151.431 251.986 149.041 249.588 146.092 249.588C143.144 249.588 140.754 251.977 140.754 254.925C140.754 257.873 143.144 260.254 146.092 260.254Z" fill="#040404"/>
<path d="M182.39 261.464C186.003 261.464 188.936 258.533 188.936 254.92C188.936 251.307 186.003 248.375 182.39 248.375C178.776 248.375 175.844 251.307 175.844 254.92C175.844 258.533 178.776 261.464 182.39 261.464Z" fill="#040404"/>
<path d="M218.691 262.669C222.97 262.669 226.444 259.203 226.444 254.917C226.444 250.631 222.978 247.166 218.691 247.166C214.403 247.166 210.938 250.631 210.938 254.917C210.938 259.203 214.403 262.669 218.691 262.669Z" fill="#040404"/>
<path d="M254.988 263.67C259.825 263.67 263.743 259.753 263.743 254.917C263.743 250.081 259.825 246.164 254.988 246.164C250.15 246.164 246.232 250.081 246.232 254.917C246.232 259.753 250.15 263.67 254.988 263.67Z" fill="#040404"/>
<path d="M291.288 264.582C296.626 264.582 300.947 260.255 300.947 254.926C300.947 249.597 296.618 245.27 291.288 245.27C285.958 245.27 281.621 249.597 281.621 254.926C281.621 260.255 285.949 264.582 291.288 264.582Z" fill="#040404"/>
<path d="M327.585 265.184C333.252 265.184 337.851 260.586 337.851 254.92C337.851 249.254 333.252 244.656 327.585 244.656C321.918 244.656 317.318 249.254 317.318 254.92C317.318 260.586 321.918 265.184 327.585 265.184Z" fill="#040404"/>
<path d="M363.884 265.387C369.666 265.387 374.347 260.698 374.347 254.925C374.347 249.153 369.658 244.464 363.884 244.464C358.11 244.464 353.412 249.153 353.412 254.925C353.412 260.698 358.102 265.387 363.884 265.387Z" fill="#040404"/>
<path d="M400.177 265.184C405.844 265.184 410.443 260.586 410.443 254.92C410.443 249.254 405.844 244.656 400.177 244.656C394.51 244.656 389.91 249.254 389.91 254.92C389.91 260.586 394.51 265.184 400.177 265.184Z" fill="#040404"/>
<path d="M436.472 264.582C441.81 264.582 446.13 260.255 446.13 254.926C446.13 249.597 441.802 245.27 436.472 245.27C431.141 245.27 426.805 249.597 426.805 254.926C426.805 260.255 431.133 264.582 436.472 264.582Z" fill="#040404"/>
<path d="M472.77 263.779C477.665 263.779 481.624 259.813 481.624 254.928C481.624 250.042 477.657 246.076 472.77 246.076C467.883 246.076 463.916 250.042 463.916 254.928C463.916 259.813 467.883 263.779 472.77 263.779Z" fill="#040404"/>
<path d="M509.066 262.669C513.345 262.669 516.819 259.203 516.819 254.917C516.819 250.631 513.353 247.166 509.066 247.166C504.778 247.166 501.312 250.631 501.312 254.917C501.312 259.203 504.778 262.669 509.066 262.669Z" fill="#040404"/>
<path d="M545.365 261.562C549.035 261.562 552.01 258.588 552.01 254.919C552.01 251.25 549.035 248.276 545.365 248.276C541.695 248.276 538.721 251.25 538.721 254.919C538.721 258.588 541.695 261.562 545.365 261.562Z" fill="#040404"/>
<path d="M581.664 260.355C584.661 260.355 587.101 257.924 587.101 254.919C587.101 251.913 584.67 249.483 581.664 249.483C578.658 249.483 576.227 251.913 576.227 254.919C576.227 257.924 578.658 260.355 581.664 260.355Z" fill="#040404"/>
<path d="M617.958 259.147C620.291 259.147 622.188 257.259 622.188 254.918C622.188 252.578 620.299 250.69 617.958 250.69C615.618 250.69 613.729 252.578 613.729 254.918C613.729 257.259 615.618 259.147 617.958 259.147Z" fill="#040404"/>
<path d="M654.257 257.842C655.867 257.842 657.173 256.537 657.173 254.927C657.173 253.318 655.867 252.012 654.257 252.012C652.648 252.012 651.342 253.318 651.342 254.927C651.342 256.537 652.648 257.842 654.257 257.842Z" fill="#040404"/>
<path d="M690.549 256.526C691.436 256.526 692.159 255.803 692.159 254.916C692.159 254.029 691.436 253.307 690.549 253.307C689.662 253.307 688.939 254.029 688.939 254.916C688.939 255.803 689.662 256.526 690.549 256.526Z" fill="#040404"/>
<path d="M726.856 255.321C727.077 255.321 727.258 255.141 727.258 254.919C727.258 254.697 727.077 254.517 726.856 254.517C726.634 254.517 726.453 254.697 726.453 254.919C726.453 255.141 726.634 255.321 726.856 255.321Z" fill="#040404"/>
<path d="M0.900759 291.812C1.2375 291.812 1.50852 291.541 1.50852 291.204C1.50852 290.867 1.2375 290.596 0.900759 290.596C0.56402 290.596 0.292969 290.867 0.292969 291.204C0.292969 291.541 0.56402 291.812 0.900759 291.812Z" fill="#040404"/>
<path d="M37.2047 293.117C38.2642 293.117 39.1183 292.263 39.1183 291.204C39.1183 290.144 38.2642 289.291 37.2047 289.291C36.1452 289.291 35.291 290.144 35.291 291.204C35.291 292.263 36.1452 293.117 37.2047 293.117Z" fill="#040404"/>
<path d="M73.5008 294.429C75.283 294.429 76.7203 292.984 76.7203 291.211C76.7203 289.437 75.2748 287.992 73.5008 287.992C71.7267 287.992 70.2812 289.437 70.2812 291.211C70.2812 292.984 71.7267 294.429 73.5008 294.429Z" fill="#040404"/>
<path d="M109.802 295.835C112.356 295.835 114.434 293.766 114.434 291.204C114.434 288.642 112.365 286.573 109.802 286.573C107.24 286.573 105.17 288.642 105.17 291.204C105.17 293.766 107.24 295.835 109.802 295.835Z" fill="#040404"/>
<path d="M146.09 297.15C149.367 297.15 152.029 294.49 152.029 291.214C152.029 287.937 149.367 285.277 146.09 285.277C142.813 285.277 140.152 287.937 140.152 291.214C140.152 294.49 142.813 297.15 146.09 297.15Z" fill="#040404"/>
<path d="M182.388 298.356C186.338 298.356 189.533 295.154 189.533 291.212C189.533 287.271 186.338 284.069 182.388 284.069C178.437 284.069 175.242 287.271 175.242 291.212C175.242 295.154 178.437 298.356 182.388 298.356Z" fill="#040404"/>
<path d="M218.69 299.662C223.355 299.662 227.141 295.876 227.141 291.212C227.141 286.548 223.355 282.763 218.69 282.763C214.025 282.763 210.238 286.548 210.238 291.212C210.238 295.876 214.025 299.662 218.69 299.662Z" fill="#040404"/>
<path d="M254.985 300.87C260.324 300.87 264.644 296.543 264.644 291.214C264.644 285.884 260.316 281.557 254.985 281.557C249.655 281.557 245.318 285.884 245.318 291.214C245.318 296.543 249.647 300.87 254.985 300.87Z" fill="#040404"/>
<path d="M291.288 301.878C297.177 301.878 301.957 297.099 301.957 291.211C301.957 285.324 297.177 280.545 291.288 280.545C285.399 280.545 280.619 285.324 280.619 291.211C280.619 297.099 285.399 301.878 291.288 301.878Z" fill="#040404"/>
<path d="M327.577 302.685C333.918 302.685 339.051 297.553 339.051 291.214C339.051 284.874 333.918 279.742 327.577 279.742C321.237 279.742 316.104 284.874 316.104 291.214C316.104 297.553 321.237 302.685 327.577 302.685Z" fill="#040404"/>
<path d="M363.882 303.086C370.444 303.086 375.758 297.773 375.758 291.212C375.758 284.652 370.444 279.339 363.882 279.339C357.32 279.339 352.006 284.652 352.006 291.212C352.006 297.773 357.32 303.086 363.882 303.086Z" fill="#040404"/>
<path d="M400.18 302.781C406.57 302.781 411.752 297.6 411.752 291.212C411.752 284.823 406.57 279.642 400.18 279.642C393.79 279.642 388.607 284.823 388.607 291.212C388.607 297.6 393.79 302.781 400.18 302.781Z" fill="#040404"/>
<path d="M436.471 301.978C442.417 301.978 447.238 297.158 447.238 291.213C447.238 285.268 442.417 280.448 436.471 280.448C430.524 280.448 425.703 285.268 425.703 291.213C425.703 297.158 430.524 301.978 436.471 301.978Z" fill="#040404"/>
<path d="M472.77 300.87C478.109 300.87 482.429 296.543 482.429 291.214C482.429 285.884 478.101 281.557 472.77 281.557C467.44 281.557 463.104 285.884 463.104 291.214C463.104 296.543 467.432 300.87 472.77 300.87Z" fill="#040404"/>
<path d="M509.066 299.761C513.788 299.761 517.624 295.934 517.624 291.205C517.624 286.475 513.797 282.648 509.066 282.648C504.335 282.648 500.508 286.475 500.508 291.205C500.508 295.934 504.335 299.761 509.066 299.761Z" fill="#040404"/>
<path d="M545.371 298.454C549.371 298.454 552.615 295.211 552.615 291.212C552.615 287.213 549.371 283.97 545.371 283.97C541.371 283.97 538.127 287.213 538.127 291.212C538.127 295.211 541.371 298.454 545.371 298.454Z" fill="#040404"/>
<path d="M581.664 297.247C584.998 297.247 587.7 294.545 587.7 291.212C587.7 287.878 584.998 285.176 581.664 285.176C578.329 285.176 575.627 287.878 575.627 291.212C575.627 294.545 578.329 297.247 581.664 297.247Z" fill="#040404"/>
<path d="M617.954 295.835C620.509 295.835 622.587 293.766 622.587 291.204C622.587 288.642 620.517 286.573 617.954 286.573C615.392 286.573 613.322 288.642 613.322 291.204C613.322 293.766 615.392 295.835 617.954 295.835Z" fill="#040404"/>
<path d="M654.254 294.53C656.085 294.53 657.572 293.044 657.572 291.213C657.572 289.382 656.085 287.896 654.254 287.896C652.422 287.896 650.936 289.382 650.936 291.213C650.936 293.044 652.422 294.53 654.254 294.53Z" fill="#040404"/>
<path d="M690.555 293.223C691.664 293.223 692.567 292.32 692.567 291.211C692.567 290.103 691.664 289.2 690.555 289.2C689.446 289.2 688.543 290.103 688.543 291.211C688.543 292.32 689.446 293.223 690.555 293.223Z" fill="#040404"/>
<path d="M726.851 291.91C727.237 291.91 727.557 291.598 727.557 291.203C727.557 290.809 727.245 290.497 726.851 290.497C726.457 290.497 726.145 290.809 726.145 291.203C726.145 291.598 726.457 291.91 726.851 291.91Z" fill="#040404"/>
<path d="M0.9006 328.303C1.34513 328.303 1.70547 327.942 1.70547 327.498C1.70547 327.053 1.34513 326.693 0.9006 326.693C0.456073 326.693 0.0957031 327.053 0.0957031 327.498C0.0957031 327.942 0.456073 328.303 0.9006 328.303Z" fill="#040404"/>
<path d="M37.2045 329.608C38.3708 329.608 39.3153 328.664 39.3153 327.498C39.3153 326.332 38.3708 325.387 37.2045 325.387C36.0383 325.387 35.0938 326.332 35.0938 327.498C35.0938 328.664 36.0383 329.608 37.2045 329.608Z" fill="#040404"/>
<path d="M73.5019 331.021C75.4485 331.021 77.0254 329.444 77.0254 327.498C77.0254 325.552 75.4485 323.975 73.5019 323.975C71.5554 323.975 69.9785 325.552 69.9785 327.498C69.9785 329.444 71.5554 331.021 73.5019 331.021Z" fill="#040404"/>
<path d="M109.801 332.433C112.528 332.433 114.729 330.225 114.729 327.498C114.729 324.772 112.52 322.563 109.801 322.563C107.083 322.563 104.865 324.772 104.865 327.498C104.865 330.225 107.075 332.433 109.801 332.433Z" fill="#040404"/>
<path d="M146.092 333.739C149.541 333.739 152.334 330.947 152.334 327.498C152.334 324.05 149.541 321.258 146.092 321.258C142.642 321.258 139.85 324.05 139.85 327.498C139.85 330.947 142.642 333.739 146.092 333.739Z" fill="#040404"/>
<path d="M182.392 335.046C186.564 335.046 189.94 331.671 189.94 327.5C189.94 323.328 186.556 319.953 182.392 319.953C178.228 319.953 174.844 323.328 174.844 327.5C174.844 331.671 178.228 335.046 182.392 335.046Z" fill="#040404"/>
<path d="M218.689 336.456C223.633 336.456 227.65 332.448 227.65 327.497C227.65 322.546 223.642 318.539 218.689 318.539C213.737 318.539 209.729 322.546 209.729 327.497C209.729 332.448 213.737 336.456 218.689 336.456Z" fill="#040404"/>
<path d="M254.985 337.763C260.652 337.763 265.252 333.165 265.252 327.499C265.252 321.833 260.652 317.235 254.985 317.235C249.318 317.235 244.719 321.833 244.719 327.499C244.719 333.165 249.318 337.763 254.985 337.763Z" fill="#040404"/>
<path d="M291.286 338.968C297.627 338.968 302.76 333.836 302.76 327.497C302.76 321.158 297.627 316.026 291.286 316.026C284.946 316.026 279.812 321.158 279.812 327.497C279.812 333.836 284.946 338.968 291.286 338.968Z" fill="#040404"/>
<path d="M327.583 340.077C334.531 340.077 340.165 334.444 340.165 327.498C340.165 320.551 334.531 314.918 327.583 314.918C320.634 314.918 315 320.551 315 327.498C315 334.444 320.634 340.077 327.583 340.077Z" fill="#040404"/>
<path d="M363.885 340.676C371.17 340.676 377.067 334.772 377.067 327.497C377.067 320.222 371.162 314.318 363.885 314.318C356.608 314.318 350.703 320.222 350.703 327.497C350.703 334.772 356.608 340.676 363.885 340.676Z" fill="#040404"/>
<path d="M400.175 340.175C407.181 340.175 412.856 334.501 412.856 327.497C412.856 320.493 407.181 314.819 400.175 314.819C393.169 314.819 387.494 320.493 387.494 327.497C387.494 334.501 393.169 340.175 400.175 340.175Z" fill="#040404"/>
<path d="M436.471 339.067C442.861 339.067 448.043 333.886 448.043 327.498C448.043 321.109 442.861 315.928 436.471 315.928C430.081 315.928 424.898 321.109 424.898 327.498C424.898 333.886 430.081 339.067 436.471 339.067Z" fill="#040404"/>
<path d="M472.777 337.86C478.502 337.86 483.142 333.221 483.142 327.497C483.142 321.774 478.502 317.135 472.777 317.135C467.053 317.135 462.412 321.774 462.412 327.497C462.412 333.221 467.053 337.86 472.777 337.86Z" fill="#040404"/>
<path d="M509.069 336.555C514.072 336.555 518.128 332.5 518.128 327.498C518.128 322.496 514.072 318.441 509.069 318.441C504.066 318.441 500.01 322.496 500.01 327.498C500.01 332.5 504.066 336.555 509.069 336.555Z" fill="#040404"/>
<path d="M545.371 335.142C549.593 335.142 553.017 331.718 553.017 327.498C553.017 323.277 549.593 319.853 545.371 319.853C541.15 319.853 537.725 323.277 537.725 327.498C537.725 331.718 541.15 335.142 545.371 335.142Z" fill="#040404"/>
<path d="M581.663 333.837C585.162 333.837 588.003 330.996 588.003 327.498C588.003 324 585.162 321.159 581.663 321.159C578.164 321.159 575.322 324 575.322 327.498C575.322 330.996 578.164 333.837 581.663 333.837Z" fill="#040404"/>
<path d="M617.958 332.433C620.684 332.433 622.885 330.225 622.885 327.498C622.885 324.772 620.676 322.563 617.958 322.563C615.239 322.563 613.021 324.772 613.021 327.498C613.021 330.225 615.231 332.433 617.958 332.433Z" fill="#040404"/>
<path d="M654.261 331.119C656.265 331.119 657.883 329.493 657.883 327.498C657.883 325.502 656.265 323.876 654.261 323.876C652.257 323.876 650.639 325.502 650.639 327.498C650.639 329.493 652.265 331.119 654.261 331.119Z" fill="#040404"/>
<path d="M690.548 329.715C691.771 329.715 692.765 328.722 692.765 327.498C692.765 326.275 691.771 325.281 690.548 325.281C689.324 325.281 688.33 326.275 688.33 327.498C688.33 328.722 689.324 329.715 690.548 329.715Z" fill="#040404"/>
<path d="M726.855 328.401C727.356 328.401 727.758 327.998 727.758 327.497C727.758 326.997 727.356 326.594 726.855 326.594C726.354 326.594 725.951 326.997 725.951 327.497C725.951 327.998 726.354 328.401 726.855 328.401Z" fill="#040404"/>
<path d="M0.903451 364.694C1.40445 364.694 1.80688 364.292 1.80688 363.791C1.80688 363.29 1.40445 362.887 0.903451 362.887C0.402449 362.887 0 363.29 0 363.791C0 364.292 0.402449 364.694 0.903451 364.694Z" fill="#040404"/>
<path d="M37.2039 365.999C38.4276 365.999 39.4214 365.005 39.4214 363.782C39.4214 362.559 38.4276 361.565 37.2039 361.565C35.9801 361.565 34.9863 362.559 34.9863 363.782C34.9863 365.005 35.9801 365.999 37.2039 365.999Z" fill="#040404"/>
<path d="M73.497 367.412C75.501 367.412 77.119 365.786 77.119 363.791C77.119 361.796 75.501 360.17 73.497 360.17C71.493 360.17 69.875 361.796 69.875 363.791C69.875 365.786 71.5012 367.412 73.497 367.412Z" fill="#040404"/>
<path d="M109.798 368.815C112.574 368.815 114.833 366.565 114.833 363.782C114.833 360.998 112.583 358.748 109.798 358.748C107.014 358.748 104.764 360.998 104.764 363.782C104.764 366.565 107.014 368.815 109.798 368.815Z" fill="#040404"/>
<path d="M146.098 370.132C149.597 370.132 152.439 367.291 152.439 363.793C152.439 360.295 149.597 357.454 146.098 357.454C142.6 357.454 139.758 360.295 139.758 363.793C139.758 367.291 142.6 370.132 146.098 370.132Z" fill="#040404"/>
<path d="M182.388 371.536C186.667 371.536 190.141 368.062 190.141 363.784C190.141 359.506 186.675 356.033 182.388 356.033C178.101 356.033 174.635 359.498 174.635 363.784C174.635 368.07 178.101 371.536 182.388 371.536Z" fill="#040404"/>
<path d="M218.692 372.84C223.695 372.84 227.751 368.785 227.751 363.783C227.751 358.781 223.695 354.726 218.692 354.726C213.689 354.726 209.633 358.781 209.633 363.783C209.633 368.785 213.689 372.84 218.692 372.84Z" fill="#040404"/>
<path d="M254.989 374.254C260.771 374.254 265.453 369.566 265.453 363.793C265.453 358.021 260.763 353.332 254.989 353.332C249.215 353.332 244.518 358.021 244.518 363.793C244.518 369.566 249.207 374.254 254.989 374.254Z" fill="#040404"/>
<path d="M291.286 375.666C297.849 375.666 303.163 370.353 303.163 363.792C303.163 357.232 297.849 351.919 291.286 351.919C284.724 351.919 279.41 357.232 279.41 363.792C279.41 370.353 284.724 375.666 291.286 375.666Z" fill="#040404"/>
<path d="M327.579 376.972C334.864 376.972 340.761 371.068 340.761 363.793C340.761 356.518 334.855 350.614 327.579 350.614C320.302 350.614 314.396 356.518 314.396 363.793C314.396 371.068 320.302 376.972 327.579 376.972Z" fill="#040404"/>
<path d="M363.885 377.874C371.671 377.874 377.979 371.568 377.979 363.784C377.979 356 371.671 349.693 363.885 349.693C356.099 349.693 349.791 356 349.791 363.784C349.791 371.568 356.099 377.874 363.885 377.874Z" fill="#040404"/>
<path d="M400.179 377.07C407.514 377.07 413.468 371.125 413.468 363.784C413.468 356.443 407.522 350.498 400.179 350.498C392.837 350.498 386.891 356.443 386.891 363.784C386.891 371.125 392.837 377.07 400.179 377.07Z" fill="#040404"/>
<path d="M436.474 375.666C443.036 375.666 448.35 370.353 448.35 363.792C448.35 357.232 443.036 351.919 436.474 351.919C429.912 351.919 424.598 357.232 424.598 363.792C424.598 370.353 429.912 375.666 436.474 375.666Z" fill="#040404"/>
<path d="M472.77 374.351C478.609 374.351 483.34 369.621 483.34 363.783C483.34 357.945 478.609 353.215 472.77 353.215C466.93 353.215 462.199 357.945 462.199 363.783C462.199 369.621 466.93 374.351 472.77 374.351Z" fill="#040404"/>
<path d="M509.068 372.947C514.127 372.947 518.225 368.85 518.225 363.792C518.225 358.734 514.127 354.636 509.068 354.636C504.008 354.636 499.91 358.734 499.91 363.792C499.91 368.85 504.008 372.947 509.068 372.947Z" fill="#040404"/>
<path d="M545.371 371.632C549.708 371.632 553.223 368.118 553.223 363.782C553.223 359.447 549.708 355.932 545.371 355.932C541.035 355.932 537.52 359.447 537.52 363.782C537.52 368.118 541.035 371.632 545.371 371.632Z" fill="#040404"/>
<path d="M581.666 370.229C585.222 370.229 588.105 367.347 588.105 363.792C588.105 360.236 585.222 357.354 581.666 357.354C578.109 357.354 575.227 360.236 575.227 363.792C575.227 367.347 578.109 370.229 581.666 370.229Z" fill="#040404"/>
<path d="M617.955 368.815C620.731 368.815 622.989 366.565 622.989 363.782C622.989 360.998 620.739 358.748 617.955 358.748C615.17 358.748 612.92 360.998 612.92 363.782C612.92 366.565 615.17 368.815 617.955 368.815Z" fill="#040404"/>
<path d="M654.256 367.512C656.309 367.512 657.976 365.845 657.976 363.792C657.976 361.739 656.309 360.072 654.256 360.072C652.202 360.072 650.535 361.739 650.535 363.792C650.535 365.845 652.202 367.512 654.256 367.512Z" fill="#040404"/>
<path d="M690.552 366.1C691.834 366.1 692.869 365.065 692.869 363.784C692.869 362.503 691.834 361.469 690.552 361.469C689.271 361.469 688.236 362.503 688.236 363.784C688.236 365.065 689.271 366.1 690.552 366.1Z" fill="#040404"/>
<path d="M726.852 364.794C727.41 364.794 727.854 364.343 727.854 363.784C727.854 363.226 727.402 362.774 726.852 362.774C726.302 362.774 725.842 363.226 725.842 363.784C725.842 364.343 726.294 364.794 726.852 364.794Z" fill="#040404"/>
<path d="M0.9006 400.881C1.34411 400.881 1.70547 400.519 1.70547 400.076C1.70547 399.633 1.34411 399.271 0.9006 399.271C0.45709 399.271 0.0957031 399.633 0.0957031 400.076C0.0957031 400.519 0.45709 400.881 0.9006 400.881Z" fill="#040404"/>
<path d="M37.2039 402.287C38.4276 402.287 39.4214 401.293 39.4214 400.07C39.4214 398.846 38.4276 397.853 37.2039 397.853C35.9801 397.853 34.9863 398.846 34.9863 400.07C34.9863 401.293 35.9801 402.287 37.2039 402.287Z" fill="#040404"/>
<path d="M73.5019 403.599C75.4485 403.599 77.0254 402.022 77.0254 400.076C77.0254 398.13 75.4485 396.553 73.5019 396.553C71.5554 396.553 69.9785 398.13 69.9785 400.076C69.9785 402.022 71.5554 403.599 73.5019 403.599Z" fill="#040404"/>
<path d="M109.801 405.005C112.528 405.005 114.729 402.796 114.729 400.07C114.729 397.344 112.52 395.135 109.801 395.135C107.083 395.135 104.865 397.344 104.865 400.07C104.865 402.796 107.075 405.005 109.801 405.005Z" fill="#040404"/>
<path d="M146.092 406.317C149.541 406.317 152.334 403.525 152.334 400.076C152.334 396.628 149.541 393.836 146.092 393.836C142.642 393.836 139.85 396.628 139.85 400.076C139.85 403.525 142.642 406.317 146.092 406.317Z" fill="#040404"/>
<path d="M182.389 407.72C186.61 407.72 190.035 404.296 190.035 400.076C190.035 395.855 186.61 392.431 182.389 392.431C178.167 392.431 174.742 395.855 174.742 400.076C174.742 404.296 178.167 407.72 182.389 407.72Z" fill="#040404"/>
<path d="M218.689 409.035C223.633 409.035 227.65 405.028 227.65 400.077C227.65 395.125 223.642 391.118 218.689 391.118C213.737 391.118 209.729 395.125 209.729 400.077C209.729 405.028 213.737 409.035 218.689 409.035Z" fill="#040404"/>
<path d="M254.985 410.342C260.652 410.342 265.252 405.744 265.252 400.078C265.252 394.412 260.652 389.814 254.985 389.814C249.318 389.814 244.719 394.412 244.719 400.078C244.719 405.744 249.318 410.342 254.985 410.342Z" fill="#040404"/>
<path d="M291.283 411.647C297.673 411.647 302.856 406.466 302.856 400.078C302.856 393.689 297.673 388.508 291.283 388.508C284.893 388.508 279.711 393.689 279.711 400.078C279.711 406.466 284.893 411.647 291.283 411.647Z" fill="#040404"/>
<path d="M327.583 412.754C334.589 412.754 340.265 407.08 340.265 400.076C340.265 393.071 334.589 387.397 327.583 387.397C320.578 387.397 314.902 393.071 314.902 400.076C314.902 407.08 320.578 412.754 327.583 412.754Z" fill="#040404"/>
<path d="M363.881 413.363C371.215 413.363 377.17 407.418 377.17 400.078C377.17 392.737 371.223 386.792 363.881 386.792C356.538 386.792 350.592 392.737 350.592 400.078C350.592 407.418 356.538 413.363 363.881 413.363Z" fill="#040404"/>
<path d="M400.175 412.754C407.181 412.754 412.856 407.08 412.856 400.076C412.856 393.071 407.181 387.397 400.175 387.397C393.169 387.397 387.494 393.071 387.494 400.076C387.494 407.08 393.169 412.754 400.175 412.754Z" fill="#040404"/>
<path d="M436.471 411.647C442.861 411.647 448.043 406.466 448.043 400.078C448.043 393.689 442.861 388.508 436.471 388.508C430.081 388.508 424.898 393.689 424.898 400.078C424.898 406.466 430.081 411.647 436.471 411.647Z" fill="#040404"/>
<path d="M472.777 410.439C478.502 410.439 483.142 405.799 483.142 400.076C483.142 394.353 478.502 389.713 472.777 389.713C467.053 389.713 462.412 394.353 462.412 400.076C462.412 405.799 467.053 410.439 472.777 410.439Z" fill="#040404"/>
<path d="M509.069 409.135C514.072 409.135 518.128 405.08 518.128 400.078C518.128 395.075 514.072 391.021 509.069 391.021C504.066 391.021 500.01 395.075 500.01 400.078C500.01 405.08 504.066 409.135 509.069 409.135Z" fill="#040404"/>
<path d="M545.371 407.72C549.593 407.72 553.017 404.296 553.017 400.076C553.017 395.855 549.593 392.431 545.371 392.431C541.15 392.431 537.725 395.855 537.725 400.076C537.725 404.296 541.15 407.72 545.371 407.72Z" fill="#040404"/>
<path d="M581.663 406.416C585.162 406.416 588.003 403.575 588.003 400.077C588.003 396.579 585.162 393.738 581.663 393.738C578.164 393.738 575.322 396.579 575.322 400.077C575.322 403.575 578.164 406.416 581.663 406.416Z" fill="#040404"/>
<path d="M617.955 405.111C620.731 405.111 622.989 402.861 622.989 400.077C622.989 397.294 620.739 395.044 617.955 395.044C615.17 395.044 612.92 397.294 612.92 400.077C612.92 402.861 615.17 405.111 617.955 405.111Z" fill="#040404"/>
<path d="M654.261 403.698C656.265 403.698 657.883 402.073 657.883 400.077C657.883 398.082 656.265 396.456 654.261 396.456C652.257 396.456 650.639 398.082 650.639 400.077C650.639 402.073 652.265 403.698 654.261 403.698Z" fill="#040404"/>
<path d="M690.548 402.287C691.771 402.287 692.765 401.293 692.765 400.07C692.765 398.846 691.771 397.853 690.548 397.853C689.324 397.853 688.33 398.846 688.33 400.07C688.33 401.293 689.324 402.287 690.548 402.287Z" fill="#040404"/>
<path d="M726.855 400.982C727.356 400.982 727.758 400.579 727.758 400.078C727.758 399.577 727.356 399.175 726.855 399.175C726.354 399.175 725.951 399.577 725.951 400.078C725.951 400.579 726.354 400.982 726.855 400.982Z" fill="#040404"/>
<path d="M0.900759 436.97C1.2375 436.97 1.50852 436.699 1.50852 436.362C1.50852 436.025 1.2375 435.754 0.900759 435.754C0.56402 435.754 0.292969 436.025 0.292969 436.362C0.292969 436.699 0.56402 436.97 0.900759 436.97Z" fill="#040404"/>
<path d="M37.2047 438.277C38.2642 438.277 39.1183 437.423 39.1183 436.363C39.1183 435.304 38.2642 434.45 37.2047 434.45C36.1452 434.45 35.291 435.304 35.291 436.363C35.291 437.423 36.1452 438.277 37.2047 438.277Z" fill="#040404"/>
<path d="M73.4978 439.688C75.3293 439.688 76.8159 438.202 76.8159 436.371C76.8159 434.54 75.3293 433.054 73.4978 433.054C71.6662 433.054 70.1797 434.54 70.1797 436.371C70.1797 438.202 71.6662 439.688 73.4978 439.688Z" fill="#040404"/>
<path d="M109.802 440.993C112.356 440.993 114.434 438.924 114.434 436.362C114.434 433.8 112.365 431.731 109.802 431.731C107.24 431.731 105.17 433.8 105.17 436.362C105.17 438.924 107.24 440.993 109.802 440.993Z" fill="#040404"/>
<path d="M146.09 442.299C149.367 442.299 152.029 439.638 152.029 436.362C152.029 433.086 149.367 430.425 146.09 430.425C142.813 430.425 140.152 433.086 140.152 436.362C140.152 439.638 142.813 442.299 146.09 442.299Z" fill="#040404"/>
<path d="M182.389 443.613C186.388 443.613 189.633 440.37 189.633 436.371C189.633 432.372 186.388 429.129 182.389 429.129C178.389 429.129 175.145 432.372 175.145 436.371C175.145 440.37 178.389 443.613 182.389 443.613Z" fill="#040404"/>
<path d="M218.69 444.82C223.355 444.82 227.141 441.035 227.141 436.371C227.141 431.707 223.355 427.921 218.69 427.921C214.025 427.921 210.238 431.707 210.238 436.371C210.238 441.035 214.025 444.82 218.69 444.82Z" fill="#040404"/>
<path d="M254.985 446.027C260.324 446.027 264.644 441.699 264.644 436.37C264.644 431.041 260.316 426.714 254.985 426.714C249.655 426.714 245.318 431.041 245.318 436.37C245.318 441.699 249.647 446.027 254.985 446.027Z" fill="#040404"/>
<path d="M291.287 447.136C297.233 447.136 302.054 442.316 302.054 436.371C302.054 430.426 297.233 425.606 291.287 425.606C285.341 425.606 280.52 430.426 280.52 436.371C280.52 442.316 285.341 447.136 291.287 447.136Z" fill="#040404"/>
<path d="M327.58 447.939C333.97 447.939 339.152 442.758 339.152 436.37C339.152 429.981 333.97 424.8 327.58 424.8C321.19 424.8 316.008 429.981 316.008 436.37C316.008 442.758 321.19 447.939 327.58 447.939Z" fill="#040404"/>
<path d="M363.882 448.234C370.444 448.234 375.758 442.922 375.758 436.361C375.758 429.8 370.444 424.487 363.882 424.487C357.32 424.487 352.006 429.8 352.006 436.361C352.006 442.922 357.32 448.234 363.882 448.234Z" fill="#040404"/>
<path d="M400.18 447.939C406.57 447.939 411.752 442.758 411.752 436.37C411.752 429.981 406.57 424.8 400.18 424.8C393.79 424.8 388.607 429.981 388.607 436.37C388.607 442.758 393.79 447.939 400.18 447.939Z" fill="#040404"/>
<path d="M436.471 447.136C442.417 447.136 447.238 442.316 447.238 436.371C447.238 430.426 442.417 425.606 436.471 425.606C430.524 425.606 425.703 430.426 425.703 436.371C425.703 442.316 430.524 447.136 436.471 447.136Z" fill="#040404"/>
<path d="M472.773 446.126C478.169 446.126 482.539 441.757 482.539 436.363C482.539 430.968 478.169 426.599 472.773 426.599C467.377 426.599 463.008 430.968 463.008 436.363C463.008 441.757 467.377 446.126 472.773 446.126Z" fill="#040404"/>
<path d="M509.066 444.92C513.788 444.92 517.624 441.093 517.624 436.364C517.624 431.634 513.797 427.808 509.066 427.808C504.335 427.808 500.508 431.634 500.508 436.364C500.508 441.093 504.335 444.92 509.066 444.92Z" fill="#040404"/>
<path d="M545.368 443.711C549.426 443.711 552.719 440.419 552.719 436.362C552.719 432.306 549.426 429.013 545.368 429.013C541.311 429.013 538.018 432.306 538.018 436.362C538.018 440.419 541.311 443.711 545.368 443.711Z" fill="#040404"/>
<path d="M581.664 442.406C584.998 442.406 587.7 439.705 587.7 436.371C587.7 433.037 584.998 430.336 581.664 430.336C578.329 430.336 575.627 433.037 575.627 436.371C575.627 439.705 578.329 442.406 581.664 442.406Z" fill="#040404"/>
<path d="M617.957 441.092C620.569 441.092 622.688 438.974 622.688 436.363C622.688 433.751 620.569 431.633 617.957 431.633C615.346 431.633 613.227 433.751 613.227 436.363C613.227 438.974 615.346 441.092 617.957 441.092Z" fill="#040404"/>
<path d="M654.261 439.789C656.15 439.789 657.686 438.253 657.686 436.365C657.686 434.476 656.158 432.941 654.261 432.941C652.364 432.941 650.836 434.476 650.836 436.365C650.836 438.253 652.364 439.789 654.261 439.789Z" fill="#040404"/>
<path d="M690.555 438.375C691.664 438.375 692.567 437.471 692.567 436.363C692.567 435.254 691.664 434.351 690.555 434.351C689.446 434.351 688.543 435.254 688.543 436.363C688.543 437.471 689.446 438.375 690.555 438.375Z" fill="#040404"/>
<path d="M726.851 437.071C727.237 437.071 727.557 436.759 727.557 436.365C727.557 435.97 727.245 435.658 726.851 435.658C726.457 435.658 726.145 435.97 726.145 436.365C726.145 436.759 726.457 437.071 726.851 437.071Z" fill="#040404"/>
<path d="M0.907423 472.953C1.07169 472.953 1.21131 472.821 1.21131 472.649C1.21131 472.476 1.07169 472.345 0.907423 472.345C0.74316 472.345 0.603516 472.476 0.603516 472.649C0.603516 472.821 0.734947 472.953 0.907423 472.953Z" fill="#040404"/>
<path d="M37.2016 474.265C38.0886 474.265 38.8114 473.542 38.8114 472.655C38.8114 471.769 38.0886 471.046 37.2016 471.046C36.3145 471.046 35.5918 471.769 35.5918 472.655C35.5918 473.542 36.3145 474.265 37.2016 474.265Z" fill="#040404"/>
<path d="M73.4977 475.57C75.1075 475.57 76.4133 474.265 76.4133 472.655C76.4133 471.046 75.1075 469.74 73.4977 469.74C71.8879 469.74 70.582 471.046 70.582 472.655C70.582 474.265 71.8879 475.57 73.4977 475.57Z" fill="#040404"/>
<path d="M109.803 476.779C112.078 476.779 113.926 474.931 113.926 472.657C113.926 470.382 112.078 468.535 109.803 468.535C107.528 468.535 105.68 470.382 105.68 472.657C105.68 474.931 107.528 476.779 109.803 476.779Z" fill="#040404"/>
<path d="M146.095 478.086C149.093 478.086 151.532 475.655 151.532 472.65C151.532 469.644 149.101 467.214 146.095 467.214C143.089 467.214 140.658 469.644 140.658 472.65C140.658 475.655 143.089 478.086 146.095 478.086Z" fill="#040404"/>
<path d="M183.42 479.262C187.042 478.676 189.504 475.265 188.918 471.644C188.332 468.022 184.92 465.561 181.297 466.147C177.675 466.733 175.213 470.144 175.799 473.766C176.386 477.387 179.797 479.848 183.42 479.262Z" fill="#040404"/>
<path d="M218.691 480.4C222.97 480.4 226.444 476.927 226.444 472.649C226.444 468.371 222.978 464.897 218.691 464.897C214.403 464.897 210.938 468.371 210.938 472.649C210.938 476.927 214.403 480.4 218.691 480.4Z" fill="#040404"/>
<path d="M254.987 481.507C259.882 481.507 263.84 477.541 263.84 472.655C263.84 467.77 259.873 463.804 254.987 463.804C250.1 463.804 246.133 467.77 246.133 472.655C246.133 477.541 250.1 481.507 254.987 481.507Z" fill="#040404"/>
<path d="M291.288 482.313C296.626 482.313 300.947 477.986 300.947 472.657C300.947 467.328 296.618 463 291.288 463C285.958 463 281.621 467.328 281.621 472.657C281.621 477.986 285.949 482.313 291.288 482.313Z" fill="#040404"/>
<path d="M327.582 483.018C333.306 483.018 337.947 478.379 337.947 472.655C337.947 466.932 333.306 462.293 327.582 462.293C321.857 462.293 317.217 466.932 317.217 472.655C317.217 478.379 321.857 483.018 327.582 483.018Z" fill="#040404"/>
<path d="M363.887 483.217C369.726 483.217 374.457 478.487 374.457 472.649C374.457 466.81 369.726 462.081 363.887 462.081C358.047 462.081 353.316 466.81 353.316 472.649C353.316 478.487 358.047 483.217 363.887 483.217Z" fill="#040404"/>
<path d="M400.177 483.018C405.902 483.018 410.542 478.379 410.542 472.655C410.542 466.932 405.902 462.293 400.177 462.293C394.453 462.293 389.812 466.932 389.812 472.655C389.812 478.379 394.453 483.018 400.177 483.018Z" fill="#040404"/>
<path d="M436.469 482.409C441.856 482.409 446.234 478.041 446.234 472.646C446.234 467.251 441.865 462.883 436.469 462.883C431.073 462.883 426.703 467.251 426.703 472.646C426.703 478.041 431.073 482.409 436.469 482.409Z" fill="#040404"/>
<path d="M472.77 481.507C477.665 481.507 481.624 477.541 481.624 472.655C481.624 467.77 477.657 463.804 472.77 463.804C467.883 463.804 463.916 467.77 463.916 472.655C463.916 477.541 467.883 481.507 472.77 481.507Z" fill="#040404"/>
<path d="M509.069 480.507C513.405 480.507 516.92 476.993 516.92 472.657C516.92 468.322 513.405 464.807 509.069 464.807C504.732 464.807 501.217 468.322 501.217 472.657C501.217 476.993 504.732 480.507 509.069 480.507Z" fill="#040404"/>
<path d="M545.368 479.399C549.089 479.399 552.111 476.377 552.111 472.658C552.111 468.938 549.089 465.916 545.368 465.916C541.648 465.916 538.625 468.938 538.625 472.658C538.625 476.377 541.648 479.399 545.368 479.399Z" fill="#040404"/>
<path d="M581.663 478.192C584.718 478.192 587.198 475.712 587.198 472.657C587.198 469.603 584.718 467.123 581.663 467.123C578.607 467.123 576.127 469.603 576.127 472.657C576.127 475.712 578.607 478.192 581.663 478.192Z" fill="#040404"/>
<path d="M617.958 476.877C620.291 476.877 622.188 474.988 622.188 472.648C622.188 470.308 620.299 468.419 617.958 468.419C615.618 468.419 613.729 470.308 613.729 472.648C613.729 474.988 615.618 476.877 617.958 476.877Z" fill="#040404"/>
<path d="M654.257 475.57C655.867 475.57 657.173 474.265 657.173 472.655C657.173 471.046 655.867 469.74 654.257 469.74C652.648 469.74 651.342 471.046 651.342 472.655C651.342 474.265 652.648 475.57 654.257 475.57Z" fill="#040404"/>
<path d="M690.552 474.364C691.497 474.364 692.26 473.601 692.26 472.656C692.26 471.712 691.497 470.948 690.552 470.948C689.608 470.948 688.844 471.712 688.844 472.656C688.844 473.601 689.608 474.364 690.552 474.364Z" fill="#040404"/>
<path d="M726.856 473.059C727.077 473.059 727.258 472.878 727.258 472.656C727.258 472.435 727.077 472.254 726.856 472.254C726.634 472.254 726.453 472.435 726.453 472.656C726.453 472.878 726.634 473.059 726.856 473.059Z" fill="#040404"/>
<path d="M0.906907 509.04C0.964245 509.04 1.0052 508.999 1.0052 508.942C1.0052 508.884 0.956054 508.843 0.906907 508.843C0.857761 508.843 0.808594 508.884 0.808594 508.942C0.808594 508.999 0.857761 509.04 0.906907 509.04Z" fill="#040404"/>
<path d="M37.2084 510.05C37.8162 510.05 38.3172 509.557 38.3172 508.942C38.3172 508.326 37.8244 507.833 37.2084 507.833C36.5924 507.833 36.0996 508.326 36.0996 508.942C36.0996 509.557 36.5924 510.05 37.2084 510.05Z" fill="#040404"/>
<path d="M73.5017 511.258C74.7829 511.258 75.8178 510.223 75.8178 508.942C75.8178 507.661 74.7829 506.626 73.5017 506.626C72.2204 506.626 71.1855 507.661 71.1855 508.942C71.1855 510.223 72.2204 511.258 73.5017 511.258Z" fill="#040404"/>
<path d="M109.799 512.463C111.745 512.463 113.322 510.887 113.322 508.941C113.322 506.995 111.745 505.418 109.799 505.418C107.852 505.418 106.275 506.995 106.275 508.941C106.275 510.887 107.852 512.463 109.799 512.463Z" fill="#040404"/>
<path d="M146.096 513.672C148.708 513.672 150.827 511.554 150.827 508.943C150.827 506.331 148.708 504.213 146.096 504.213C143.484 504.213 141.365 506.331 141.365 508.943C141.365 511.554 143.484 513.672 146.096 513.672Z" fill="#040404"/>
<path d="M182.39 514.779C185.618 514.779 188.23 512.168 188.23 508.94C188.23 505.713 185.618 503.102 182.39 503.102C179.163 503.102 176.551 505.713 176.551 508.94C176.551 512.168 179.163 514.779 182.39 514.779Z" fill="#040404"/>
<path d="M218.695 515.782C222.473 515.782 225.537 512.719 225.537 508.942C225.537 505.165 222.473 502.102 218.695 502.102C214.917 502.102 211.854 505.165 211.854 508.942C211.854 512.719 214.917 515.782 218.695 515.782Z" fill="#040404"/>
<path d="M254.984 516.694C259.263 516.694 262.737 513.22 262.737 508.942C262.737 504.664 259.271 501.191 254.984 501.191C250.696 501.191 247.23 504.656 247.23 508.942C247.23 513.229 250.696 516.694 254.984 516.694Z" fill="#040404"/>
<path d="M291.285 517.498C296.007 517.498 299.843 513.672 299.843 508.942C299.843 504.213 296.015 500.386 291.285 500.386C286.554 500.386 282.727 504.213 282.727 508.942C282.727 513.672 286.554 517.498 291.285 517.498Z" fill="#040404"/>
<path d="M335.954 512.373C337.855 507.746 335.646 502.454 331.018 500.553C326.39 498.652 321.097 500.861 319.195 505.488C317.294 510.114 319.503 515.406 324.131 517.307C328.759 519.209 334.052 516.999 335.954 512.373Z" fill="#040404"/>
<path d="M363.884 518.097C368.943 518.097 373.042 514 373.042 508.942C373.042 503.884 368.943 499.786 363.884 499.786C358.825 499.786 354.727 503.884 354.727 508.942C354.727 514 358.825 518.097 363.884 518.097Z" fill="#040404"/>
<path d="M400.178 517.999C405.181 517.999 409.237 513.944 409.237 508.942C409.237 503.94 405.181 499.885 400.178 499.885C395.175 499.885 391.119 503.94 391.119 508.942C391.119 513.944 395.175 517.999 400.178 517.999Z" fill="#040404"/>
<path d="M436.472 517.498C441.195 517.498 445.03 513.672 445.03 508.942C445.03 504.213 441.203 500.386 436.472 500.386C431.741 500.386 427.914 504.213 427.914 508.942C427.914 513.672 431.741 517.498 436.472 517.498Z" fill="#040404"/>
<path d="M472.772 516.792C477.108 516.792 480.623 513.277 480.623 508.942C480.623 504.606 477.108 501.092 472.772 501.092C468.435 501.092 464.92 504.606 464.92 508.942C464.92 513.277 468.435 516.792 472.772 516.792Z" fill="#040404"/>
<path d="M509.065 515.888C512.901 515.888 516.014 512.776 516.014 508.941C516.014 505.107 512.901 501.995 509.065 501.995C505.23 501.995 502.117 505.107 502.117 508.941C502.117 512.776 505.23 515.888 509.065 515.888Z" fill="#040404"/>
<path d="M545.37 514.878C548.647 514.878 551.308 512.218 551.308 508.942C551.308 505.665 548.647 503.005 545.37 503.005C542.093 503.005 539.432 505.665 539.432 508.942C539.432 512.218 542.093 514.878 545.37 514.878Z" fill="#040404"/>
<path d="M581.663 513.77C584.333 513.77 586.493 511.611 586.493 508.942C586.493 506.274 584.333 504.114 581.663 504.114C578.994 504.114 576.834 506.274 576.834 508.942C576.834 511.611 578.994 513.77 581.663 513.77Z" fill="#040404"/>
<path d="M617.958 512.563C619.962 512.563 621.58 510.937 621.58 508.942C621.58 506.946 619.962 505.321 617.958 505.321C615.954 505.321 614.336 506.946 614.336 508.942C614.336 510.937 615.962 512.563 617.958 512.563Z" fill="#040404"/>
<path d="M654.254 511.356C655.585 511.356 656.669 510.272 656.669 508.941C656.669 507.611 655.585 506.527 654.254 506.527C652.924 506.527 651.84 507.611 651.84 508.941C651.84 510.272 652.924 511.356 654.254 511.356Z" fill="#040404"/>
<path d="M690.553 510.149C691.218 510.149 691.76 509.607 691.76 508.942C691.76 508.277 691.218 507.735 690.553 507.735C689.888 507.735 689.346 508.277 689.346 508.942C689.346 509.607 689.888 510.149 690.553 510.149Z" fill="#040404"/>
<path d="M726.852 509.04C726.91 509.04 726.95 508.999 726.95 508.942C726.95 508.884 726.901 508.843 726.852 508.843C726.803 508.843 726.754 508.884 726.754 508.942C726.754 508.999 726.803 509.04 726.852 509.04Z" fill="#040404"/>
<path d="M37.2061 545.737C37.4853 545.737 37.7071 545.515 37.7071 545.236C37.7071 544.957 37.4853 544.735 37.2061 544.735C36.9268 544.735 36.7051 544.957 36.7051 545.236C36.7051 545.515 36.9268 545.737 37.2061 545.737Z" fill="#040404"/>
<path d="M73.4994 546.944C74.4439 546.944 75.2077 546.18 75.2077 545.236C75.2077 544.291 74.4439 543.528 73.4994 543.528C72.5549 543.528 71.791 544.291 71.791 545.236C71.791 546.18 72.5549 546.944 73.4994 546.944Z" fill="#040404"/>
<path d="M109.803 548.052C111.356 548.052 112.621 546.787 112.621 545.235C112.621 543.683 111.356 542.419 109.803 542.419C108.251 542.419 106.986 543.683 106.986 545.235C106.986 546.787 108.251 548.052 109.803 548.052Z" fill="#040404"/>
<path d="M146.094 549.153C148.262 549.153 150.02 547.396 150.02 545.228C150.02 543.06 148.262 541.303 146.094 541.303C143.926 541.303 142.168 543.06 142.168 545.228C142.168 547.396 143.926 549.153 146.094 549.153Z" fill="#040404"/>
<path d="M182.391 550.163C185.118 550.163 187.319 547.954 187.319 545.228C187.319 542.502 185.11 540.293 182.391 540.293C179.673 540.293 177.455 542.502 177.455 545.228C177.455 547.954 179.664 550.163 182.391 550.163Z" fill="#040404"/>
<path d="M218.691 551.067C221.919 551.067 224.531 548.455 224.531 545.228C224.531 542.001 221.919 539.39 218.691 539.39C215.463 539.39 212.852 542.001 212.852 545.228C212.852 548.455 215.463 551.067 218.691 551.067Z" fill="#040404"/>
<path d="M254.984 551.879C258.654 551.879 261.629 548.905 261.629 545.236C261.629 541.567 258.654 538.593 254.984 538.593C251.315 538.593 248.34 541.567 248.34 545.236C248.34 548.905 251.315 551.879 254.984 551.879Z" fill="#040404"/>
<path d="M291.289 552.478C295.289 552.478 298.533 549.235 298.533 545.236C298.533 541.237 295.289 537.993 291.289 537.993C287.289 537.993 284.045 541.237 284.045 545.236C284.045 549.235 287.289 552.478 291.289 552.478Z" fill="#040404"/>
<path d="M327.58 552.881C331.802 552.881 335.226 549.457 335.226 545.237C335.226 541.016 331.802 537.592 327.58 537.592C323.358 537.592 319.934 541.016 319.934 545.237C319.934 549.457 323.358 552.881 327.58 552.881Z" fill="#040404"/>
<path d="M363.885 553.075C368.222 553.075 371.737 549.561 371.737 545.225C371.737 540.89 368.222 537.375 363.885 537.375C359.548 537.375 356.033 540.89 356.033 545.225C356.033 549.561 359.548 553.075 363.885 553.075Z" fill="#040404"/>
<path d="M400.176 552.881C404.397 552.881 407.822 549.457 407.822 545.237C407.822 541.016 404.397 537.592 400.176 537.592C395.954 537.592 392.529 541.016 392.529 545.237C392.529 549.457 395.954 552.881 400.176 552.881Z" fill="#040404"/>
<path d="M436.47 552.577C440.527 552.577 443.821 549.284 443.821 545.228C443.821 541.172 440.527 537.879 436.47 537.879C432.413 537.879 429.119 541.172 429.119 545.228C429.119 549.284 432.413 552.577 436.47 552.577Z" fill="#040404"/>
<path d="M472.776 551.977C476.497 551.977 479.519 548.956 479.519 545.236C479.519 541.516 476.497 538.494 472.776 538.494C469.056 538.494 466.033 541.516 466.033 545.236C466.033 548.956 469.056 551.977 472.776 551.977Z" fill="#040404"/>
<path d="M509.067 551.173C512.344 551.173 515.005 548.513 515.005 545.236C515.005 541.96 512.344 539.3 509.067 539.3C505.79 539.3 503.129 541.96 503.129 545.236C503.129 548.513 505.79 551.173 509.067 551.173Z" fill="#040404"/>
<path d="M545.367 550.262C548.143 550.262 550.401 548.012 550.401 545.229C550.401 542.445 548.151 540.195 545.367 540.195C542.582 540.195 540.332 542.445 540.332 545.229C540.332 548.012 542.582 550.262 545.367 550.262Z" fill="#040404"/>
<path d="M581.665 549.259C583.891 549.259 585.69 547.461 585.69 545.236C585.69 543.01 583.891 541.212 581.665 541.212C579.439 541.212 577.641 543.01 577.641 545.236C577.641 547.461 579.439 549.259 581.665 549.259Z" fill="#040404"/>
<path d="M617.955 548.15C619.565 548.15 620.87 546.844 620.87 545.235C620.87 543.625 619.565 542.32 617.955 542.32C616.345 542.32 615.039 543.625 615.039 545.235C615.039 546.844 616.345 548.15 617.955 548.15Z" fill="#040404"/>
<path d="M654.259 546.944C655.204 546.944 655.967 546.18 655.967 545.236C655.967 544.291 655.204 543.528 654.259 543.528C653.315 543.528 652.551 544.291 652.551 545.236C652.551 546.18 653.315 546.944 654.259 546.944Z" fill="#040404"/>
<path d="M690.553 545.834C690.89 545.834 691.161 545.563 691.161 545.227C691.161 544.89 690.89 544.619 690.553 544.619C690.216 544.619 689.945 544.89 689.945 545.227C689.945 545.563 690.216 545.834 690.553 545.834Z" fill="#040404"/>
<path d="M37.2018 581.62C37.2591 581.62 37.3001 581.579 37.3001 581.522C37.3001 581.464 37.251 581.423 37.2018 581.423C37.1527 581.423 37.1035 581.464 37.1035 581.522C37.1035 581.579 37.1527 581.62 37.2018 581.62Z" fill="#040404"/>
<path d="M73.503 582.424C74.004 582.424 74.4065 582.022 74.4065 581.521C74.4065 581.02 74.004 580.618 73.503 580.618C73.002 580.618 72.5996 581.02 72.5996 581.521C72.5996 582.022 73.002 582.424 73.503 582.424Z" fill="#040404"/>
<path d="M109.801 583.534C110.91 583.534 111.814 582.631 111.814 581.522C111.814 580.414 110.91 579.51 109.801 579.51C108.693 579.51 107.789 580.414 107.789 581.522C107.789 582.631 108.693 583.534 109.801 583.534Z" fill="#040404"/>
<path d="M146.095 584.543C147.762 584.543 149.117 583.189 149.117 581.522C149.117 579.855 147.762 578.5 146.095 578.5C144.427 578.5 143.072 579.855 143.072 581.522C143.072 583.189 144.427 584.543 146.095 584.543Z" fill="#040404"/>
<path d="M182.391 585.445C184.559 585.445 186.317 583.688 186.317 581.52C186.317 579.352 184.559 577.595 182.391 577.595C180.222 577.595 178.465 579.352 178.465 581.52C178.465 583.688 180.222 585.445 182.391 585.445Z" fill="#040404"/>
<path d="M218.692 586.252C221.303 586.252 223.422 584.133 223.422 581.522C223.422 578.911 221.303 576.792 218.692 576.792C216.08 576.792 213.961 578.911 213.961 581.522C213.961 584.133 216.08 586.252 218.692 586.252Z" fill="#040404"/>
<path d="M254.986 586.957C257.984 586.957 260.423 584.526 260.423 581.521C260.423 578.516 257.992 576.085 254.986 576.085C251.98 576.085 249.549 578.516 249.549 581.521C249.549 584.526 251.98 586.957 254.986 586.957Z" fill="#040404"/>
<path d="M291.287 587.557C294.621 587.557 297.323 584.856 297.323 581.522C297.323 578.188 294.621 575.487 291.287 575.487C287.952 575.487 285.25 578.188 285.25 581.522C285.25 584.856 287.952 587.557 291.287 587.557Z" fill="#040404"/>
<path d="M327.581 587.86C331.08 587.86 333.921 585.019 333.921 581.521C333.921 578.023 331.08 575.181 327.581 575.181C324.082 575.181 321.24 578.023 321.24 581.521C321.24 585.019 324.082 587.86 327.581 587.86Z" fill="#040404"/>
<path d="M363.882 587.96C367.439 587.96 370.322 585.078 370.322 581.523C370.322 577.967 367.439 575.085 363.882 575.085C360.326 575.085 357.443 577.967 357.443 581.523C357.443 585.078 360.326 587.96 363.882 587.96Z" fill="#040404"/>
<path d="M400.18 587.86C403.679 587.86 406.521 585.019 406.521 581.521C406.521 578.023 403.679 575.181 400.18 575.181C396.682 575.181 393.84 578.023 393.84 581.521C393.84 585.019 396.682 587.86 400.18 587.86Z" fill="#040404"/>
<path d="M436.47 587.557C439.805 587.557 442.507 584.856 442.507 581.522C442.507 578.188 439.805 575.487 436.47 575.487C433.136 575.487 430.434 578.188 430.434 581.522C430.434 584.856 433.136 587.557 436.47 587.557Z" fill="#040404"/>
<path d="M472.774 587.057C475.829 587.057 478.31 584.577 478.31 581.522C478.31 578.468 475.829 575.988 472.774 575.988C469.719 575.988 467.238 578.468 467.238 581.522C467.238 584.577 469.719 587.057 472.774 587.057Z" fill="#040404"/>
<path d="M509.068 586.348C511.737 586.348 513.897 584.189 513.897 581.52C513.897 578.851 511.737 576.692 509.068 576.692C506.398 576.692 504.238 578.851 504.238 581.52C504.238 584.189 506.398 586.348 509.068 586.348Z" fill="#040404"/>
<path d="M545.37 585.546C547.596 585.546 549.395 583.748 549.395 581.522C549.395 579.297 547.596 577.499 545.37 577.499C543.144 577.499 541.346 579.297 541.346 581.522C541.346 583.748 543.144 585.546 545.37 585.546Z" fill="#040404"/>
<path d="M581.661 584.543C583.328 584.543 584.684 583.189 584.684 581.522C584.684 579.855 583.328 578.5 581.661 578.5C579.994 578.5 578.639 579.855 578.639 581.522C578.639 583.189 579.994 584.543 581.661 584.543Z" fill="#040404"/>
<path d="M617.96 583.534C619.068 583.534 619.972 582.631 619.972 581.522C619.972 580.414 619.068 579.51 617.96 579.51C616.851 579.51 615.947 580.414 615.947 581.522C615.947 582.631 616.851 583.534 617.96 583.534Z" fill="#040404"/>
<path d="M654.258 582.532C654.817 582.532 655.26 582.081 655.26 581.522C655.26 580.964 654.809 580.512 654.258 580.512C653.708 580.512 653.248 580.964 653.248 581.522C653.248 582.081 653.7 582.532 654.258 582.532Z" fill="#040404"/>
<path d="M690.557 581.62C690.615 581.62 690.656 581.579 690.656 581.522C690.656 581.464 690.606 581.423 690.557 581.423C690.508 581.423 690.459 581.464 690.459 581.522C690.459 581.579 690.508 581.62 690.557 581.62Z" fill="#040404"/>
<path d="M73.4963 618.013C73.6031 618.013 73.6935 617.922 73.6935 617.807C73.6935 617.692 73.6031 617.602 73.4963 617.602C73.3896 617.602 73.291 617.692 73.291 617.807C73.291 617.922 73.3814 618.013 73.4963 618.013Z" fill="#040404"/>
<path d="M109.805 618.817C110.364 618.817 110.807 618.365 110.807 617.807C110.807 617.249 110.355 616.797 109.805 616.797C109.255 616.797 108.795 617.249 108.795 617.807C108.795 618.365 109.247 618.817 109.805 618.817Z" fill="#040404"/>
<path d="M146.098 619.819C147.207 619.819 148.11 618.916 148.11 617.807C148.11 616.699 147.207 615.795 146.098 615.795C144.989 615.795 144.086 616.699 144.086 617.807C144.086 618.916 144.989 619.819 146.098 619.819Z" fill="#040404"/>
<path d="M182.391 620.63C183.944 620.63 185.208 619.366 185.208 617.814C185.208 616.262 183.944 614.997 182.391 614.997C180.839 614.997 179.574 616.262 179.574 617.814C179.574 619.366 180.839 620.63 182.391 620.63Z" fill="#040404"/>
<path d="M218.688 621.436C220.692 621.436 222.31 619.81 222.31 617.815C222.31 615.819 220.692 614.194 218.688 614.194C216.684 614.194 215.066 615.819 215.066 617.815C215.066 619.81 216.693 621.436 218.688 621.436Z" fill="#040404"/>
<path d="M254.984 622.035C257.316 622.035 259.213 620.146 259.213 617.806C259.213 615.466 257.324 613.577 254.984 613.577C252.643 613.577 250.754 615.466 250.754 617.806C250.754 620.146 252.643 622.035 254.984 622.035Z" fill="#040404"/>
<path d="M291.288 622.438C293.843 622.438 295.921 620.368 295.921 617.806C295.921 615.245 293.851 613.175 291.288 613.175C288.726 613.175 286.656 615.245 286.656 617.806C286.656 620.368 288.726 622.438 291.288 622.438Z" fill="#040404"/>
<path d="M327.579 622.742C330.305 622.742 332.507 620.533 332.507 617.807C332.507 615.081 330.297 612.872 327.579 612.872C324.86 612.872 322.643 615.081 322.643 617.807C322.643 620.533 324.852 622.742 327.579 622.742Z" fill="#040404"/>
<path d="M363.884 622.84C366.66 622.84 368.919 620.591 368.919 617.807C368.919 615.023 366.669 612.773 363.884 612.773C361.1 612.773 358.85 615.023 358.85 617.807C358.85 620.591 361.1 622.84 363.884 622.84Z" fill="#040404"/>
<path d="M400.177 622.84C402.953 622.84 405.212 620.591 405.212 617.807C405.212 615.023 402.961 612.773 400.177 612.773C397.393 612.773 395.143 615.023 395.143 617.807C395.143 620.591 397.393 622.84 400.177 622.84Z" fill="#040404"/>
<path d="M436.473 622.537C439.085 622.537 441.204 620.419 441.204 617.807C441.204 615.196 439.085 613.078 436.473 613.078C433.861 613.078 431.742 615.196 431.742 617.807C431.742 620.419 433.861 622.537 436.473 622.537Z" fill="#040404"/>
<path d="M472.775 622.035C475.107 622.035 477.005 620.146 477.005 617.806C477.005 615.466 475.115 613.577 472.775 613.577C470.434 613.577 468.545 615.466 468.545 617.806C468.545 620.146 470.434 622.035 472.775 622.035Z" fill="#040404"/>
<path d="M509.069 621.436C511.073 621.436 512.691 619.81 512.691 617.815C512.691 615.819 511.073 614.194 509.069 614.194C507.065 614.194 505.447 615.819 505.447 617.815C505.447 619.81 507.073 621.436 509.069 621.436Z" fill="#040404"/>
<path d="M545.371 620.731C546.981 620.731 548.286 619.426 548.286 617.816C548.286 616.207 546.981 614.901 545.371 614.901C543.761 614.901 542.455 616.207 542.455 617.816C542.455 619.426 543.761 620.731 545.371 620.731Z" fill="#040404"/>
<path d="M581.663 619.819C582.771 619.819 583.675 618.916 583.675 617.807C583.675 616.699 582.771 615.795 581.663 615.795C580.554 615.795 579.65 616.699 579.65 617.807C579.65 618.916 580.554 619.819 581.663 619.819Z" fill="#040404"/>
<path d="M617.96 618.915C618.568 618.915 619.069 618.423 619.069 617.807C619.069 617.191 618.576 616.698 617.96 616.698C617.344 616.698 616.852 617.191 616.852 617.807C616.852 618.423 617.344 618.915 617.96 618.915Z" fill="#040404"/>
<path d="M654.252 618.013C654.359 618.013 654.449 617.922 654.449 617.807C654.449 617.692 654.359 617.602 654.252 617.602C654.145 617.602 654.047 617.692 654.047 617.807C654.047 617.922 654.137 618.013 654.252 618.013Z" fill="#040404"/>
<path d="M109.803 654.297C109.91 654.297 110 654.207 110 654.092C110 653.977 109.91 653.887 109.803 653.887C109.696 653.887 109.598 653.977 109.598 654.092C109.598 654.207 109.688 654.297 109.803 654.297Z" fill="#040404"/>
<path d="M146.099 655.004C146.6 655.004 147.002 654.602 147.002 654.101C147.002 653.6 146.6 653.198 146.099 653.198C145.598 653.198 145.195 653.6 145.195 654.101C145.195 654.602 145.598 655.004 146.099 655.004Z" fill="#040404"/>
<path d="M182.384 655.807C183.329 655.807 184.092 655.043 184.092 654.099C184.092 653.155 183.329 652.391 182.384 652.391C181.44 652.391 180.676 653.155 180.676 654.099C180.676 655.043 181.44 655.807 182.384 655.807Z" fill="#040404"/>
<path d="M218.694 656.514C220.024 656.514 221.109 655.43 221.109 654.1C221.109 652.769 220.024 651.686 218.694 651.686C217.363 651.686 216.279 652.769 216.279 654.1C216.279 655.43 217.363 656.514 218.694 656.514Z" fill="#040404"/>
<path d="M254.988 657.015C256.598 657.015 257.904 655.709 257.904 654.1C257.904 652.49 256.598 651.185 254.988 651.185C253.378 651.185 252.072 652.49 252.072 654.1C252.072 655.709 253.378 657.015 254.988 657.015Z" fill="#040404"/>
<path d="M291.289 657.419C293.12 657.419 294.607 655.933 294.607 654.102C294.607 652.27 293.12 650.784 291.289 650.784C289.457 650.784 287.971 652.27 287.971 654.102C287.971 655.933 289.457 657.419 291.289 657.419Z" fill="#040404"/>
<path d="M327.579 657.723C329.583 657.723 331.201 656.097 331.201 654.101C331.201 652.106 329.583 650.48 327.579 650.48C325.575 650.48 323.957 652.106 323.957 654.101C323.957 656.097 325.583 657.723 327.579 657.723Z" fill="#040404"/>
<path d="M363.881 657.821C365.934 657.821 367.601 656.154 367.601 654.101C367.601 652.048 365.934 650.381 363.881 650.381C361.827 650.381 360.16 652.048 360.16 654.101C360.16 656.154 361.827 657.821 363.881 657.821Z" fill="#040404"/>
<path d="M400.179 657.723C402.183 657.723 403.801 656.097 403.801 654.101C403.801 652.106 402.183 650.48 400.179 650.48C398.175 650.48 396.557 652.106 396.557 654.101C396.557 656.097 398.183 657.723 400.179 657.723Z" fill="#040404"/>
<path d="M436.47 657.515C438.359 657.515 439.895 655.98 439.895 654.091C439.895 652.203 438.367 650.667 436.47 650.667C434.573 650.667 433.045 652.203 433.045 654.091C433.045 655.98 434.573 657.515 436.47 657.515Z" fill="#040404"/>
<path d="M472.771 657.015C474.381 657.015 475.687 655.709 475.687 654.1C475.687 652.49 474.381 651.185 472.771 651.185C471.161 651.185 469.855 652.49 469.855 654.1C469.855 655.709 471.161 657.015 472.771 657.015Z" fill="#040404"/>
<path d="M509.073 656.514C510.403 656.514 511.488 655.43 511.488 654.1C511.488 652.769 510.403 651.686 509.073 651.686C507.742 651.686 506.658 652.769 506.658 654.1C506.658 655.43 507.742 656.514 509.073 656.514Z" fill="#040404"/>
<path d="M545.372 655.807C546.317 655.807 547.081 655.043 547.081 654.099C547.081 653.155 546.317 652.391 545.372 652.391C544.428 652.391 543.664 653.155 543.664 654.099C543.664 655.043 544.428 655.807 545.372 655.807Z" fill="#040404"/>
<path d="M581.666 655.105C582.225 655.105 582.669 654.653 582.669 654.095C582.669 653.537 582.217 653.085 581.666 653.085C581.116 653.085 580.656 653.537 580.656 654.095C580.656 654.653 581.108 655.105 581.666 655.105Z" fill="#040404"/>
<path d="M617.957 654.297C618.064 654.297 618.154 654.207 618.154 654.092C618.154 653.977 618.064 653.887 617.957 653.887C617.851 653.887 617.752 653.977 617.752 654.092C617.752 654.207 617.842 654.297 617.957 654.297Z" fill="#040404"/>
<path d="M146.092 690.484C146.15 690.484 146.191 690.443 146.191 690.386C146.191 690.329 146.142 690.288 146.092 690.288C146.043 690.288 145.994 690.329 145.994 690.386C145.994 690.443 146.043 690.484 146.092 690.484Z" fill="#040404"/>
<path d="M182.39 690.886C182.669 690.886 182.891 690.665 182.891 690.385C182.891 690.106 182.669 689.885 182.39 689.885C182.11 689.885 181.889 690.106 181.889 690.385C181.889 690.665 182.11 690.886 182.39 690.886Z" fill="#040404"/>
<path d="M218.691 691.495C219.299 691.495 219.8 691.002 219.8 690.386C219.8 689.77 219.307 689.278 218.691 689.278C218.075 689.278 217.582 689.77 217.582 690.386C217.582 691.002 218.075 691.495 218.691 691.495Z" fill="#040404"/>
<path d="M254.985 691.997C255.872 691.997 256.595 691.275 256.595 690.388C256.595 689.501 255.872 688.778 254.985 688.778C254.098 688.778 253.375 689.501 253.375 690.388C253.375 691.275 254.098 691.997 254.985 691.997Z" fill="#040404"/>
<path d="M291.29 692.398C292.398 692.398 293.302 691.495 293.302 690.387C293.302 689.278 292.398 688.375 291.29 688.375C290.181 688.375 289.277 689.278 289.277 690.387C289.277 691.495 290.181 692.398 291.29 692.398Z" fill="#040404"/>
<path d="M327.581 692.603C328.805 692.603 329.798 691.609 329.798 690.386C329.798 689.162 328.805 688.169 327.581 688.169C326.357 688.169 325.363 689.162 325.363 690.386C325.363 691.609 326.357 692.603 327.581 692.603Z" fill="#040404"/>
<path d="M363.883 692.702C365.164 692.702 366.199 691.667 366.199 690.386C366.199 689.105 365.164 688.071 363.883 688.071C362.601 688.071 361.566 689.105 361.566 690.386C361.566 691.667 362.601 692.702 363.883 692.702Z" fill="#040404"/>
<path d="M400.177 692.603C401.4 692.603 402.394 691.609 402.394 690.386C402.394 689.162 401.4 688.169 400.177 688.169C398.953 688.169 397.959 689.162 397.959 690.386C397.959 691.609 398.953 692.603 400.177 692.603Z" fill="#040404"/>
<path d="M436.471 692.398C437.58 692.398 438.483 691.495 438.483 690.387C438.483 689.278 437.58 688.375 436.471 688.375C435.362 688.375 434.459 689.278 434.459 690.387C434.459 691.495 435.362 692.398 436.471 692.398Z" fill="#040404"/>
<path d="M472.769 692.102C473.713 692.102 474.477 691.338 474.477 690.394C474.477 689.45 473.713 688.686 472.769 688.686C471.824 688.686 471.061 689.45 471.061 690.394C471.061 691.338 471.824 692.102 472.769 692.102Z" fill="#040404"/>
<path d="M509.067 691.594C509.732 691.594 510.274 691.052 510.274 690.387C510.274 689.722 509.732 689.18 509.067 689.18C508.401 689.18 507.859 689.722 507.859 690.387C507.859 691.052 508.401 691.594 509.067 691.594Z" fill="#040404"/>
<path d="M545.369 690.995C545.706 690.995 545.977 690.724 545.977 690.387C545.977 690.051 545.706 689.78 545.369 689.78C545.033 689.78 544.762 690.051 544.762 690.387C544.762 690.724 545.033 690.995 545.369 690.995Z" fill="#040404"/>
<path d="M581.663 690.484C581.72 690.484 581.761 690.443 581.761 690.386C581.761 690.329 581.712 690.288 581.663 690.288C581.614 690.288 581.564 690.329 581.564 690.386C581.564 690.443 581.614 690.484 581.663 690.484Z" fill="#040404"/>
<path d="M218.688 726.776C218.745 726.776 218.786 726.735 218.786 726.678C218.786 726.621 218.737 726.58 218.688 726.58C218.639 726.58 218.59 726.621 218.59 726.678C218.59 726.735 218.639 726.776 218.688 726.776Z" fill="#040404"/>
<path d="M254.983 727.082C255.204 727.082 255.385 726.901 255.385 726.679C255.385 726.457 255.204 726.277 254.983 726.277C254.761 726.277 254.58 726.457 254.58 726.679C254.58 726.901 254.761 727.082 254.983 727.082Z" fill="#040404"/>
<path d="M291.288 727.377C291.674 727.377 291.995 727.065 291.995 726.671C291.995 726.276 291.683 725.964 291.288 725.964C290.894 725.964 290.582 726.276 290.582 726.671C290.582 727.065 290.894 727.377 291.288 727.377Z" fill="#040404"/>
<path d="M327.581 727.584C328.082 727.584 328.485 727.181 328.485 726.681C328.485 726.18 328.082 725.777 327.581 725.777C327.08 725.777 326.678 726.18 326.678 726.681C326.678 727.181 327.08 727.584 327.581 727.584Z" fill="#040404"/>
<path d="M363.883 727.68C364.442 727.68 364.885 727.228 364.885 726.67C364.885 726.112 364.434 725.66 363.883 725.66C363.333 725.66 362.873 726.112 362.873 726.67C362.873 727.228 363.325 727.68 363.883 727.68Z" fill="#040404"/>
<path d="M400.177 727.584C400.678 727.584 401.08 727.181 401.08 726.681C401.08 726.18 400.678 725.777 400.177 725.777C399.676 725.777 399.273 726.18 399.273 726.681C399.273 727.181 399.676 727.584 400.177 727.584Z" fill="#040404"/>
<path d="M436.468 727.377C436.854 727.377 437.174 727.065 437.174 726.671C437.174 726.276 436.862 725.964 436.468 725.964C436.074 725.964 435.762 726.276 435.762 726.671C435.762 727.065 436.074 727.377 436.468 727.377Z" fill="#040404"/>
<path d="M472.77 727.082C472.991 727.082 473.172 726.901 473.172 726.679C473.172 726.457 472.991 726.277 472.77 726.277C472.548 726.277 472.367 726.457 472.367 726.679C472.367 726.901 472.548 727.082 472.77 727.082Z" fill="#040404"/>
<path d="M509.063 726.776C509.12 726.776 509.161 726.735 509.161 726.678C509.161 726.621 509.112 726.58 509.063 726.58C509.014 726.58 508.965 726.621 508.965 726.678C508.965 726.735 509.014 726.776 509.063 726.776Z" fill="#040404"/>
</svg>
