<svg width="20" height="21" viewBox="0 0 20 21" fill="none" xmlns="http://www.w3.org/2000/svg">
<g clip-path="url(#clip0_1_3439)">
<path d="M19.6986 13.1478C18.3629 18.5049 12.937 21.7653 7.57921 20.4293C2.22358 19.0937 -1.03673 13.6674 0.29952 8.31057C1.63452 2.95277 7.06046 -0.30786 12.4167 1.02776C17.7742 2.36339 21.0342 7.79027 19.6986 13.1478Z" fill="#F7931A"/>
<path d="M14.4091 9.30381C14.6082 7.9732 13.595 7.25789 12.2097 6.7807L12.6591 4.9782L11.5619 4.70477L11.1244 6.45977C10.8359 6.38789 10.5397 6.32007 10.2453 6.25289L10.6859 4.48632L9.5894 4.21289L9.13965 6.01477C8.9009 5.96039 8.66657 5.90664 8.43907 5.85007L8.44032 5.84445L6.92719 5.46664L6.63531 6.63852C6.63531 6.63852 7.44938 6.82507 7.43219 6.83664C7.87656 6.94757 7.95688 7.24164 7.94344 7.47477L7.43156 9.52822C7.46219 9.53597 7.50188 9.54722 7.54563 9.56472C7.50906 9.55572 7.47 9.54572 7.42969 9.53597L6.71219 12.4126C6.65781 12.5476 6.52 12.7501 6.20938 12.6732C6.22031 12.6891 5.41188 12.4741 5.41188 12.4741L4.86719 13.7301L6.295 14.086C6.56063 14.1526 6.82094 14.2222 7.07719 14.2879L6.62313 16.111L7.71906 16.3845L8.16875 14.5807C8.46815 14.662 8.75874 14.737 9.04315 14.8076L8.59499 16.6029L9.69215 16.8763L10.1462 15.0566C12.0172 15.4107 13.4241 15.2679 14.0162 13.5757C14.4934 12.2132 13.9925 11.4272 13.0082 10.9147C13.725 10.7495 14.265 10.2779 14.4091 9.30381ZM11.9022 12.8191C11.5632 14.1816 9.26907 13.4451 8.52532 13.2604L9.12782 10.8451C9.87157 11.0307 12.2566 11.3982 11.9022 12.8191ZM12.2416 9.28414C11.9322 10.5235 10.0228 9.89381 9.4034 9.73947L9.94965 7.54882C10.5691 7.7032 12.5637 7.99132 12.2416 9.28414Z" fill="white"/>
</g>
<defs>
<clipPath id="clip0_1_3439">
<rect width="20" height="20" fill="white" transform="translate(0 0.728516)"/>
</clipPath>
</defs>
</svg>
