<svg width="1019" height="654" viewBox="0 0 1019 654" fill="none" xmlns="http://www.w3.org/2000/svg">
<path d="M306.153 0.892443C306.233 0.892443 306.291 0.855697 306.291 0.804254C306.291 0.75281 306.222 0.716064 306.153 0.716064C306.084 0.716064 306.016 0.75281 306.016 0.804254C306.016 0.855697 306.084 0.892443 306.153 0.892443Z" fill="#E5FF00"/>
<path d="M356.965 1.07484C357.195 1.07484 357.39 0.956939 357.39 0.802191C357.39 0.647444 357.206 0.529541 356.965 0.529541C356.723 0.529541 356.539 0.647444 356.539 0.802191C356.539 0.956939 356.723 1.07484 356.965 1.07484Z" fill="#E5FF00"/>
<path d="M407.784 1.34866C408.256 1.34866 408.635 1.10548 408.635 0.803357C408.635 0.501231 408.256 0.258057 407.784 0.258057C407.313 0.258057 406.934 0.501231 406.934 0.803357C406.934 1.10548 407.313 1.34866 407.784 1.34866Z" fill="#E5FF00"/>
<path d="M458.596 1.52561C459.216 1.52561 459.722 1.20138 459.722 0.803453C459.722 0.405531 459.216 0.0812988 458.596 0.0812988C457.975 0.0812988 457.469 0.405531 457.469 0.803453C457.469 1.20138 457.975 1.52561 458.596 1.52561Z" fill="#E5FF00"/>
<path d="M509.417 1.62116C510.118 1.62116 510.682 1.26009 510.682 0.810582C510.682 0.361077 510.118 0 509.417 0C508.716 0 508.152 0.361077 508.152 0.810582C508.152 1.26009 508.716 1.62116 509.417 1.62116Z" fill="#E5FF00"/>
<path d="M560.228 1.52561C560.849 1.52561 561.355 1.20138 561.355 0.803453C561.355 0.405531 560.849 0.0812988 560.228 0.0812988C559.607 0.0812988 559.102 0.405531 559.102 0.803453C559.102 1.20138 559.607 1.52561 560.228 1.52561Z" fill="#E5FF00"/>
<path d="M611.034 1.34866C611.506 1.34866 611.885 1.10548 611.885 0.803357C611.885 0.501231 611.506 0.258057 611.034 0.258057C610.563 0.258057 610.184 0.501231 610.184 0.803357C610.184 1.10548 610.563 1.34866 611.034 1.34866Z" fill="#E5FF00"/>
<path d="M661.855 1.07484C662.085 1.07484 662.281 0.956939 662.281 0.802191C662.281 0.647444 662.097 0.529541 661.855 0.529541C661.614 0.529541 661.43 0.647444 661.43 0.802191C661.43 0.956939 661.614 1.07484 661.855 1.07484Z" fill="#E5FF00"/>
<path d="M712.661 0.892443C712.741 0.892443 712.799 0.855697 712.799 0.804254C712.799 0.75281 712.73 0.716064 712.661 0.716064C712.592 0.716064 712.523 0.75281 712.523 0.804254C712.523 0.855697 712.592 0.892443 712.661 0.892443Z" fill="#E5FF00"/>
<path d="M204.524 33.4615C204.605 33.4615 204.662 33.4248 204.662 33.3733C204.662 33.3219 204.593 33.2852 204.524 33.2852C204.456 33.2852 204.387 33.3219 204.387 33.3733C204.387 33.4248 204.456 33.4615 204.524 33.4615Z" fill="#E5FF00"/>
<path d="M255.334 33.8226C255.725 33.8226 256.036 33.6236 256.036 33.3731C256.036 33.1225 255.725 32.9236 255.334 32.9236C254.943 32.9236 254.633 33.1225 254.633 33.3731C254.633 33.6236 254.943 33.8226 255.334 33.8226Z" fill="#E5FF00"/>
<path d="M306.153 34.273C306.934 34.273 307.555 33.8677 307.555 33.3666C307.555 32.8655 306.923 32.4602 306.153 32.4602C305.382 32.4602 304.738 32.8655 304.738 33.3666C304.738 33.8677 305.371 34.273 306.153 34.273Z" fill="#E5FF00"/>
<path d="M356.963 34.7301C358.125 34.7301 359.079 34.1258 359.079 33.3742C359.079 32.6226 358.136 32.0183 356.963 32.0183C355.791 32.0183 354.848 32.6226 354.848 33.3742C354.848 34.1258 355.791 34.7301 356.963 34.7301Z" fill="#E5FF00"/>
<path d="M407.784 35.0902C409.268 35.0902 410.463 34.3238 410.463 33.3732C410.463 32.4226 409.268 31.6562 407.784 31.6562C406.301 31.6562 405.105 32.4226 405.105 33.3732C405.105 34.3238 406.301 35.0902 407.784 35.0902Z" fill="#E5FF00"/>
<path d="M458.596 35.2686C460.228 35.2686 461.551 34.4212 461.551 33.3748C461.551 32.3284 460.228 31.481 458.596 31.481C456.963 31.481 455.641 32.3284 455.641 33.3748C455.641 34.4212 456.963 35.2686 458.596 35.2686Z" fill="#E5FF00"/>
<path d="M509.417 35.3564C511.13 35.3564 512.521 34.4648 512.521 33.3668C512.521 32.2688 511.13 31.3772 509.417 31.3772C507.704 31.3772 506.312 32.2688 506.312 33.3668C506.312 34.4648 507.704 35.3564 509.417 35.3564Z" fill="#E5FF00"/>
<path d="M560.226 35.3564C561.939 35.3564 563.33 34.4648 563.33 33.3668C563.33 32.2688 561.939 31.3772 560.226 31.3772C558.512 31.3772 557.121 32.2688 557.121 33.3668C557.121 34.4648 558.512 35.3564 560.226 35.3564Z" fill="#E5FF00"/>
<path d="M611.035 35.0902C612.518 35.0902 613.714 34.3238 613.714 33.3732C613.714 32.4226 612.518 31.6562 611.035 31.6562C609.551 31.6562 608.355 32.4226 608.355 33.3732C608.355 34.3238 609.551 35.0902 611.035 35.0902Z" fill="#E5FF00"/>
<path d="M661.859 34.8178C663.101 34.8178 664.113 34.1694 664.113 33.3735C664.113 32.5777 663.101 31.9292 661.859 31.9292C660.617 31.9292 659.605 32.5777 659.605 33.3735C659.605 34.1694 660.617 34.8178 661.859 34.8178Z" fill="#E5FF00"/>
<path d="M712.662 34.3607C713.512 34.3607 714.214 33.9186 714.214 33.3659C714.214 32.8132 713.524 32.3711 712.662 32.3711C711.799 32.3711 711.109 32.8132 711.109 33.3659C711.109 33.9186 711.799 34.3607 712.662 34.3607Z" fill="#E5FF00"/>
<path d="M763.483 33.8226C763.874 33.8226 764.184 33.6236 764.184 33.3731C764.184 33.1225 763.874 32.9236 763.483 32.9236C763.092 32.9236 762.781 33.1225 762.781 33.3731C762.781 33.6236 763.092 33.8226 763.483 33.8226Z" fill="#E5FF00"/>
<path d="M814.294 33.4615C814.374 33.4615 814.431 33.4248 814.431 33.3733C814.431 33.3219 814.363 33.2852 814.294 33.2852C814.225 33.2852 814.156 33.3219 814.156 33.3733C814.156 33.4248 814.225 33.4615 814.294 33.4615Z" fill="#E5FF00"/>
<path d="M153.721 66.1214C153.871 66.1214 153.997 66.0403 153.997 65.9372C153.997 65.834 153.871 65.7529 153.721 65.7529C153.572 65.7529 153.434 65.834 153.434 65.9372C153.434 66.0403 153.56 66.1214 153.721 66.1214Z" fill="#E5FF00"/>
<path d="M204.521 66.6587C205.144 66.6587 205.648 66.3353 205.648 65.9365C205.648 65.5377 205.144 65.2144 204.521 65.2144C203.899 65.2144 203.395 65.5377 203.395 65.9365C203.395 66.3353 203.899 66.6587 204.521 66.6587Z" fill="#E5FF00"/>
<path d="M255.332 67.3818C256.574 67.3818 257.585 66.7333 257.585 65.9375C257.585 65.1416 256.574 64.4932 255.332 64.4932C254.09 64.4932 253.078 65.1416 253.078 65.9375C253.078 66.7333 254.09 67.3818 255.332 67.3818Z" fill="#E5FF00"/>
<path d="M306.156 68.0159C307.95 68.0159 309.399 67.0875 309.399 65.9379C309.399 64.7883 307.95 63.8599 306.156 63.8599C304.363 63.8599 302.914 64.7883 302.914 65.9379C302.914 67.0875 304.363 68.0159 306.156 68.0159Z" fill="#E5FF00"/>
<path d="M356.967 68.4643C359.14 68.4643 360.911 67.3294 360.911 65.9367C360.911 64.544 359.14 63.4092 356.967 63.4092C354.794 63.4092 353.023 64.544 353.023 65.9367C353.023 67.3294 354.794 68.4643 356.967 68.4643Z" fill="#E5FF00"/>
<path d="M407.785 68.8268C410.28 68.8268 412.292 67.5299 412.292 65.9382C412.292 64.3465 410.268 63.0496 407.785 63.0496C405.301 63.0496 403.277 64.3465 403.277 65.9382C403.277 67.5299 405.301 68.8268 407.785 68.8268Z" fill="#E5FF00"/>
<path d="M458.593 69.0979C461.318 69.0979 463.525 67.6831 463.525 65.9367C463.525 64.1902 461.318 62.7754 458.593 62.7754C455.868 62.7754 453.66 64.1902 453.66 65.9367C453.66 67.6831 455.868 69.0979 458.593 69.0979Z" fill="#E5FF00"/>
<path d="M509.41 69.1871C512.216 69.1871 514.481 67.7281 514.481 65.9374C514.481 64.1468 512.216 62.6877 509.41 62.6877C506.605 62.6877 504.34 64.1468 504.34 65.9374C504.34 67.7281 506.616 69.1871 509.41 69.1871Z" fill="#E5FF00"/>
<path d="M560.226 69.0979C562.951 69.0979 565.158 67.6831 565.158 65.9367C565.158 64.1902 562.951 62.7754 560.226 62.7754C557.501 62.7754 555.293 64.1902 555.293 65.9367C555.293 67.6831 557.501 69.0979 560.226 69.0979Z" fill="#E5FF00"/>
<path d="M611.032 68.9148C613.596 68.9148 615.677 67.581 615.677 65.9377C615.677 64.2945 613.596 62.9607 611.032 62.9607C608.468 62.9607 606.387 64.2945 606.387 65.9377C606.387 67.581 608.468 68.9148 611.032 68.9148Z" fill="#E5FF00"/>
<path d="M661.855 68.5544C664.109 68.5544 665.937 67.3828 665.937 65.9385C665.937 64.4942 664.109 63.3225 661.855 63.3225C659.602 63.3225 657.773 64.4942 657.773 65.9385C657.773 67.3828 659.602 68.5544 661.855 68.5544Z" fill="#E5FF00"/>
<path d="M712.664 68.0159C714.458 68.0159 715.907 67.0875 715.907 65.9379C715.907 64.7883 714.458 63.8599 712.664 63.8599C710.871 63.8599 709.422 64.7883 709.422 65.9379C709.422 67.0875 710.871 68.0159 712.664 68.0159Z" fill="#E5FF00"/>
<path d="M763.489 67.47C764.812 67.47 765.881 66.7847 765.881 65.9373C765.881 65.0898 764.812 64.4045 763.489 64.4045C762.167 64.4045 761.098 65.0898 761.098 65.9373C761.098 66.7847 762.167 67.47 763.489 67.47Z" fill="#E5FF00"/>
<path d="M814.292 66.7476C814.993 66.7476 815.557 66.3865 815.557 65.937C815.557 65.4875 814.993 65.1265 814.292 65.1265C813.591 65.1265 813.027 65.4875 813.027 65.937C813.027 66.3865 813.591 66.7476 814.292 66.7476Z" fill="#E5FF00"/>
<path d="M865.104 66.1214C865.253 66.1214 865.38 66.0403 865.38 65.9372C865.38 65.834 865.253 65.7529 865.104 65.7529C864.954 65.7529 864.816 65.834 864.816 65.9372C864.816 66.0403 864.943 66.1214 865.104 66.1214Z" fill="#E5FF00"/>
<path d="M102.893 98.6853C103.042 98.6853 103.169 98.6043 103.169 98.5011C103.169 98.398 103.042 98.3169 102.893 98.3169C102.743 98.3169 102.605 98.398 102.605 98.5011C102.605 98.6043 102.732 98.6853 102.893 98.6853Z" fill="#E5FF00"/>
<path d="M153.719 99.4058C154.501 99.4058 155.122 99.0005 155.122 98.4994C155.122 97.9983 154.489 97.593 153.719 97.593C152.949 97.593 152.305 97.9983 152.305 98.4994C152.305 99.0005 152.937 99.4058 153.719 99.4058Z" fill="#E5FF00"/>
<path d="M204.527 100.217C206.01 100.217 207.206 99.4505 207.206 98.4999C207.206 97.5493 206.01 96.783 204.527 96.783C203.043 96.783 201.848 97.5493 201.848 98.4999C201.848 99.4505 203.043 100.217 204.527 100.217Z" fill="#E5FF00"/>
<path d="M255.334 101.036C257.508 101.036 259.278 99.9007 259.278 98.508C259.278 97.1153 257.508 95.9805 255.334 95.9805C253.161 95.9805 251.391 97.1153 251.391 98.508C251.391 99.9007 253.161 101.036 255.334 101.036Z" fill="#E5FF00"/>
<path d="M306.159 101.663C308.884 101.663 311.092 100.249 311.092 98.5021C311.092 96.7556 308.884 95.3408 306.159 95.3408C303.434 95.3408 301.227 96.7556 301.227 98.5021C301.227 100.249 303.434 101.663 306.159 101.663Z" fill="#E5FF00"/>
<path d="M356.963 102.206C360.148 102.206 362.735 100.548 362.735 98.5066C362.735 96.4654 360.148 94.8074 356.963 94.8074C353.778 94.8074 351.191 96.4654 351.191 98.5066C351.191 100.548 353.778 102.206 356.963 102.206Z" fill="#E5FF00"/>
<path d="M407.789 102.656C411.365 102.656 414.274 100.799 414.274 98.5001C414.274 96.201 411.377 94.344 407.789 94.344C404.202 94.344 401.305 96.201 401.305 98.5001C401.305 100.799 404.202 102.656 407.789 102.656Z" fill="#E5FF00"/>
<path d="M458.594 102.93C462.411 102.93 465.493 100.947 465.493 98.501C465.493 96.0545 462.4 94.0723 458.594 94.0723C454.788 94.0723 451.684 96.0545 451.684 98.501C451.684 100.947 454.777 102.93 458.594 102.93Z" fill="#E5FF00"/>
<path d="M509.419 103.016C513.306 103.016 516.468 100.997 516.468 98.4993C516.468 96.0013 513.317 93.9822 509.419 93.9822C505.522 93.9822 502.371 96.0013 502.371 98.4993C502.371 100.997 505.522 103.016 509.419 103.016Z" fill="#E5FF00"/>
<path d="M560.223 102.93C564.04 102.93 567.122 100.947 567.122 98.501C567.122 96.0545 564.029 94.0723 560.223 94.0723C556.417 94.0723 553.312 96.0545 553.312 98.501C553.312 100.947 556.405 102.93 560.223 102.93Z" fill="#E5FF00"/>
<path d="M611.036 102.656C614.612 102.656 617.521 100.799 617.521 98.5001C617.521 96.201 614.623 94.344 611.036 94.344C607.449 94.344 604.551 96.201 604.551 98.5001C604.551 100.799 607.449 102.656 611.036 102.656Z" fill="#E5FF00"/>
<path d="M661.854 102.206C665.039 102.206 667.626 100.548 667.626 98.5066C667.626 96.4654 665.039 94.8074 661.854 94.8074C658.669 94.8074 656.082 96.4654 656.082 98.5066C656.082 100.548 658.669 102.206 661.854 102.206Z" fill="#E5FF00"/>
<path d="M712.667 101.663C715.392 101.663 717.6 100.249 717.6 98.5021C717.6 96.7556 715.392 95.3408 712.667 95.3408C709.942 95.3408 707.734 96.7556 707.734 98.5021C707.734 100.249 709.942 101.663 712.667 101.663Z" fill="#E5FF00"/>
<path d="M763.487 101.036C765.66 101.036 767.431 99.9007 767.431 98.508C767.431 97.1153 765.66 95.9805 763.487 95.9805C761.314 95.9805 759.543 97.1153 759.543 98.508C759.543 99.9007 761.314 101.036 763.487 101.036Z" fill="#E5FF00"/>
<path d="M814.293 100.312C815.846 100.312 817.111 99.5018 817.111 98.507C817.111 97.5122 815.846 96.7017 814.293 96.7017C812.741 96.7017 811.477 97.5122 811.477 98.507C811.477 99.5018 812.741 100.312 814.293 100.312Z" fill="#E5FF00"/>
<path d="M865.102 99.4058C865.884 99.4058 866.504 99.0005 866.504 98.4994C866.504 97.9983 865.872 97.593 865.102 97.593C864.331 97.593 863.688 97.9983 863.688 98.4994C863.688 99.0005 864.32 99.4058 865.102 99.4058Z" fill="#E5FF00"/>
<path d="M915.919 98.6853C916.069 98.6853 916.195 98.6043 916.195 98.5011C916.195 98.398 916.069 98.3169 915.919 98.3169C915.77 98.3169 915.632 98.398 915.632 98.5011C915.632 98.6043 915.758 98.6853 915.919 98.6853Z" fill="#E5FF00"/>
<path d="M52.0829 131.159C52.1632 131.159 52.2205 131.122 52.2205 131.071C52.2205 131.019 52.1517 130.982 52.0829 130.982C52.0141 130.982 51.9453 131.019 51.9453 131.071C51.9453 131.122 52.0141 131.159 52.0829 131.159Z" fill="#E5FF00"/>
<path d="M102.896 131.793C103.517 131.793 104.023 131.469 104.023 131.071C104.023 130.673 103.517 130.349 102.896 130.349C102.275 130.349 101.77 130.673 101.77 131.071C101.77 131.469 102.275 131.793 102.896 131.793Z" fill="#E5FF00"/>
<path d="M153.718 132.789C155.201 132.789 156.397 132.022 156.397 131.072C156.397 130.121 155.201 129.355 153.718 129.355C152.235 129.355 151.039 130.121 151.039 131.072C151.039 132.022 152.235 132.789 153.718 132.789Z" fill="#E5FF00"/>
<path d="M204.527 133.686C206.781 133.686 208.609 132.515 208.609 131.07C208.609 129.626 206.781 128.454 204.527 128.454C202.273 128.454 200.445 129.626 200.445 131.07C200.445 132.515 202.273 133.686 204.527 133.686Z" fill="#E5FF00"/>
<path d="M255.339 134.505C258.294 134.505 260.697 132.972 260.697 131.071C260.697 129.169 258.294 127.637 255.339 127.637C252.384 127.637 249.98 129.169 249.98 131.071C249.98 132.972 252.384 134.505 255.339 134.505Z" fill="#E5FF00"/>
<path d="M306.153 135.228C309.729 135.228 312.638 133.371 312.638 131.072C312.638 128.772 309.74 126.916 306.153 126.916C302.565 126.916 299.668 128.772 299.668 131.072C299.668 133.371 302.565 135.228 306.153 135.228Z" fill="#E5FF00"/>
<path d="M356.966 135.853C361.094 135.853 364.439 133.709 364.439 131.063C364.439 128.418 361.094 126.281 356.966 126.281C352.838 126.281 349.492 128.425 349.492 131.063C349.492 133.702 352.838 135.853 356.966 135.853Z" fill="#E5FF00"/>
<path d="M407.782 136.399C412.369 136.399 416.095 134.012 416.095 131.071C416.095 128.131 412.369 125.744 407.782 125.744C403.194 125.744 399.469 128.131 399.469 131.071C399.469 134.012 403.194 136.399 407.782 136.399Z" fill="#E5FF00"/>
<path d="M458.594 136.672C463.423 136.672 467.332 134.166 467.332 131.071C467.332 127.976 463.423 125.471 458.594 125.471C453.765 125.471 449.855 127.976 449.855 131.071C449.855 134.166 453.765 136.672 458.594 136.672Z" fill="#E5FF00"/>
<path d="M509.415 136.759C514.314 136.759 518.292 134.21 518.292 131.071C518.292 127.931 514.314 125.382 509.415 125.382C504.517 125.382 500.539 127.931 500.539 131.071C500.539 134.21 504.517 136.759 509.415 136.759Z" fill="#E5FF00"/>
<path d="M560.227 136.672C565.056 136.672 568.965 134.166 568.965 131.071C568.965 127.976 565.056 125.471 560.227 125.471C555.398 125.471 551.488 127.976 551.488 131.071C551.488 134.166 555.398 136.672 560.227 136.672Z" fill="#E5FF00"/>
<path d="M611.032 136.399C615.619 136.399 619.345 134.012 619.345 131.071C619.345 128.131 615.619 125.744 611.032 125.744C606.444 125.744 602.719 128.131 602.719 131.071C602.719 134.012 606.444 136.399 611.032 136.399Z" fill="#E5FF00"/>
<path d="M661.854 135.95C666.051 135.95 669.465 133.769 669.465 131.072C669.465 128.375 666.062 126.193 661.854 126.193C657.646 126.193 654.242 128.375 654.242 131.072C654.242 133.769 657.646 135.95 661.854 135.95Z" fill="#E5FF00"/>
<path d="M712.666 135.316C716.322 135.316 719.289 133.414 719.289 131.071C719.289 128.728 716.322 126.827 712.666 126.827C709.009 126.827 706.043 128.728 706.043 131.071C706.043 133.414 709.009 135.316 712.666 135.316Z" fill="#E5FF00"/>
<path d="M763.484 134.593C766.52 134.593 768.98 133.016 768.98 131.07C768.98 129.125 766.52 127.548 763.484 127.548C760.449 127.548 757.988 129.125 757.988 131.07C757.988 133.016 760.449 134.593 763.484 134.593Z" fill="#E5FF00"/>
<path d="M814.294 133.783C816.628 133.783 818.525 132.567 818.525 131.071C818.525 129.575 816.628 128.359 814.294 128.359C811.96 128.359 810.062 129.575 810.062 131.071C810.062 132.567 811.96 133.783 814.294 133.783Z" fill="#E5FF00"/>
<path d="M865.106 132.876C866.658 132.876 867.923 132.066 867.923 131.071C867.923 130.076 866.658 129.266 865.106 129.266C863.554 129.266 862.289 130.076 862.289 131.071C862.289 132.066 863.554 132.876 865.106 132.876Z" fill="#E5FF00"/>
<path d="M915.928 131.881C916.629 131.881 917.193 131.52 917.193 131.07C917.193 130.621 916.629 130.26 915.928 130.26C915.226 130.26 914.663 130.621 914.663 131.07C914.663 131.52 915.226 131.881 915.928 131.881Z" fill="#E5FF00"/>
<path d="M966.738 131.159C966.818 131.159 966.876 131.122 966.876 131.071C966.876 131.019 966.807 130.982 966.738 130.982C966.669 130.982 966.601 131.019 966.601 131.071C966.601 131.122 966.669 131.159 966.738 131.159Z" fill="#E5FF00"/>
<path d="M52.0881 164.091C52.479 164.091 52.7895 163.892 52.7895 163.641C52.7895 163.391 52.479 163.192 52.0881 163.192C51.6971 163.192 51.3867 163.391 51.3867 163.641C51.3867 163.892 51.6971 164.091 52.0881 164.091Z" fill="#E5FF00"/>
<path d="M102.898 165.08C104.14 165.08 105.152 164.432 105.152 163.636C105.152 162.84 104.14 162.191 102.898 162.191C101.656 162.191 100.645 162.84 100.645 163.636C100.645 164.432 101.656 165.08 102.898 165.08Z" fill="#E5FF00"/>
<path d="M153.717 166.169C155.89 166.169 157.661 165.034 157.661 163.641C157.661 162.248 155.89 161.114 153.717 161.114C151.544 161.114 149.773 162.248 149.773 163.641C149.773 165.034 151.544 166.169 153.717 166.169Z" fill="#E5FF00"/>
<path d="M204.526 167.069C207.481 167.069 209.884 165.536 209.884 163.635C209.884 161.734 207.481 160.201 204.526 160.201C201.571 160.201 199.168 161.734 199.168 163.635C199.168 165.536 201.571 167.069 204.526 167.069Z" fill="#E5FF00"/>
<path d="M255.335 167.975C259.072 167.975 262.096 166.037 262.096 163.642C262.096 161.247 259.072 159.309 255.335 159.309C251.598 159.309 248.574 161.247 248.574 163.642C248.574 166.037 251.598 167.975 255.335 167.975Z" fill="#E5FF00"/>
<path d="M306.156 168.873C310.674 168.873 314.331 166.529 314.331 163.633C314.331 160.737 310.674 158.394 306.156 158.394C301.637 158.394 297.98 160.737 297.98 163.633C297.98 166.529 301.637 168.873 306.156 168.873Z" fill="#E5FF00"/>
<path d="M356.965 169.507C362.024 169.507 366.128 166.876 366.128 163.634C366.128 160.391 362.024 157.76 356.965 157.76C351.906 157.76 347.801 160.391 347.801 163.634C347.801 166.876 351.906 169.507 356.965 169.507Z" fill="#E5FF00"/>
<path d="M407.784 170.045C413.315 170.045 417.788 167.171 417.788 163.634C417.788 160.097 413.315 157.223 407.784 157.223C402.254 157.223 397.781 160.097 397.781 163.634C397.781 167.171 402.254 170.045 407.784 170.045Z" fill="#E5FF00"/>
<path d="M458.594 170.406C464.435 170.406 469.161 167.377 469.161 163.634C469.161 159.89 464.423 156.862 458.594 156.862C452.764 156.862 448.027 159.89 448.027 163.634C448.027 167.377 452.764 170.406 458.594 170.406Z" fill="#E5FF00"/>
<path d="M509.417 170.59C515.407 170.59 520.271 167.48 520.271 163.634C520.271 159.787 515.418 156.677 509.417 156.677C503.415 156.677 498.562 159.787 498.562 163.634C498.562 167.48 503.415 170.59 509.417 170.59Z" fill="#E5FF00"/>
<path d="M560.224 170.504C566.134 170.504 570.929 167.431 570.929 163.643C570.929 159.856 566.134 156.783 560.224 156.783C554.314 156.783 549.52 159.856 549.52 163.643C549.52 167.431 554.314 170.504 560.224 170.504Z" fill="#E5FF00"/>
<path d="M611.036 170.14C616.635 170.14 621.177 167.229 621.177 163.64C621.177 160.052 616.635 157.141 611.036 157.141C605.436 157.141 600.895 160.052 600.895 163.64C600.895 167.229 605.436 170.14 611.036 170.14Z" fill="#E5FF00"/>
<path d="M670.385 165.88C672.341 162.836 670.075 159.351 665.325 158.098C660.575 156.844 655.138 158.296 653.182 161.34C651.226 164.385 653.492 167.869 658.242 169.123C662.992 170.376 668.429 168.924 670.385 165.88Z" fill="#E5FF00"/>
<path d="M712.663 168.873C717.182 168.873 720.838 166.529 720.838 163.633C720.838 160.737 717.182 158.394 712.663 158.394C708.145 158.394 704.488 160.737 704.488 163.633C704.488 166.529 708.145 168.873 712.663 168.873Z" fill="#E5FF00"/>
<path d="M763.484 168.062C767.302 168.062 770.383 166.079 770.383 163.633C770.383 161.186 767.29 159.204 763.484 159.204C759.679 159.204 756.574 161.186 756.574 163.633C756.574 166.079 759.667 168.062 763.484 168.062Z" fill="#E5FF00"/>
<path d="M814.297 167.158C817.332 167.158 819.793 165.581 819.793 163.636C819.793 161.69 817.332 160.113 814.297 160.113C811.261 160.113 808.801 161.69 808.801 163.636C808.801 165.581 811.261 167.158 814.297 167.158Z" fill="#E5FF00"/>
<path d="M865.104 166.169C867.277 166.169 869.048 165.034 869.048 163.641C869.048 162.248 867.277 161.114 865.104 161.114C862.931 161.114 861.16 162.248 861.16 163.641C861.16 165.034 862.931 166.169 865.104 166.169Z" fill="#E5FF00"/>
<path d="M915.926 165.174C917.248 165.174 918.317 164.489 918.317 163.642C918.317 162.794 917.248 162.109 915.926 162.109C914.603 162.109 913.534 162.794 913.534 163.642C913.534 164.489 914.603 165.174 915.926 165.174Z" fill="#E5FF00"/>
<path d="M966.728 164.091C967.119 164.091 967.429 163.892 967.429 163.641C967.429 163.391 967.119 163.192 966.728 163.192C966.337 163.192 966.026 163.391 966.026 163.641C966.026 163.892 966.337 164.091 966.728 164.091Z" fill="#E5FF00"/>
<path d="M1.26654 196.293C1.34681 196.293 1.40414 196.256 1.40414 196.204C1.40414 196.153 1.33534 196.116 1.26654 196.116C1.19774 196.116 1.12891 196.153 1.12891 196.204C1.12891 196.256 1.19774 196.293 1.26654 196.293Z" fill="#E5FF00"/>
<path d="M52.0861 197.103C52.868 197.103 53.4888 196.698 53.4888 196.196C53.4888 195.695 52.8565 195.29 52.0861 195.29C51.3157 195.29 50.6719 195.695 50.6719 196.196C50.6719 196.698 51.3042 197.103 52.0861 197.103Z" fill="#E5FF00"/>
<path d="M102.895 198.283C104.688 198.283 106.137 197.355 106.137 196.205C106.137 195.055 104.688 194.127 102.895 194.127C101.101 194.127 99.6523 195.055 99.6523 196.205C99.6523 197.355 101.101 198.283 102.895 198.283Z" fill="#E5FF00"/>
<path d="M153.714 199.366C156.439 199.366 158.646 197.952 158.646 196.205C158.646 194.459 156.439 193.044 153.714 193.044C150.989 193.044 148.781 194.459 148.781 196.205C148.781 197.952 150.989 199.366 153.714 199.366Z" fill="#E5FF00"/>
<path d="M204.524 200.355C208.1 200.355 211.009 198.498 211.009 196.199C211.009 193.899 208.111 192.042 204.524 192.042C200.937 192.042 198.039 193.899 198.039 196.199C198.039 198.498 200.937 200.355 204.524 200.355Z" fill="#E5FF00"/>
<path d="M255.335 201.445C259.854 201.445 263.51 199.102 263.51 196.206C263.51 193.31 259.854 190.967 255.335 190.967C250.816 190.967 247.16 193.31 247.16 196.206C247.16 199.102 250.816 201.445 255.335 201.445Z" fill="#E5FF00"/>
<path d="M306.16 202.344C311.449 202.344 315.738 199.596 315.738 196.206C315.738 192.816 311.449 190.068 306.16 190.068C300.871 190.068 296.582 192.816 296.582 196.206C296.582 199.596 300.871 202.344 306.16 202.344Z" fill="#E5FF00"/>
<path d="M356.963 203.154C362.954 203.154 367.817 200.044 367.817 196.198C367.817 192.351 362.965 189.241 356.963 189.241C350.962 189.241 346.109 192.351 346.109 196.198C346.109 200.044 350.962 203.154 356.963 203.154Z" fill="#E5FF00"/>
<path d="M407.784 203.787C414.315 203.787 419.616 200.39 419.616 196.204C419.616 192.019 414.315 188.622 407.784 188.622C401.254 188.622 395.953 192.019 395.953 196.204C395.953 200.39 401.254 203.787 407.784 203.787Z" fill="#E5FF00"/>
<path d="M458.595 204.237C465.517 204.237 471.139 200.641 471.139 196.198C471.139 191.754 465.528 188.158 458.595 188.158C451.662 188.158 446.051 191.754 446.051 196.198C446.051 200.641 451.662 204.237 458.595 204.237Z" fill="#E5FF00"/>
<path d="M514.149 203.76C520.648 202.086 523.799 197.352 521.186 193.187C518.574 189.022 511.188 187.003 504.689 188.678C498.19 190.352 495.04 195.086 497.652 199.251C500.265 203.416 507.651 205.435 514.149 203.76Z" fill="#E5FF00"/>
<path d="M560.228 204.237C567.15 204.237 572.772 200.641 572.772 196.198C572.772 191.754 567.161 188.158 560.228 188.158C553.295 188.158 547.684 191.754 547.684 196.198C547.684 200.641 553.295 204.237 560.228 204.237Z" fill="#E5FF00"/>
<path d="M611.031 203.787C617.561 203.787 622.862 200.39 622.862 196.204C622.862 192.019 617.561 188.622 611.031 188.622C604.5 188.622 599.199 192.019 599.199 196.204C599.199 200.39 604.5 203.787 611.031 203.787Z" fill="#E5FF00"/>
<path d="M661.858 203.154C667.848 203.154 672.712 200.044 672.712 196.198C672.712 192.351 667.86 189.241 661.858 189.241C655.856 189.241 651.004 192.351 651.004 196.198C651.004 200.044 655.856 203.154 661.858 203.154Z" fill="#E5FF00"/>
<path d="M712.663 202.344C717.952 202.344 722.241 199.596 722.241 196.206C722.241 192.816 717.952 190.068 712.663 190.068C707.374 190.068 703.086 192.816 703.086 196.206C703.086 199.596 707.374 202.344 712.663 202.344Z" fill="#E5FF00"/>
<path d="M763.484 201.445C768.002 201.445 771.659 199.102 771.659 196.206C771.659 193.31 768.002 190.967 763.484 190.967C758.965 190.967 755.309 193.31 755.309 196.206C755.309 199.102 758.965 201.445 763.484 201.445Z" fill="#E5FF00"/>
<path d="M814.299 200.449C817.955 200.449 820.921 198.548 820.921 196.204C820.921 193.861 817.955 191.96 814.299 191.96C810.642 191.96 807.676 193.861 807.676 196.204C807.676 198.548 810.642 200.449 814.299 200.449Z" fill="#E5FF00"/>
<path d="M865.102 199.454C867.907 199.454 870.172 197.995 870.172 196.205C870.172 194.414 867.907 192.955 865.102 192.955C862.296 192.955 860.031 194.414 860.031 196.205C860.031 197.995 862.308 199.454 865.102 199.454Z" fill="#E5FF00"/>
<path d="M915.922 198.37C917.785 198.37 919.303 197.397 919.303 196.203C919.303 195.01 917.785 194.037 915.922 194.037C914.06 194.037 912.542 195.01 912.542 196.203C912.542 197.397 914.06 198.37 915.922 198.37Z" fill="#E5FF00"/>
<path d="M966.735 197.2C967.586 197.2 968.287 196.757 968.287 196.205C968.287 195.652 967.597 195.21 966.735 195.21C965.873 195.21 965.183 195.652 965.183 196.205C965.183 196.757 965.873 197.2 966.735 197.2Z" fill="#E5FF00"/>
<path d="M1017.55 196.293C1017.63 196.293 1017.69 196.256 1017.69 196.204C1017.69 196.153 1017.62 196.116 1017.55 196.116C1017.49 196.116 1017.42 196.153 1017.42 196.204C1017.42 196.256 1017.49 196.293 1017.55 196.293Z" fill="#E5FF00"/>
<path d="M1.2692 229.04C1.49916 229.04 1.69462 228.923 1.69462 228.768C1.69462 228.613 1.49916 228.495 1.2692 228.495C1.03924 228.495 0.84375 228.613 0.84375 228.768C0.84375 228.923 1.02775 229.04 1.2692 229.04Z" fill="#E5FF00"/>
<path d="M52.0883 230.124C53.2496 230.124 54.2039 229.52 54.2039 228.768C54.2039 228.016 53.2611 227.412 52.0883 227.412C50.9155 227.412 49.9727 228.016 49.9727 228.768C49.9727 229.52 50.9155 230.124 52.0883 230.124Z" fill="#E5FF00"/>
<path d="M102.893 231.295C105.066 231.295 106.837 230.16 106.837 228.768C106.837 227.375 105.066 226.24 102.893 226.24C100.72 226.24 98.9492 227.375 98.9492 228.768C98.9492 230.16 100.72 231.295 102.893 231.295Z" fill="#E5FF00"/>
<path d="M153.717 232.476C156.902 232.476 159.489 230.818 159.489 228.776C159.489 226.735 156.902 225.077 153.717 225.077C150.532 225.077 147.945 226.735 147.945 228.776C147.945 230.818 150.532 232.476 153.717 232.476Z" fill="#E5FF00"/>
<path d="M204.524 233.556C208.652 233.556 211.998 231.412 211.998 228.774C211.998 226.136 208.652 223.984 204.524 223.984C200.397 223.984 197.051 226.128 197.051 228.774C197.051 231.419 200.397 233.556 204.524 233.556Z" fill="#E5FF00"/>
<path d="M255.336 234.642C260.395 234.642 264.5 232.011 264.5 228.769C264.5 225.527 260.395 222.896 255.336 222.896C250.277 222.896 246.172 225.527 246.172 228.769C246.172 232.011 250.277 234.642 255.336 234.642Z" fill="#E5FF00"/>
<path d="M306.159 235.723C312.149 235.723 317.013 232.613 317.013 228.767C317.013 224.92 312.161 221.811 306.159 221.811C300.157 221.811 295.305 224.92 295.305 228.767C295.305 232.613 300.157 235.723 306.159 235.723Z" fill="#E5FF00"/>
<path d="M356.968 236.622C363.74 236.622 369.225 233.107 369.225 228.767C369.225 224.427 363.74 220.912 356.968 220.912C350.195 220.912 344.711 224.427 344.711 228.767C344.711 233.107 350.195 236.622 356.968 236.622Z" fill="#E5FF00"/>
<path d="M407.787 237.441C415.261 237.441 421.309 233.557 421.309 228.775C421.309 223.993 415.249 220.109 407.787 220.109C400.325 220.109 394.254 223.993 394.254 228.775C394.254 233.557 400.313 237.441 407.787 237.441Z" fill="#E5FF00"/>
<path d="M458.599 237.98C466.533 237.98 472.971 233.854 472.971 228.769C472.971 223.685 466.533 219.558 458.599 219.558C450.665 219.558 444.227 223.685 444.227 228.769C444.227 233.854 450.665 237.98 458.599 237.98Z" fill="#E5FF00"/>
<path d="M509.418 238.163C517.512 238.163 524.066 233.955 524.066 228.775C524.066 223.594 517.501 219.387 509.418 219.387C501.335 219.387 494.758 223.594 494.758 228.775C494.758 233.955 501.323 238.163 509.418 238.163Z" fill="#E5FF00"/>
<path d="M560.224 237.98C568.158 237.98 574.596 233.854 574.596 228.769C574.596 223.685 568.158 219.558 560.224 219.558C552.29 219.558 545.852 223.685 545.852 228.769C545.852 233.854 552.29 237.98 560.224 237.98Z" fill="#E5FF00"/>
<path d="M611.037 237.441C618.511 237.441 624.559 233.557 624.559 228.775C624.559 223.993 618.499 220.109 611.037 220.109C603.575 220.109 597.504 223.993 597.504 228.775C597.504 233.557 603.563 237.441 611.037 237.441Z" fill="#E5FF00"/>
<path d="M661.852 236.72C668.705 236.72 674.247 233.161 674.247 228.776C674.247 224.392 668.693 220.833 661.852 220.833C655.011 220.833 649.457 224.392 649.457 228.776C649.457 233.161 655.011 236.72 661.852 236.72Z" fill="#E5FF00"/>
<path d="M712.663 235.723C718.653 235.723 723.517 232.613 723.517 228.767C723.517 224.92 718.664 221.811 712.663 221.811C706.661 221.811 701.809 224.92 701.809 228.767C701.809 232.613 706.661 235.723 712.663 235.723Z" fill="#E5FF00"/>
<path d="M763.481 234.73C768.619 234.73 772.783 232.061 772.783 228.769C772.783 225.476 768.619 222.807 763.481 222.807C758.344 222.807 754.18 225.476 754.18 228.769C754.18 232.061 758.344 234.73 763.481 234.73Z" fill="#E5FF00"/>
<path d="M814.295 233.647C818.492 233.647 821.907 231.465 821.907 228.768C821.907 226.071 818.503 223.89 814.295 223.89C810.087 223.89 806.684 226.071 806.684 228.768C806.684 231.465 810.087 233.647 814.295 233.647Z" fill="#E5FF00"/>
<path d="M865.105 232.563C868.37 232.563 871.027 230.868 871.027 228.768C871.027 226.668 868.382 224.973 865.105 224.973C861.828 224.973 859.184 226.668 859.184 228.768C859.184 230.868 861.828 232.563 865.105 232.563Z" fill="#E5FF00"/>
<path d="M915.921 231.392C918.174 231.392 920.002 230.22 920.002 228.776C920.002 227.332 918.174 226.16 915.921 226.16C913.667 226.16 911.839 227.332 911.839 228.776C911.839 230.22 913.667 231.392 915.921 231.392Z" fill="#E5FF00"/>
<path d="M966.733 230.211C967.975 230.211 968.987 229.562 968.987 228.766C968.987 227.97 967.975 227.322 966.733 227.322C965.491 227.322 964.479 227.97 964.479 228.766C964.479 229.562 965.491 230.211 966.733 230.211Z" fill="#E5FF00"/>
<path d="M1017.56 229.13C1017.87 229.13 1018.12 228.968 1018.12 228.769C1018.12 228.57 1017.87 228.407 1017.56 228.407C1017.25 228.407 1017 228.57 1017 228.769C1017 228.968 1017.25 229.13 1017.56 229.13Z" fill="#E5FF00"/>
<path d="M1.26103 261.877C1.73244 261.877 2.11186 261.634 2.11186 261.331C2.11186 261.029 1.73244 260.786 1.26103 260.786C0.789612 260.786 0.410156 261.029 0.410156 261.331C0.410156 261.634 0.789612 261.877 1.26103 261.877Z" fill="#E5FF00"/>
<path d="M52.0853 263.048C53.5685 263.048 54.7643 262.282 54.7643 261.331C54.7643 260.381 53.5685 259.614 52.0853 259.614C50.602 259.614 49.4062 260.381 49.4062 261.331C49.4062 262.282 50.602 263.048 52.0853 263.048Z" fill="#E5FF00"/>
<path d="M102.894 264.226C105.389 264.226 107.401 262.929 107.401 261.337C107.401 259.746 105.377 258.449 102.894 258.449C100.41 258.449 98.3867 259.746 98.3867 261.337C98.3867 262.929 100.41 264.226 102.894 264.226Z" fill="#E5FF00"/>
<path d="M153.719 265.487C157.295 265.487 160.204 263.63 160.204 261.331C160.204 259.032 157.307 257.175 153.719 257.175C150.132 257.175 147.234 259.032 147.234 261.331C147.234 263.63 150.132 265.487 153.719 265.487Z" fill="#E5FF00"/>
<path d="M204.52 266.668C209.108 266.668 212.833 264.28 212.833 261.34C212.833 258.4 209.108 256.012 204.52 256.012C199.932 256.012 196.207 258.4 196.207 261.34C196.207 264.28 199.932 266.668 204.52 266.668Z" fill="#E5FF00"/>
<path d="M255.331 267.75C260.862 267.75 265.335 264.876 265.335 261.339C265.335 257.802 260.862 254.928 255.331 254.928C249.801 254.928 245.328 257.802 245.328 261.339C245.328 264.876 249.801 267.75 255.331 267.75Z" fill="#E5FF00"/>
<path d="M306.156 268.921C312.687 268.921 317.987 265.524 317.987 261.339C317.987 257.153 312.687 253.756 306.156 253.756C299.625 253.756 294.324 257.153 294.324 261.339C294.324 265.524 299.625 268.921 306.156 268.921Z" fill="#E5FF00"/>
<path d="M356.963 270.006C364.436 270.006 370.484 266.123 370.484 261.34C370.484 256.558 364.425 252.674 356.963 252.674C349.501 252.674 343.43 256.558 343.43 261.34C343.43 266.123 349.489 270.006 356.963 270.006Z" fill="#E5FF00"/>
<path d="M407.787 270.91C416.031 270.91 422.723 266.621 422.723 261.337C422.723 256.054 416.031 251.765 407.787 251.765C399.543 251.765 392.852 256.054 392.852 261.337C392.852 266.621 399.543 270.91 407.787 270.91Z" fill="#E5FF00"/>
<path d="M458.594 271.634C467.47 271.634 474.656 267.029 474.656 261.34C474.656 255.651 467.47 251.046 458.594 251.046C449.717 251.046 442.531 255.651 442.531 261.34C442.531 267.029 449.717 271.634 458.594 271.634Z" fill="#E5FF00"/>
<path d="M509.415 271.995C518.602 271.995 526.041 267.227 526.041 261.339C526.041 255.451 518.602 250.684 509.415 250.684C500.228 250.684 492.789 255.451 492.789 261.339C492.789 267.227 500.228 271.995 509.415 271.995Z" fill="#E5FF00"/>
<path d="M560.228 271.721C569.173 271.721 576.429 267.071 576.429 261.338C576.429 255.605 569.173 250.955 560.228 250.955C551.282 250.955 544.027 255.605 544.027 261.338C544.027 267.071 551.282 271.721 560.228 271.721Z" fill="#E5FF00"/>
<path d="M611.035 271C619.359 271 626.108 266.675 626.108 261.34C626.108 256.005 619.359 251.679 611.035 251.679C602.71 251.679 595.961 256.005 595.961 261.34C595.961 266.675 602.71 271 611.035 271Z" fill="#E5FF00"/>
<path d="M661.853 270.006C669.327 270.006 675.375 266.123 675.375 261.34C675.375 256.558 669.316 252.674 661.853 252.674C654.391 252.674 648.32 256.558 648.32 261.34C648.32 266.123 654.38 270.006 661.853 270.006Z" fill="#E5FF00"/>
<path d="M712.664 269.01C719.276 269.01 724.645 265.576 724.645 261.332C724.645 257.087 719.287 253.653 712.664 253.653C706.042 253.653 700.684 257.087 700.684 261.332C700.684 265.576 706.042 269.01 712.664 269.01Z" fill="#E5FF00"/>
<path d="M763.489 267.838C769.088 267.838 773.63 264.927 773.63 261.339C773.63 257.75 769.088 254.839 763.489 254.839C757.889 254.839 753.348 257.75 753.348 261.339C753.348 264.927 757.889 267.838 763.489 267.838Z" fill="#E5FF00"/>
<path d="M814.295 266.754C818.963 266.754 822.746 264.33 822.746 261.338C822.746 258.346 818.963 255.922 814.295 255.922C809.627 255.922 805.844 258.346 805.844 261.338C805.844 264.33 809.627 266.754 814.295 266.754Z" fill="#E5FF00"/>
<path d="M865.102 265.487C868.678 265.487 871.587 263.63 871.587 261.331C871.587 259.032 868.689 257.175 865.102 257.175C861.515 257.175 858.617 259.032 858.617 261.331C858.617 263.63 861.515 265.487 865.102 265.487Z" fill="#E5FF00"/>
<path d="M915.922 264.316C918.486 264.316 920.567 262.982 920.567 261.339C920.567 259.696 918.486 258.362 915.922 258.362C913.358 258.362 911.276 259.696 911.276 261.339C911.276 262.982 913.358 264.316 915.922 264.316Z" fill="#E5FF00"/>
<path d="M966.738 263.143C968.29 263.143 969.555 262.333 969.555 261.338C969.555 260.343 968.29 259.533 966.738 259.533C965.186 259.533 963.921 260.343 963.921 261.338C963.921 262.333 965.186 263.143 966.738 263.143Z" fill="#E5FF00"/>
<path d="M1017.55 261.965C1018.09 261.965 1018.54 261.685 1018.54 261.331C1018.54 260.978 1018.1 260.698 1017.55 260.698C1017 260.698 1016.56 260.978 1016.56 261.331C1016.56 261.685 1017 261.965 1017.55 261.965Z" fill="#E5FF00"/>
<path d="M1.26353 294.624C1.88584 294.624 2.3903 294.301 2.3903 293.902C2.3903 293.503 1.88584 293.18 1.26353 293.18C0.641216 293.18 0.136719 293.503 0.136719 293.902C0.136719 294.301 0.641216 294.624 1.26353 294.624Z" fill="#E5FF00"/>
<path d="M52.0839 295.796C53.7166 295.796 55.0389 294.948 55.0389 293.902C55.0389 292.855 53.7166 292.008 52.0839 292.008C50.4512 292.008 49.1289 292.855 49.1289 293.902C49.1289 294.948 50.4512 295.796 52.0839 295.796Z" fill="#E5FF00"/>
<path d="M102.897 297.064C105.622 297.064 107.83 295.649 107.83 293.902C107.83 292.156 105.622 290.741 102.897 290.741C100.172 290.741 97.9648 292.156 97.9648 293.902C97.9648 295.649 100.172 297.064 102.897 297.064Z" fill="#E5FF00"/>
<path d="M153.715 298.331C157.532 298.331 160.614 296.349 160.614 293.903C160.614 291.456 157.521 289.474 153.715 289.474C149.909 289.474 146.805 291.456 146.805 293.903C146.805 296.349 149.898 298.331 153.715 298.331Z" fill="#E5FF00"/>
<path d="M204.524 299.503C209.353 299.503 213.262 296.997 213.262 293.902C213.262 290.807 209.353 288.302 204.524 288.302C199.694 288.302 195.785 290.807 195.785 293.902C195.785 296.997 199.694 299.503 204.524 299.503Z" fill="#E5FF00"/>
<path d="M255.34 300.675C261.181 300.675 265.907 297.647 265.907 293.903C265.907 290.16 261.169 287.131 255.34 287.131C249.511 287.131 244.773 290.16 244.773 293.903C244.773 297.647 249.511 300.675 255.34 300.675Z" fill="#E5FF00"/>
<path d="M306.154 301.941C313.075 301.941 318.698 298.345 318.698 293.901C318.698 289.458 313.087 285.862 306.154 285.862C299.22 285.862 293.609 289.458 293.609 293.901C293.609 298.345 299.22 301.941 306.154 301.941Z" fill="#E5FF00"/>
<path d="M356.966 303.115C364.9 303.115 371.339 298.988 371.339 293.904C371.339 288.819 364.9 284.693 356.966 284.693C349.033 284.693 342.594 288.819 342.594 293.904C342.594 298.988 349.033 303.115 356.966 303.115Z" fill="#E5FF00"/>
<path d="M407.785 304.196C416.662 304.196 423.848 299.59 423.848 293.902C423.848 288.213 416.662 283.607 407.785 283.607C398.909 283.607 391.723 288.213 391.723 293.902C391.723 299.59 398.909 304.196 407.785 304.196Z" fill="#E5FF00"/>
<path d="M458.595 305.191C468.323 305.191 476.21 300.136 476.21 293.902C476.21 287.668 468.323 282.613 458.595 282.613C448.868 282.613 440.98 287.668 440.98 293.902C440.98 300.136 448.868 305.191 458.595 305.191Z" fill="#E5FF00"/>
<path d="M509.419 305.729C519.618 305.729 527.873 300.431 527.873 293.902C527.873 287.373 519.606 282.075 509.419 282.075C499.232 282.075 490.965 287.373 490.965 293.902C490.965 300.431 499.232 305.729 509.419 305.729Z" fill="#E5FF00"/>
<path d="M560.222 305.279C570.029 305.279 577.974 300.187 577.974 293.902C577.974 287.616 570.029 282.524 560.222 282.524C550.414 282.524 542.469 287.616 542.469 293.902C542.469 300.187 550.414 305.279 560.222 305.279Z" fill="#E5FF00"/>
<path d="M611.037 304.285C619.982 304.285 627.237 299.635 627.237 293.902C627.237 288.169 619.982 283.52 611.037 283.52C602.091 283.52 594.836 288.169 594.836 293.902C594.836 299.635 602.091 304.285 611.037 304.285Z" fill="#E5FF00"/>
<path d="M661.862 303.202C669.876 303.202 676.372 299.038 676.372 293.902C676.372 288.766 669.876 284.603 661.862 284.603C653.848 284.603 647.352 288.766 647.352 293.902C647.352 299.038 653.848 303.202 661.862 303.202Z" fill="#E5FF00"/>
<path d="M712.666 302.03C719.671 302.03 725.349 298.391 725.349 293.902C725.349 289.413 719.671 285.774 712.666 285.774C705.662 285.774 699.984 289.413 699.984 293.902C699.984 298.391 705.662 302.03 712.666 302.03Z" fill="#E5FF00"/>
<path d="M763.486 300.762C769.396 300.762 774.19 297.69 774.19 293.902C774.19 290.114 769.396 287.042 763.486 287.042C757.576 287.042 752.781 290.114 752.781 293.902C752.781 297.69 757.576 300.762 763.486 300.762Z" fill="#E5FF00"/>
<path d="M814.294 299.591C819.192 299.591 823.171 297.041 823.171 293.902C823.171 290.763 819.192 288.213 814.294 288.213C809.396 288.213 805.418 290.763 805.418 293.902C805.418 297.041 809.396 299.591 814.294 299.591Z" fill="#E5FF00"/>
<path d="M865.106 298.331C868.923 298.331 872.004 296.349 872.004 293.903C872.004 291.456 868.911 289.474 865.106 289.474C861.3 289.474 858.195 291.456 858.195 293.903C858.195 296.349 861.288 298.331 865.106 298.331Z" fill="#E5FF00"/>
<path d="M915.929 297.152C918.735 297.152 921 295.693 921 293.902C921 292.111 918.735 290.652 915.929 290.652C913.124 290.652 910.858 292.111 910.858 293.902C910.858 295.693 913.135 297.152 915.929 297.152Z" fill="#E5FF00"/>
<path d="M966.729 295.892C968.442 295.892 969.833 295.001 969.833 293.903C969.833 292.805 968.442 291.913 966.729 291.913C965.015 291.913 963.624 292.805 963.624 293.903C963.624 295.001 965.015 295.892 966.729 295.892Z" fill="#E5FF00"/>
<path d="M1017.56 294.712C1018.26 294.712 1018.82 294.351 1018.82 293.902C1018.82 293.452 1018.26 293.091 1017.56 293.091C1016.86 293.091 1016.29 293.452 1016.29 293.902C1016.29 294.351 1016.86 294.712 1017.56 294.712Z" fill="#E5FF00"/>
<path d="M1.26478 327.283C1.96615 327.283 2.52952 326.921 2.52952 326.472C2.52952 326.022 1.96615 325.661 1.26478 325.661C0.563406 325.661 0 326.022 0 326.472C0 326.921 0.563406 327.283 1.26478 327.283Z" fill="#E5FF00"/>
<path d="M52.0849 328.453C53.7981 328.453 55.1893 327.562 55.1893 326.464C55.1893 325.366 53.7981 324.474 52.0849 324.474C50.3717 324.474 48.9805 325.366 48.9805 326.464C48.9805 327.562 50.3717 328.453 52.0849 328.453Z" fill="#E5FF00"/>
<path d="M102.891 329.722C105.696 329.722 107.961 328.262 107.961 326.472C107.961 324.681 105.696 323.222 102.891 323.222C100.085 323.222 97.8203 324.681 97.8203 326.472C97.8203 328.262 100.097 329.722 102.891 329.722Z" fill="#E5FF00"/>
<path d="M153.712 330.981C157.599 330.981 160.761 328.962 160.761 326.464C160.761 323.966 157.61 321.947 153.712 321.947C149.815 321.947 146.664 323.966 146.664 326.464C146.664 328.962 149.815 330.981 153.712 330.981Z" fill="#E5FF00"/>
<path d="M204.529 332.162C209.427 332.162 213.405 329.613 213.405 326.473C213.405 323.334 209.427 320.785 204.529 320.785C199.631 320.785 195.652 323.334 195.652 326.473C195.652 329.613 199.631 332.162 204.529 332.162Z" fill="#E5FF00"/>
<path d="M255.331 333.423C261.321 333.423 266.185 330.306 266.185 326.467C266.185 322.627 261.333 319.51 255.331 319.51C249.329 319.51 244.477 322.62 244.477 326.467C244.477 330.313 249.329 333.423 255.331 333.423Z" fill="#E5FF00"/>
<path d="M306.155 334.593C313.159 334.593 318.837 330.954 318.837 326.465C318.837 321.976 313.159 318.337 306.155 318.337C299.151 318.337 293.473 321.976 293.473 326.465C293.473 330.954 299.151 334.593 306.155 334.593Z" fill="#E5FF00"/>
<path d="M356.968 335.862C365.063 335.862 371.617 331.655 371.617 326.474C371.617 321.294 365.052 317.086 356.968 317.086C348.885 317.086 342.309 321.294 342.309 326.474C342.309 331.655 348.874 335.862 356.968 335.862Z" fill="#E5FF00"/>
<path d="M407.786 337.129C416.973 337.129 424.412 332.361 424.412 326.473C424.412 320.586 416.973 315.818 407.786 315.818C398.599 315.818 391.16 320.586 391.16 326.473C391.16 332.361 398.599 337.129 407.786 337.129Z" fill="#E5FF00"/>
<path d="M458.591 338.301C468.79 338.301 477.045 333.003 477.045 326.474C477.045 319.945 468.778 314.647 458.591 314.647C448.404 314.647 440.137 319.945 440.137 326.474C440.137 333.003 448.404 338.301 458.591 338.301Z" fill="#E5FF00"/>
<path d="M509.418 339.111C520.318 339.111 529.148 333.452 529.148 326.466C529.148 319.48 520.318 313.821 509.418 313.821C498.518 313.821 489.688 319.48 489.688 326.466C489.688 333.452 498.518 339.111 509.418 339.111Z" fill="#E5FF00"/>
<path d="M560.229 338.389C570.496 338.389 578.832 333.054 578.832 326.466C578.832 319.879 570.508 314.543 560.229 314.543C549.949 314.543 541.625 319.879 541.625 326.466C541.625 333.054 549.949 338.389 560.229 338.389Z" fill="#E5FF00"/>
<path d="M611.04 337.129C620.227 337.129 627.666 332.361 627.666 326.473C627.666 320.586 620.227 315.818 611.04 315.818C601.853 315.818 594.414 320.586 594.414 326.473C594.414 332.361 601.853 337.129 611.04 337.129Z" fill="#E5FF00"/>
<path d="M661.853 335.949C670.028 335.949 676.65 331.704 676.65 326.465C676.65 321.225 670.028 316.981 661.853 316.981C653.677 316.981 647.055 321.225 647.055 326.465C647.055 331.704 653.677 335.949 661.853 335.949Z" fill="#E5FF00"/>
<path d="M712.664 334.69C719.747 334.69 725.484 331.012 725.484 326.473C725.484 321.934 719.747 318.257 712.664 318.257C705.581 318.257 699.844 321.934 699.844 326.473C699.844 331.012 705.581 334.69 712.664 334.69Z" fill="#E5FF00"/>
<path d="M763.488 333.51C769.559 333.51 774.48 330.356 774.48 326.465C774.48 322.574 769.559 319.42 763.488 319.42C757.417 319.42 752.496 322.574 752.496 326.465C752.496 330.356 757.417 333.51 763.488 333.51Z" fill="#E5FF00"/>
<path d="M814.296 332.25C819.274 332.25 823.31 329.664 823.31 326.473C823.31 323.282 819.274 320.696 814.296 320.696C809.317 320.696 805.281 323.282 805.281 326.473C805.281 329.664 809.317 332.25 814.296 332.25Z" fill="#E5FF00"/>
<path d="M865.103 330.981C868.989 330.981 872.151 328.962 872.151 326.464C872.151 323.966 869.001 321.947 865.103 321.947C861.205 321.947 858.055 323.966 858.055 326.464C858.055 328.962 861.205 330.981 865.103 330.981Z" fill="#E5FF00"/>
<path d="M915.919 329.811C918.793 329.811 921.127 328.315 921.127 326.473C921.127 324.631 918.793 323.135 915.919 323.135C913.044 323.135 910.71 324.631 910.71 326.473C910.71 328.315 913.044 329.811 915.919 329.811Z" fill="#E5FF00"/>
<path d="M966.734 328.544C968.527 328.544 969.976 327.616 969.976 326.466C969.976 325.317 968.527 324.388 966.734 324.388C964.94 324.388 963.491 325.317 963.491 326.466C963.491 327.616 964.94 328.544 966.734 328.544Z" fill="#E5FF00"/>
<path d="M1017.55 327.373C1018.34 327.373 1018.96 326.968 1018.96 326.466C1018.96 325.965 1018.32 325.56 1017.55 325.56C1016.78 325.56 1016.14 325.965 1016.14 326.466C1016.14 326.968 1016.77 327.373 1017.55 327.373Z" fill="#E5FF00"/>
<path d="M1.26353 359.757C1.88442 359.757 2.3903 359.433 2.3903 359.035C2.3903 358.637 1.88442 358.313 1.26353 358.313C0.64264 358.313 0.136719 358.637 0.136719 359.035C0.136719 359.433 0.64264 359.757 1.26353 359.757Z" fill="#E5FF00"/>
<path d="M52.0849 361.019C53.7981 361.019 55.1893 360.127 55.1893 359.029C55.1893 357.931 53.7981 357.04 52.0849 357.04C50.3717 357.04 48.9805 357.931 48.9805 359.029C48.9805 360.127 50.3717 361.019 52.0849 361.019Z" fill="#E5FF00"/>
<path d="M102.897 362.196C105.622 362.196 107.83 360.781 107.83 359.035C107.83 357.289 105.622 355.874 102.897 355.874C100.172 355.874 97.9648 357.289 97.9648 359.035C97.9648 360.781 100.172 362.196 102.897 362.196Z" fill="#E5FF00"/>
<path d="M153.715 363.458C157.532 363.458 160.614 361.476 160.614 359.03C160.614 356.583 157.521 354.601 153.715 354.601C149.909 354.601 146.805 356.583 146.805 359.03C146.805 361.476 149.898 363.458 153.715 363.458Z" fill="#E5FF00"/>
<path d="M204.524 364.636C209.353 364.636 213.262 362.13 213.262 359.035C213.262 355.94 209.353 353.435 204.524 353.435C199.694 353.435 195.785 355.94 195.785 359.035C195.785 362.13 199.694 364.636 204.524 364.636Z" fill="#E5FF00"/>
<path d="M255.337 365.895C261.247 365.895 266.042 362.822 266.042 359.035C266.042 355.247 261.247 352.174 255.337 352.174C249.427 352.174 244.633 355.247 244.633 359.035C244.633 362.822 249.427 365.895 255.337 365.895Z" fill="#E5FF00"/>
<path d="M306.154 367.075C313.075 367.075 318.698 363.479 318.698 359.036C318.698 354.592 313.087 350.996 306.154 350.996C299.22 350.996 293.609 354.592 293.609 359.036C293.609 363.479 299.22 367.075 306.154 367.075Z" fill="#E5FF00"/>
<path d="M356.966 368.248C364.9 368.248 371.339 364.121 371.339 359.037C371.339 353.952 364.9 349.825 356.966 349.825C349.033 349.825 342.594 353.952 342.594 359.037C342.594 364.121 349.033 368.248 356.966 368.248Z" fill="#E5FF00"/>
<path d="M407.783 369.419C416.728 369.419 423.983 364.77 423.983 359.037C423.983 353.304 416.728 348.654 407.783 348.654C398.837 348.654 391.582 353.304 391.582 359.037C391.582 364.77 398.837 369.419 407.783 369.419Z" fill="#E5FF00"/>
<path d="M458.597 370.412C468.404 370.412 476.349 365.32 476.349 359.034C476.349 352.749 468.404 347.657 458.597 347.657C448.789 347.657 440.844 352.749 440.844 359.034C440.844 365.32 448.789 370.412 458.597 370.412Z" fill="#E5FF00"/>
<path d="M509.412 370.96C519.68 370.96 528.016 365.624 528.016 359.037C528.016 352.449 519.691 347.114 509.412 347.114C499.133 347.114 490.809 352.449 490.809 359.037C490.809 365.624 499.133 370.96 509.412 370.96Z" fill="#E5FF00"/>
<path d="M560.222 370.412C570.029 370.412 577.974 365.32 577.974 359.034C577.974 352.749 570.029 347.657 560.222 347.657C550.414 347.657 542.469 352.749 542.469 359.034C542.469 365.32 550.414 370.412 560.222 370.412Z" fill="#E5FF00"/>
<path d="M611.037 369.419C619.982 369.419 627.237 364.77 627.237 359.037C627.237 353.304 619.982 348.654 611.037 348.654C602.091 348.654 594.836 353.304 594.836 359.037C594.836 364.77 602.091 369.419 611.037 369.419Z" fill="#E5FF00"/>
<path d="M661.862 368.335C669.876 368.335 676.372 364.171 676.372 359.035C676.372 353.899 669.876 349.735 661.862 349.735C653.848 349.735 647.352 353.899 647.352 359.035C647.352 364.171 653.848 368.335 661.862 368.335Z" fill="#E5FF00"/>
<path d="M712.666 367.165C719.671 367.165 725.349 363.526 725.349 359.037C725.349 354.548 719.671 350.909 712.666 350.909C705.662 350.909 699.984 354.548 699.984 359.037C699.984 363.526 705.662 367.165 712.666 367.165Z" fill="#E5FF00"/>
<path d="M763.486 365.895C769.396 365.895 774.19 362.822 774.19 359.035C774.19 355.247 769.396 352.174 763.486 352.174C757.576 352.174 752.781 355.247 752.781 359.035C752.781 362.822 757.576 365.895 763.486 365.895Z" fill="#E5FF00"/>
<path d="M814.294 364.725C819.192 364.725 823.171 362.175 823.171 359.036C823.171 355.897 819.192 353.347 814.294 353.347C809.396 353.347 805.418 355.897 805.418 359.036C805.418 362.175 809.396 364.725 814.294 364.725Z" fill="#E5FF00"/>
<path d="M865.103 363.554C868.989 363.554 872.151 361.535 872.151 359.037C872.151 356.539 869.001 354.52 865.103 354.52C861.205 354.52 858.055 356.539 858.055 359.037C858.055 361.535 861.205 363.554 865.103 363.554Z" fill="#E5FF00"/>
<path d="M915.929 362.286C918.735 362.286 921 360.826 921 359.036C921 357.245 918.735 355.786 915.929 355.786C913.124 355.786 910.858 357.245 910.858 359.036C910.858 360.826 913.135 362.286 915.929 362.286Z" fill="#E5FF00"/>
<path d="M966.729 361.019C968.442 361.019 969.833 360.127 969.833 359.029C969.833 357.931 968.442 357.04 966.729 357.04C965.015 357.04 963.624 357.931 963.624 359.029C963.624 360.127 965.015 361.019 966.729 361.019Z" fill="#E5FF00"/>
<path d="M1017.56 359.848C1018.26 359.848 1018.82 359.487 1018.82 359.037C1018.82 358.588 1018.26 358.227 1017.56 358.227C1016.86 358.227 1016.29 358.588 1016.29 359.037C1016.29 359.487 1016.86 359.848 1017.56 359.848Z" fill="#E5FF00"/>
<path d="M1.26103 392.144C1.73244 392.144 2.11186 391.901 2.11186 391.599C2.11186 391.296 1.73244 391.053 1.26103 391.053C0.789612 391.053 0.410156 391.296 0.410156 391.599C0.410156 391.901 0.789612 392.144 1.26103 392.144Z" fill="#E5FF00"/>
<path d="M52.0853 393.317C53.5685 393.317 54.7643 392.55 54.7643 391.6C54.7643 390.649 53.5685 389.883 52.0853 389.883C50.602 389.883 49.4062 390.649 49.4062 391.6C49.4062 392.55 50.602 393.317 52.0853 393.317Z" fill="#E5FF00"/>
<path d="M102.895 394.584C105.459 394.584 107.54 393.25 107.54 391.607C107.54 389.963 105.459 388.63 102.895 388.63C100.331 388.63 98.25 389.963 98.25 391.607C98.25 393.25 100.331 394.584 102.895 394.584Z" fill="#E5FF00"/>
<path d="M153.719 395.755C157.295 395.755 160.204 393.898 160.204 391.598C160.204 389.299 157.307 387.442 153.719 387.442C150.132 387.442 147.234 389.299 147.234 391.598C147.234 393.898 150.132 395.755 153.719 395.755Z" fill="#E5FF00"/>
<path d="M204.52 396.926C209.108 396.926 212.833 394.539 212.833 391.598C212.833 388.658 209.108 386.271 204.52 386.271C199.932 386.271 196.207 388.658 196.207 391.598C196.207 394.539 199.932 396.926 204.52 396.926Z" fill="#E5FF00"/>
<path d="M255.336 398.106C260.936 398.106 265.478 395.195 265.478 391.607C265.478 388.018 260.936 385.107 255.336 385.107C249.737 385.107 245.195 388.018 245.195 391.607C245.195 395.195 249.737 398.106 255.336 398.106Z" fill="#E5FF00"/>
<path d="M306.156 399.189C312.686 399.189 317.987 395.792 317.987 391.606C317.987 387.42 312.686 384.023 306.156 384.023C299.625 384.023 294.324 387.42 294.324 391.606C294.324 395.792 299.625 399.189 306.156 399.189Z" fill="#E5FF00"/>
<path d="M356.963 400.272C364.436 400.272 370.484 396.389 370.484 391.606C370.484 386.824 364.425 382.94 356.963 382.94C349.501 382.94 343.43 386.824 343.43 391.606C343.43 396.389 349.489 400.272 356.963 400.272Z" fill="#E5FF00"/>
<path d="M407.785 401.268C416.109 401.268 422.859 396.942 422.859 391.607C422.859 386.272 416.109 381.946 407.785 381.946C399.46 381.946 392.711 386.272 392.711 391.607C392.711 396.942 399.46 401.268 407.785 401.268Z" fill="#E5FF00"/>
<path d="M458.595 401.988C467.54 401.988 474.796 397.339 474.796 391.605C474.796 385.872 467.54 381.223 458.595 381.223C449.65 381.223 442.395 385.872 442.395 391.605C442.395 397.339 449.65 401.988 458.595 401.988Z" fill="#E5FF00"/>
<path d="M509.415 402.253C518.602 402.253 526.041 397.485 526.041 391.598C526.041 385.71 518.602 380.942 509.415 380.942C500.228 380.942 492.789 385.71 492.789 391.598C492.789 397.485 500.228 402.253 509.415 402.253Z" fill="#E5FF00"/>
<path d="M560.228 401.988C569.173 401.988 576.429 397.339 576.429 391.605C576.429 385.872 569.173 381.223 560.228 381.223C551.282 381.223 544.027 385.872 544.027 391.605C544.027 397.339 551.282 401.988 560.228 401.988Z" fill="#E5FF00"/>
<path d="M611.035 401.268C619.359 401.268 626.108 396.942 626.108 391.607C626.108 386.272 619.359 381.946 611.035 381.946C602.71 381.946 595.961 386.272 595.961 391.607C595.961 396.942 602.71 401.268 611.035 401.268Z" fill="#E5FF00"/>
<path d="M661.855 400.361C669.409 400.361 675.526 396.44 675.526 391.599C675.526 386.758 669.409 382.837 661.855 382.837C654.301 382.837 648.184 386.758 648.184 391.599C648.184 396.44 654.301 400.361 661.855 400.361Z" fill="#E5FF00"/>
<path d="M712.664 399.279C719.276 399.279 724.645 395.845 724.645 391.601C724.645 387.356 719.287 383.922 712.664 383.922C706.042 383.922 700.684 387.356 700.684 391.601C700.684 395.845 706.042 399.279 712.664 399.279Z" fill="#E5FF00"/>
<path d="M763.486 398.194C769.166 398.194 773.777 395.239 773.777 391.599C773.777 387.958 769.166 385.003 763.486 385.003C757.806 385.003 753.195 387.958 753.195 391.599C753.195 395.239 757.806 398.194 763.486 398.194Z" fill="#E5FF00"/>
<path d="M814.295 397.023C818.963 397.023 822.746 394.598 822.746 391.607C822.746 388.615 818.963 386.19 814.295 386.19C809.627 386.19 805.844 388.615 805.844 391.607C805.844 394.598 809.627 397.023 814.295 397.023Z" fill="#E5FF00"/>
<path d="M865.103 395.844C868.76 395.844 871.726 393.943 871.726 391.599C871.726 389.256 868.76 387.355 865.103 387.355C861.447 387.355 858.48 389.256 858.48 391.599C858.48 393.943 861.447 395.844 865.103 395.844Z" fill="#E5FF00"/>
<path d="M915.926 394.674C918.571 394.674 920.721 393.296 920.721 391.601C920.721 389.906 918.582 388.528 915.926 388.528C913.27 388.528 911.132 389.906 911.132 391.601C911.132 393.296 913.27 394.674 915.926 394.674Z" fill="#E5FF00"/>
<path d="M966.738 393.405C968.29 393.405 969.555 392.594 969.555 391.599C969.555 390.605 968.29 389.794 966.738 389.794C965.186 389.794 963.921 390.605 963.921 391.599C963.921 392.594 965.186 393.405 966.738 393.405Z" fill="#E5FF00"/>
<path d="M1017.55 392.235C1018.09 392.235 1018.54 391.955 1018.54 391.601C1018.54 391.247 1018.1 390.967 1017.55 390.967C1017 390.967 1016.56 391.247 1016.56 391.601C1016.56 391.955 1017 392.235 1017.55 392.235Z" fill="#E5FF00"/>
<path d="M1.2692 424.436C1.49916 424.436 1.69462 424.318 1.69462 424.163C1.69462 424.008 1.49916 423.89 1.2692 423.89C1.03924 423.89 0.84375 424.008 0.84375 424.163C0.84375 424.318 1.02775 424.436 1.2692 424.436Z" fill="#E5FF00"/>
<path d="M52.0817 425.614C53.3235 425.614 54.3353 424.965 54.3353 424.169C54.3353 423.373 53.3235 422.725 52.0817 422.725C50.8399 422.725 49.8281 423.373 49.8281 424.169C49.8281 424.965 50.8399 425.614 52.0817 425.614Z" fill="#E5FF00"/>
<path d="M102.894 426.785C105.148 426.785 106.976 425.613 106.976 424.169C106.976 422.724 105.148 421.553 102.894 421.553C100.641 421.553 98.8125 422.724 98.8125 424.169C98.8125 425.613 100.641 426.785 102.894 426.785Z" fill="#E5FF00"/>
<path d="M153.717 427.87C156.902 427.87 159.489 426.212 159.489 424.17C159.489 422.129 156.902 420.471 153.717 420.471C150.532 420.471 147.945 422.129 147.945 424.17C147.945 426.212 150.532 427.87 153.717 427.87Z" fill="#E5FF00"/>
<path d="M204.526 429.042C208.722 429.042 212.137 426.861 212.137 424.164C212.137 421.467 208.734 419.285 204.526 419.285C200.317 419.285 196.914 421.467 196.914 424.164C196.914 426.861 200.317 429.042 204.526 429.042Z" fill="#E5FF00"/>
<path d="M256.779 430.099C261.85 429.573 265.296 426.512 264.475 423.262C263.655 420.011 258.879 417.803 253.807 418.329C248.736 418.854 245.29 421.916 246.111 425.166C246.931 428.416 251.707 430.624 256.779 430.099Z" fill="#E5FF00"/>
<path d="M306.159 431.12C312.149 431.12 317.013 428.003 317.013 424.163C317.013 420.324 312.161 417.207 306.159 417.207C300.157 417.207 295.305 420.324 295.305 424.163C295.305 428.003 300.157 431.12 306.159 431.12Z" fill="#E5FF00"/>
<path d="M356.969 432.113C363.822 432.113 369.364 428.554 369.364 424.169C369.364 419.785 363.81 416.226 356.969 416.226C350.128 416.226 344.574 419.785 344.574 424.169C344.574 428.554 350.128 432.113 356.969 432.113Z" fill="#E5FF00"/>
<path d="M407.787 432.836C415.261 432.836 421.309 428.953 421.309 424.17C421.309 419.388 415.249 415.504 407.787 415.504C400.325 415.504 394.254 419.388 394.254 424.17C394.254 428.953 400.313 432.836 407.787 432.836Z" fill="#E5FF00"/>
<path d="M458.596 433.469C466.61 433.469 473.107 429.305 473.107 424.169C473.107 419.033 466.61 414.87 458.596 414.87C450.582 414.87 444.086 419.033 444.086 424.169C444.086 429.305 450.582 433.469 458.596 433.469Z" fill="#E5FF00"/>
<path d="M509.419 433.647C517.594 433.647 524.217 429.402 524.217 424.163C524.217 418.924 517.594 414.679 509.419 414.679C501.244 414.679 494.621 418.924 494.621 424.163C494.621 429.402 501.244 433.647 509.419 433.647Z" fill="#E5FF00"/>
<path d="M560.225 433.469C568.239 433.469 574.736 429.305 574.736 424.169C574.736 419.033 568.239 414.87 560.225 414.87C552.211 414.87 545.715 419.033 545.715 424.169C545.715 429.305 552.211 433.469 560.225 433.469Z" fill="#E5FF00"/>
<path d="M611.034 432.922C618.577 432.922 624.705 429.002 624.705 424.161C624.705 419.319 618.588 415.399 611.034 415.399C603.48 415.399 597.363 419.319 597.363 424.161C597.363 429.002 603.48 432.922 611.034 432.922Z" fill="#E5FF00"/>
<path d="M661.852 432.113C668.705 432.113 674.247 428.554 674.247 424.169C674.247 419.785 668.693 416.226 661.852 416.226C655.011 416.226 649.457 419.785 649.457 424.169C649.457 428.554 655.011 432.113 661.852 432.113Z" fill="#E5FF00"/>
<path d="M712.664 431.215C718.735 431.215 723.656 428.061 723.656 424.17C723.656 420.28 718.735 417.126 712.664 417.126C706.593 417.126 701.672 420.28 701.672 424.17C701.672 428.061 706.593 431.215 712.664 431.215Z" fill="#E5FF00"/>
<path d="M763.483 430.221C768.691 430.221 772.923 427.509 772.923 424.171C772.923 420.833 768.691 418.121 763.483 418.121C758.274 418.121 754.043 420.833 754.043 424.171C754.043 427.509 758.274 430.221 763.483 430.221Z" fill="#E5FF00"/>
<path d="M814.296 429.137C818.574 429.137 822.046 426.912 822.046 424.171C822.046 421.43 818.574 419.204 814.296 419.204C810.019 419.204 806.547 421.43 806.547 424.171C806.547 426.912 810.019 429.137 814.296 429.137Z" fill="#E5FF00"/>
<path d="M865.105 427.957C868.37 427.957 871.027 426.262 871.027 424.162C871.027 422.062 868.382 420.367 865.105 420.367C861.828 420.367 859.184 422.062 859.184 424.162C859.184 426.262 861.828 427.957 865.105 427.957Z" fill="#E5FF00"/>
<path d="M915.921 426.785C918.174 426.785 920.002 425.613 920.002 424.169C920.002 422.724 918.174 421.553 915.921 421.553C913.667 421.553 911.839 422.724 911.839 424.169C911.839 425.613 913.667 426.785 915.921 426.785Z" fill="#E5FF00"/>
<path d="M966.734 425.703C968.057 425.703 969.126 425.017 969.126 424.17C969.126 423.323 968.057 422.637 966.734 422.637C965.412 422.637 964.343 423.323 964.343 424.17C964.343 425.017 965.412 425.703 966.734 425.703Z" fill="#E5FF00"/>
<path d="M1017.56 424.531C1017.87 424.531 1018.12 424.369 1018.12 424.17C1018.12 423.971 1017.87 423.809 1017.56 423.809C1017.25 423.809 1017 423.971 1017 424.17C1017 424.369 1017.25 424.531 1017.56 424.531Z" fill="#E5FF00"/>
<path d="M1.26654 456.821C1.34681 456.821 1.40414 456.784 1.40414 456.733C1.40414 456.682 1.33534 456.645 1.26654 456.645C1.19774 456.645 1.12891 456.682 1.12891 456.733C1.12891 456.784 1.19774 456.821 1.26654 456.821Z" fill="#E5FF00"/>
<path d="M52.0874 457.728C52.9382 457.728 53.6396 457.286 53.6396 456.733C53.6396 456.18 52.9497 455.738 52.0874 455.738C51.225 455.738 50.5352 456.18 50.5352 456.733C50.5352 457.286 51.225 457.728 52.0874 457.728Z" fill="#E5FF00"/>
<path d="M102.895 458.811C104.688 458.811 106.137 457.883 106.137 456.733C106.137 455.584 104.688 454.655 102.895 454.655C101.101 454.655 99.6523 455.584 99.6523 456.733C99.6523 457.883 101.101 458.811 102.895 458.811Z" fill="#E5FF00"/>
<path d="M153.714 459.894C156.439 459.894 158.646 458.479 158.646 456.732C158.646 454.986 156.439 453.571 153.714 453.571C150.989 453.571 148.781 454.986 148.781 456.732C148.781 458.479 150.989 459.894 153.714 459.894Z" fill="#E5FF00"/>
<path d="M204.525 460.978C208.182 460.978 211.148 459.077 211.148 456.734C211.148 454.39 208.182 452.489 204.525 452.489C200.869 452.489 197.902 454.39 197.902 456.734C197.902 459.077 200.869 460.978 204.525 460.978Z" fill="#E5FF00"/>
<path d="M255.335 461.971C259.854 461.971 263.51 459.628 263.51 456.732C263.51 453.836 259.854 451.493 255.335 451.493C250.816 451.493 247.16 453.836 247.16 456.732C247.16 459.628 250.816 461.971 255.335 461.971Z" fill="#E5FF00"/>
<path d="M306.16 462.872C311.449 462.872 315.738 460.123 315.738 456.734C315.738 453.344 311.449 450.595 306.16 450.595C300.871 450.595 296.582 453.344 296.582 456.734C296.582 460.123 300.871 462.872 306.16 462.872Z" fill="#E5FF00"/>
<path d="M356.963 463.69C362.954 463.69 367.817 460.573 367.817 456.734C367.817 452.894 362.965 449.777 356.963 449.777C350.962 449.777 346.109 452.887 346.109 456.734C346.109 460.58 350.962 463.69 356.963 463.69Z" fill="#E5FF00"/>
<path d="M407.782 464.412C414.393 464.412 419.763 460.978 419.763 456.733C419.763 452.489 414.404 449.055 407.782 449.055C401.159 449.055 395.801 452.489 395.801 456.733C395.801 460.978 401.159 464.412 407.782 464.412Z" fill="#E5FF00"/>
<path d="M470.316 459.812C472.979 455.66 469.885 450.911 463.407 449.204C456.928 447.498 449.518 449.481 446.856 453.633C444.193 457.785 447.287 462.534 453.766 464.24C460.244 465.946 467.654 463.964 470.316 459.812Z" fill="#E5FF00"/>
<path d="M509.418 464.949C516.501 464.949 522.238 461.272 522.238 456.733C522.238 452.194 516.501 448.517 509.418 448.517C502.335 448.517 496.598 452.194 496.598 456.733C496.598 461.272 502.335 464.949 509.418 464.949Z" fill="#E5FF00"/>
<path d="M560.225 464.861C567.229 464.861 572.907 461.222 572.907 456.733C572.907 452.244 567.229 448.605 560.225 448.605C553.221 448.605 547.543 452.244 547.543 456.733C547.543 461.222 553.221 464.861 560.225 464.861Z" fill="#E5FF00"/>
<path d="M611.036 464.412C617.647 464.412 623.016 460.978 623.016 456.733C623.016 452.489 617.658 449.055 611.036 449.055C604.413 449.055 599.055 452.489 599.055 456.733C599.055 460.978 604.413 464.412 611.036 464.412Z" fill="#E5FF00"/>
<path d="M661.855 463.778C667.926 463.778 672.847 460.624 672.847 456.733C672.847 452.842 667.926 449.688 661.855 449.688C655.784 449.688 650.863 452.842 650.863 456.733C650.863 460.624 655.784 463.778 661.855 463.778Z" fill="#E5FF00"/>
<path d="M712.665 462.967C718.034 462.967 722.392 460.174 722.392 456.733C722.392 453.291 718.034 450.499 712.665 450.499C707.295 450.499 702.938 453.291 702.938 456.733C702.938 460.174 707.295 462.967 712.665 462.967Z" fill="#E5FF00"/>
<path d="M763.485 462.06C768.073 462.06 771.798 459.673 771.798 456.733C771.798 453.793 768.073 451.405 763.485 451.405C758.897 451.405 755.172 453.793 755.172 456.733C755.172 459.673 758.897 462.06 763.485 462.06Z" fill="#E5FF00"/>
<path d="M814.296 461.066C818.033 461.066 821.057 459.128 821.057 456.733C821.057 454.338 818.033 452.4 814.296 452.4C810.559 452.4 807.535 454.338 807.535 456.733C807.535 459.128 810.559 461.066 814.296 461.066Z" fill="#E5FF00"/>
<path d="M865.102 459.983C867.907 459.983 870.172 458.524 870.172 456.733C870.172 454.942 867.907 453.483 865.102 453.483C862.296 453.483 860.031 454.942 860.031 456.733C860.031 458.524 862.308 459.983 865.102 459.983Z" fill="#E5FF00"/>
<path d="M915.922 458.899C917.785 458.899 919.303 457.927 919.303 456.733C919.303 455.539 917.785 454.566 915.922 454.566C914.06 454.566 912.542 455.539 912.542 456.733C912.542 457.927 914.06 458.899 915.922 458.899Z" fill="#E5FF00"/>
<path d="M966.736 457.816C967.668 457.816 968.426 457.33 968.426 456.733C968.426 456.136 967.668 455.649 966.736 455.649C965.805 455.649 965.046 456.136 965.046 456.733C965.046 457.33 965.805 457.816 966.736 457.816Z" fill="#E5FF00"/>
<path d="M1017.55 456.821C1017.63 456.821 1017.69 456.784 1017.69 456.733C1017.69 456.682 1017.62 456.645 1017.55 456.645C1017.49 456.645 1017.42 456.682 1017.42 456.733C1017.42 456.784 1017.49 456.821 1017.55 456.821Z" fill="#E5FF00"/>
<path d="M52.0881 489.754C52.479 489.754 52.7895 489.555 52.7895 489.304C52.7895 489.053 52.479 488.854 52.0881 488.854C51.6971 488.854 51.3867 489.053 51.3867 489.304C51.3867 489.555 51.6971 489.754 52.0881 489.754Z" fill="#E5FF00"/>
<path d="M102.895 490.837C104.218 490.837 105.287 490.152 105.287 489.304C105.287 488.457 104.218 487.771 102.895 487.771C101.573 487.771 100.504 488.457 100.504 489.304C100.504 490.152 101.573 490.837 102.895 490.837Z" fill="#E5FF00"/>
<path d="M153.717 491.831C155.89 491.831 157.661 490.696 157.661 489.303C157.661 487.911 155.89 486.776 153.717 486.776C151.544 486.776 149.773 487.911 149.773 489.303C149.773 490.696 151.544 491.831 153.717 491.831Z" fill="#E5FF00"/>
<path d="M204.527 492.819C207.563 492.819 210.023 491.242 210.023 489.297C210.023 487.352 207.563 485.775 204.527 485.775C201.492 485.775 199.031 487.352 199.031 489.297C199.031 491.242 201.492 492.819 204.527 492.819Z" fill="#E5FF00"/>
<path d="M255.336 493.725C259.153 493.725 262.235 491.743 262.235 489.297C262.235 486.85 259.142 484.868 255.336 484.868C251.53 484.868 248.426 486.85 248.426 489.297C248.426 491.743 251.519 493.725 255.336 493.725Z" fill="#E5FF00"/>
<path d="M306.156 494.536C310.674 494.536 314.331 492.193 314.331 489.297C314.331 486.401 310.674 484.058 306.156 484.058C301.637 484.058 297.98 486.401 297.98 489.297C297.98 492.193 301.637 494.536 306.156 494.536Z" fill="#E5FF00"/>
<path d="M356.962 495.266C362.099 495.266 366.264 492.597 366.264 489.304C366.264 486.012 362.099 483.343 356.962 483.343C351.825 483.343 347.66 486.012 347.66 489.304C347.66 492.597 351.825 495.266 356.962 495.266Z" fill="#E5FF00"/>
<path d="M407.79 495.803C413.389 495.803 417.931 492.893 417.931 489.304C417.931 485.715 413.389 482.804 407.79 482.804C402.19 482.804 397.648 485.715 397.648 489.304C397.648 492.893 402.19 495.803 407.79 495.803Z" fill="#E5FF00"/>
<path d="M458.595 496.165C464.505 496.165 469.3 493.092 469.3 489.304C469.3 485.517 464.505 482.444 458.595 482.444C452.685 482.444 447.891 485.517 447.891 489.304C447.891 493.092 452.685 496.165 458.595 496.165Z" fill="#E5FF00"/>
<path d="M509.418 496.339C515.489 496.339 520.41 493.185 520.41 489.295C520.41 485.404 515.489 482.25 509.418 482.25C503.347 482.25 498.426 485.404 498.426 489.295C498.426 493.185 503.347 496.339 509.418 496.339Z" fill="#E5FF00"/>
<path d="M560.224 496.165C566.134 496.165 570.929 493.092 570.929 489.304C570.929 485.517 566.134 482.444 560.224 482.444C554.314 482.444 549.52 485.517 549.52 489.304C549.52 493.092 554.314 496.165 560.224 496.165Z" fill="#E5FF00"/>
<path d="M611.033 495.892C616.713 495.892 621.324 492.937 621.324 489.297C621.324 485.657 616.713 482.702 611.033 482.702C605.353 482.702 600.742 485.657 600.742 489.297C600.742 492.937 605.353 495.892 611.033 495.892Z" fill="#E5FF00"/>
<path d="M661.858 495.354C667.066 495.354 671.297 492.642 671.297 489.304C671.297 485.966 667.066 483.254 661.858 483.254C656.649 483.254 652.418 485.966 652.418 489.304C652.418 492.642 656.649 495.354 661.858 495.354Z" fill="#E5FF00"/>
<path d="M712.665 494.632C717.252 494.632 720.978 492.245 720.978 489.304C720.978 486.364 717.252 483.977 712.665 483.977C708.077 483.977 704.352 486.364 704.352 489.304C704.352 492.245 708.077 494.632 712.665 494.632Z" fill="#E5FF00"/>
<path d="M763.486 493.815C767.372 493.815 770.534 491.795 770.534 489.297C770.534 486.799 767.384 484.78 763.486 484.78C759.588 484.78 756.438 486.799 756.438 489.297C756.438 491.795 759.588 493.815 763.486 493.815Z" fill="#E5FF00"/>
<path d="M814.298 492.914C817.414 492.914 819.932 491.301 819.932 489.304C819.932 487.307 817.414 485.693 814.298 485.693C811.182 485.693 808.664 487.307 808.664 489.304C808.664 491.301 811.182 492.914 814.298 492.914Z" fill="#E5FF00"/>
<path d="M865.101 491.919C867.355 491.919 869.183 490.748 869.183 489.303C869.183 487.859 867.355 486.687 865.101 486.687C862.848 486.687 861.02 487.859 861.02 489.303C861.02 490.748 862.848 491.919 865.101 491.919Z" fill="#E5FF00"/>
<path d="M915.926 490.837C917.248 490.837 918.317 490.152 918.317 489.304C918.317 488.457 917.248 487.771 915.926 487.771C914.603 487.771 913.534 488.457 913.534 489.304C913.534 490.152 914.603 490.837 915.926 490.837Z" fill="#E5FF00"/>
<path d="M966.733 489.841C967.204 489.841 967.584 489.598 967.584 489.296C967.584 488.994 967.204 488.75 966.733 488.75C966.261 488.75 965.882 488.994 965.882 489.296C965.882 489.598 966.261 489.841 966.733 489.841Z" fill="#E5FF00"/>
<path d="M52.0829 521.955C52.1632 521.955 52.2205 521.919 52.2205 521.867C52.2205 521.816 52.1517 521.779 52.0829 521.779C52.0141 521.779 51.9453 521.816 51.9453 521.867C51.9453 521.919 52.0141 521.955 52.0829 521.955Z" fill="#E5FF00"/>
<path d="M102.898 522.678C103.599 522.678 104.162 522.317 104.162 521.867C104.162 521.418 103.599 521.057 102.898 521.057C102.196 521.057 101.633 521.418 101.633 521.867C101.633 522.317 102.196 522.678 102.898 522.678Z" fill="#E5FF00"/>
<path d="M153.719 523.673C155.272 523.673 156.536 522.863 156.536 521.868C156.536 520.873 155.272 520.062 153.719 520.062C152.167 520.062 150.902 520.873 150.902 521.868C150.902 522.863 152.167 523.673 153.719 523.673Z" fill="#E5FF00"/>
<path d="M204.528 524.58C206.862 524.58 208.759 523.364 208.759 521.868C208.759 520.372 206.862 519.156 204.528 519.156C202.194 519.156 200.297 520.372 200.297 521.868C200.297 523.364 202.194 524.58 204.528 524.58Z" fill="#E5FF00"/>
<path d="M255.336 525.388C258.371 525.388 260.832 523.811 260.832 521.866C260.832 519.92 258.371 518.343 255.336 518.343C252.3 518.343 249.84 519.92 249.84 521.866C249.84 523.811 252.3 525.388 255.336 525.388Z" fill="#E5FF00"/>
<path d="M306.154 526.113C309.81 526.113 312.777 524.211 312.777 521.868C312.777 519.525 309.81 517.624 306.154 517.624C302.498 517.624 299.531 519.525 299.531 521.868C299.531 524.211 302.498 526.113 306.154 526.113Z" fill="#E5FF00"/>
<path d="M356.967 526.745C361.164 526.745 364.579 524.564 364.579 521.867C364.579 519.17 361.175 516.989 356.967 516.989C352.759 516.989 349.355 519.17 349.355 521.867C349.355 524.564 352.759 526.745 356.967 526.745Z" fill="#E5FF00"/>
<path d="M407.783 527.284C412.451 527.284 416.234 524.86 416.234 521.868C416.234 518.876 412.451 516.452 407.783 516.452C403.115 516.452 399.332 518.876 399.332 521.868C399.332 524.86 403.115 527.284 407.783 527.284Z" fill="#E5FF00"/>
<path d="M458.595 527.555C463.493 527.555 467.471 525.005 467.471 521.866C467.471 518.727 463.493 516.177 458.595 516.177C453.697 516.177 449.719 518.727 449.719 521.866C449.719 525.005 453.697 527.555 458.595 527.555Z" fill="#E5FF00"/>
<path d="M509.413 527.645C514.391 527.645 518.427 525.059 518.427 521.868C518.427 518.677 514.391 516.091 509.413 516.091C504.434 516.091 500.398 518.677 500.398 521.868C500.398 525.059 504.434 527.645 509.413 527.645Z" fill="#E5FF00"/>
<path d="M560.228 527.555C565.126 527.555 569.104 525.005 569.104 521.866C569.104 518.727 565.126 516.177 560.228 516.177C555.33 516.177 551.352 518.727 551.352 521.866C551.352 525.005 555.33 527.555 560.228 527.555Z" fill="#E5FF00"/>
<path d="M611.033 527.284C615.701 527.284 619.484 524.86 619.484 521.868C619.484 518.876 615.701 516.452 611.033 516.452C606.365 516.452 602.582 518.876 602.582 521.868C602.582 524.86 606.365 527.284 611.033 527.284Z" fill="#E5FF00"/>
<path d="M661.855 526.834C666.132 526.834 669.605 524.609 669.605 521.868C669.605 519.126 666.132 516.901 661.855 516.901C657.578 516.901 654.105 519.126 654.105 521.868C654.105 524.609 657.578 526.834 661.855 526.834Z" fill="#E5FF00"/>
<path d="M712.663 526.199C716.4 526.199 719.424 524.261 719.424 521.866C719.424 519.471 716.4 517.533 712.663 517.533C708.926 517.533 705.902 519.471 705.902 521.866C705.902 524.261 708.926 526.199 712.663 526.199Z" fill="#E5FF00"/>
<path d="M763.486 525.478C766.602 525.478 769.12 523.865 769.12 521.868C769.12 519.871 766.602 518.257 763.486 518.257C760.37 518.257 757.852 519.871 757.852 521.868C757.852 523.865 760.37 525.478 763.486 525.478Z" fill="#E5FF00"/>
<path d="M814.294 524.58C816.628 524.58 818.525 523.364 818.525 521.868C818.525 520.372 816.628 519.156 814.294 519.156C811.96 519.156 810.062 520.372 810.062 521.868C810.062 523.364 811.96 524.58 814.294 524.58Z" fill="#E5FF00"/>
<path d="M865.106 523.673C866.658 523.673 867.923 522.863 867.923 521.868C867.923 520.873 866.658 520.062 865.106 520.062C863.554 520.062 862.289 520.873 862.289 521.868C862.289 522.863 863.554 523.673 865.106 523.673Z" fill="#E5FF00"/>
<path d="M915.921 522.774C916.703 522.774 917.324 522.369 917.324 521.868C917.324 521.367 916.691 520.962 915.921 520.962C915.151 520.962 914.507 521.367 914.507 521.868C914.507 522.369 915.139 522.774 915.921 522.774Z" fill="#E5FF00"/>
<path d="M966.738 521.955C966.818 521.955 966.876 521.919 966.876 521.867C966.876 521.816 966.807 521.779 966.738 521.779C966.669 521.779 966.601 521.816 966.601 521.867C966.601 521.919 966.669 521.955 966.738 521.955Z" fill="#E5FF00"/>
<path d="M102.893 554.615C103.042 554.615 103.169 554.534 103.169 554.431C103.169 554.328 103.042 554.247 102.893 554.247C102.743 554.247 102.605 554.328 102.605 554.431C102.605 554.534 102.732 554.615 102.893 554.615Z" fill="#E5FF00"/>
<path d="M153.719 555.337C154.501 555.337 155.122 554.931 155.122 554.43C155.122 553.929 154.489 553.524 153.719 553.524C152.949 553.524 152.305 553.929 152.305 554.43C152.305 554.931 152.937 555.337 153.719 555.337Z" fill="#E5FF00"/>
<path d="M204.528 556.236C206.08 556.236 207.345 555.425 207.345 554.431C207.345 553.436 206.08 552.625 204.528 552.625C202.976 552.625 201.711 553.436 201.711 554.431C201.711 555.425 202.976 556.236 204.528 556.236Z" fill="#E5FF00"/>
<path d="M255.334 556.964C257.508 556.964 259.278 555.829 259.278 554.437C259.278 553.044 257.508 551.909 255.334 551.909C253.161 551.909 251.391 553.044 251.391 554.437C251.391 555.829 253.161 556.964 255.334 556.964Z" fill="#E5FF00"/>
<path d="M306.153 557.687C308.958 557.687 311.223 556.228 311.223 554.438C311.223 552.647 308.958 551.188 306.153 551.188C303.347 551.188 301.082 552.647 301.082 554.438C301.082 556.228 303.359 557.687 306.153 557.687Z" fill="#E5FF00"/>
<path d="M356.964 558.225C360.23 558.225 362.886 556.53 362.886 554.43C362.886 552.33 360.241 550.635 356.964 550.635C353.688 550.635 351.043 552.33 351.043 554.43C351.043 556.53 353.688 558.225 356.964 558.225Z" fill="#E5FF00"/>
<path d="M407.789 558.586C411.365 558.586 414.274 556.729 414.274 554.43C414.274 552.131 411.377 550.274 407.789 550.274C404.202 550.274 401.305 552.131 401.305 554.43C401.305 556.729 404.202 558.586 407.789 558.586Z" fill="#E5FF00"/>
<path d="M458.594 558.86C462.411 558.86 465.493 556.878 465.493 554.431C465.493 551.985 462.4 550.002 458.594 550.002C454.788 550.002 451.684 551.985 451.684 554.431C451.684 556.878 454.777 558.86 458.594 558.86Z" fill="#E5FF00"/>
<path d="M509.419 558.947C513.306 558.947 516.468 556.928 516.468 554.43C516.468 551.932 513.317 549.913 509.419 549.913C505.522 549.913 502.371 551.932 502.371 554.43C502.371 556.928 505.522 558.947 509.419 558.947Z" fill="#E5FF00"/>
<path d="M560.224 558.947C564.11 558.947 567.272 556.928 567.272 554.43C567.272 551.932 564.122 549.913 560.224 549.913C556.326 549.913 553.176 551.932 553.176 554.43C553.176 556.928 556.326 558.947 560.224 558.947Z" fill="#E5FF00"/>
<path d="M611.037 558.675C614.693 558.675 617.66 556.774 617.66 554.431C617.66 552.088 614.693 550.187 611.037 550.187C607.381 550.187 604.414 552.088 604.414 554.431C604.414 556.774 607.381 558.675 611.037 558.675Z" fill="#E5FF00"/>
<path d="M661.859 558.225C665.124 558.225 667.78 556.53 667.78 554.43C667.78 552.33 665.136 550.635 661.859 550.635C658.582 550.635 655.938 552.33 655.938 554.43C655.938 556.53 658.582 558.225 661.859 558.225Z" fill="#E5FF00"/>
<path d="M712.668 557.687C715.474 557.687 717.739 556.228 717.739 554.438C717.739 552.647 715.474 551.188 712.668 551.188C709.863 551.188 707.598 552.647 707.598 554.438C707.598 556.228 709.874 557.687 712.668 557.687Z" fill="#E5FF00"/>
<path d="M763.488 557.054C765.742 557.054 767.57 555.883 767.57 554.438C767.57 552.994 765.742 551.823 763.488 551.823C761.234 551.823 759.406 552.994 759.406 554.438C759.406 555.883 761.234 557.054 763.488 557.054Z" fill="#E5FF00"/>
<path d="M814.293 556.236C815.846 556.236 817.111 555.425 817.111 554.431C817.111 553.436 815.846 552.625 814.293 552.625C812.741 552.625 811.477 553.436 811.477 554.431C811.477 555.425 812.741 556.236 814.293 556.236Z" fill="#E5FF00"/>
<path d="M865.107 555.425C865.958 555.425 866.659 554.983 866.659 554.43C866.659 553.878 865.969 553.436 865.107 553.436C864.245 553.436 863.555 553.878 863.555 554.43C863.555 554.983 864.245 555.425 865.107 555.425Z" fill="#E5FF00"/>
<path d="M915.919 554.615C916.069 554.615 916.195 554.534 916.195 554.431C916.195 554.328 916.069 554.247 915.919 554.247C915.77 554.247 915.632 554.328 915.632 554.431C915.632 554.534 915.758 554.615 915.919 554.615Z" fill="#E5FF00"/>
<path d="M153.721 587.178C153.871 587.178 153.997 587.096 153.997 586.993C153.997 586.89 153.871 586.809 153.721 586.809C153.572 586.809 153.434 586.89 153.434 586.993C153.434 587.096 153.56 587.178 153.721 587.178Z" fill="#E5FF00"/>
<path d="M204.527 587.812C205.228 587.812 205.791 587.451 205.791 587.001C205.791 586.552 205.228 586.191 204.527 586.191C203.825 586.191 203.262 586.552 203.262 587.001C203.262 587.451 203.825 587.812 204.527 587.812Z" fill="#E5FF00"/>
<path d="M255.329 588.532C256.651 588.532 257.721 587.847 257.721 587C257.721 586.152 256.651 585.467 255.329 585.467C254.007 585.467 252.938 586.152 252.938 587C252.938 587.847 254.007 588.532 255.329 588.532Z" fill="#E5FF00"/>
<path d="M306.158 589.167C308.02 589.167 309.538 588.194 309.538 587C309.538 585.806 308.02 584.834 306.158 584.834C304.295 584.834 302.777 585.806 302.777 587C302.777 588.194 304.295 589.167 306.158 589.167Z" fill="#E5FF00"/>
<path d="M356.969 589.616C359.222 589.616 361.05 588.444 361.05 587C361.05 585.556 359.222 584.384 356.969 584.384C354.715 584.384 352.887 585.556 352.887 587C352.887 588.444 354.715 589.616 356.969 589.616Z" fill="#E5FF00"/>
<path d="M407.786 589.979C410.35 589.979 412.431 588.645 412.431 587.002C412.431 585.359 410.35 584.025 407.786 584.025C405.222 584.025 403.141 585.359 403.141 587.002C403.141 588.645 405.222 589.979 407.786 589.979Z" fill="#E5FF00"/>
<path d="M458.59 590.251C461.396 590.251 463.661 588.792 463.661 587.001C463.661 585.211 461.396 583.752 458.59 583.752C455.785 583.752 453.52 585.211 453.52 587.001C453.52 588.792 455.796 590.251 458.59 590.251Z" fill="#E5FF00"/>
<path d="M509.416 590.339C512.29 590.339 514.624 588.843 514.624 587.001C514.624 585.159 512.29 583.663 509.416 583.663C506.541 583.663 504.207 585.159 504.207 587.001C504.207 588.843 506.541 590.339 509.416 590.339Z" fill="#E5FF00"/>
<path d="M560.227 590.251C563.032 590.251 565.297 588.792 565.297 587.001C565.297 585.211 563.032 583.752 560.227 583.752C557.421 583.752 555.156 585.211 555.156 587.001C555.156 588.792 557.433 590.251 560.227 590.251Z" fill="#E5FF00"/>
<path d="M611.037 590.065C613.681 590.065 615.831 588.687 615.831 586.992C615.831 585.297 613.693 583.919 611.037 583.919C608.381 583.919 606.242 585.297 606.242 586.992C606.242 588.687 608.381 590.065 611.037 590.065Z" fill="#E5FF00"/>
<path d="M661.855 589.616C664.109 589.616 665.937 588.444 665.937 587C665.937 585.556 664.109 584.384 661.855 584.384C659.602 584.384 657.773 585.556 657.773 587C657.773 588.444 659.602 589.616 661.855 589.616Z" fill="#E5FF00"/>
<path d="M712.669 589.167C714.532 589.167 716.05 588.194 716.05 587C716.05 585.806 714.532 584.834 712.669 584.834C710.807 584.834 709.289 585.806 709.289 587C709.289 588.194 710.807 589.167 712.669 589.167Z" fill="#E5FF00"/>
<path d="M763.489 588.532C764.812 588.532 765.881 587.847 765.881 587C765.881 586.152 764.812 585.467 763.489 585.467C762.167 585.467 761.098 586.152 761.098 587C761.098 587.847 762.167 588.532 763.489 588.532Z" fill="#E5FF00"/>
<path d="M814.297 587.902C815.079 587.902 815.7 587.497 815.7 586.996C815.7 586.495 815.067 586.089 814.297 586.089C813.527 586.089 812.883 586.495 812.883 586.996C812.883 587.497 813.515 587.902 814.297 587.902Z" fill="#E5FF00"/>
<path d="M865.104 587.178C865.253 587.178 865.38 587.096 865.38 586.993C865.38 586.89 865.253 586.809 865.104 586.809C864.954 586.809 864.816 586.89 864.816 586.993C864.816 587.096 864.943 587.178 865.104 587.178Z" fill="#E5FF00"/>
<path d="M204.524 619.652C204.605 619.652 204.662 619.616 204.662 619.564C204.662 619.513 204.593 619.476 204.524 619.476C204.456 619.476 204.387 619.513 204.387 619.564C204.387 619.616 204.456 619.652 204.524 619.652Z" fill="#E5FF00"/>
<path d="M255.334 620.013C255.725 620.013 256.036 619.814 256.036 619.564C256.036 619.313 255.725 619.114 255.334 619.114C254.943 619.114 254.633 619.313 254.633 619.564C254.633 619.814 254.943 620.013 255.334 620.013Z" fill="#E5FF00"/>
<path d="M306.154 620.559C307.005 620.559 307.706 620.117 307.706 619.564C307.706 619.011 307.016 618.569 306.154 618.569C305.291 618.569 304.602 619.011 304.602 619.564C304.602 620.117 305.291 620.559 306.154 620.559Z" fill="#E5FF00"/>
<path d="M356.965 621.01C358.206 621.01 359.218 620.361 359.218 619.565C359.218 618.77 358.206 618.121 356.965 618.121C355.723 618.121 354.711 618.77 354.711 619.565C354.711 620.361 355.723 621.01 356.965 621.01Z" fill="#E5FF00"/>
<path d="M407.786 621.371C409.338 621.371 410.603 620.56 410.603 619.565C410.603 618.57 409.338 617.76 407.786 617.76C406.233 617.76 404.969 618.57 404.969 619.565C404.969 620.56 406.233 621.371 407.786 621.371Z" fill="#E5FF00"/>
<path d="M458.597 621.553C460.31 621.553 461.701 620.662 461.701 619.564C461.701 618.466 460.31 617.574 458.597 617.574C456.883 617.574 455.492 618.466 455.492 619.564C455.492 620.662 456.883 621.553 458.597 621.553Z" fill="#E5FF00"/>
<path d="M509.414 621.642C511.208 621.642 512.657 620.714 512.657 619.564C512.657 618.415 511.208 617.486 509.414 617.486C507.621 617.486 506.172 618.415 506.172 619.564C506.172 620.714 507.621 621.642 509.414 621.642Z" fill="#E5FF00"/>
<path d="M560.226 621.553C561.939 621.553 563.33 620.662 563.33 619.564C563.33 618.466 561.939 617.574 560.226 617.574C558.512 617.574 557.121 618.466 557.121 619.564C557.121 620.662 558.512 621.553 560.226 621.553Z" fill="#E5FF00"/>
<path d="M611.036 621.371C612.588 621.371 613.853 620.56 613.853 619.565C613.853 618.57 612.588 617.76 611.036 617.76C609.484 617.76 608.219 618.57 608.219 619.565C608.219 620.56 609.484 621.371 611.036 621.371Z" fill="#E5FF00"/>
<path d="M661.852 621.104C663.175 621.104 664.244 620.419 664.244 619.571C664.244 618.724 663.175 618.039 661.852 618.039C660.53 618.039 659.461 618.724 659.461 619.571C659.461 620.419 660.53 621.104 661.852 621.104Z" fill="#E5FF00"/>
<path d="M712.663 620.648C713.594 620.648 714.353 620.162 714.353 619.565C714.353 618.968 713.594 618.482 712.663 618.482C711.731 618.482 710.973 618.968 710.973 619.565C710.973 620.162 711.731 620.648 712.663 620.648Z" fill="#E5FF00"/>
<path d="M763.484 620.111C763.955 620.111 764.334 619.868 764.334 619.566C764.334 619.264 763.955 619.021 763.484 619.021C763.012 619.021 762.633 619.264 762.633 619.566C762.633 619.868 763.012 620.111 763.484 620.111Z" fill="#E5FF00"/>
<path d="M814.294 619.652C814.374 619.652 814.431 619.616 814.431 619.564C814.431 619.513 814.363 619.476 814.294 619.476C814.225 619.476 814.156 619.513 814.156 619.564C814.156 619.616 814.225 619.652 814.294 619.652Z" fill="#E5FF00"/>
<path d="M306.153 652.221C306.233 652.221 306.291 652.185 306.291 652.133C306.291 652.082 306.222 652.045 306.153 652.045C306.084 652.045 306.016 652.082 306.016 652.133C306.016 652.185 306.084 652.221 306.153 652.221Z" fill="#E5FF00"/>
<path d="M356.962 652.495C357.272 652.495 357.525 652.333 357.525 652.134C357.525 651.935 357.272 651.773 356.962 651.773C356.651 651.773 356.398 651.935 356.398 652.134C356.398 652.333 356.651 652.495 356.962 652.495Z" fill="#E5FF00"/>
<path d="M407.786 652.76C408.326 652.76 408.775 652.48 408.775 652.127C408.775 651.773 408.338 651.493 407.786 651.493C407.234 651.493 406.797 651.773 406.797 652.127C406.797 652.48 407.234 652.76 407.786 652.76Z" fill="#E5FF00"/>
<path d="M458.593 652.946C459.294 652.946 459.858 652.585 459.858 652.136C459.858 651.686 459.294 651.325 458.593 651.325C457.891 651.325 457.328 651.686 457.328 652.136C457.328 652.585 457.891 652.946 458.593 652.946Z" fill="#E5FF00"/>
<path d="M509.414 653.033C510.196 653.033 510.817 652.627 510.817 652.126C510.817 651.625 510.185 651.22 509.414 651.22C508.644 651.22 508 651.625 508 652.126C508 652.627 508.632 653.033 509.414 653.033Z" fill="#E5FF00"/>
<path d="M560.226 652.946C560.927 652.946 561.49 652.585 561.49 652.136C561.49 651.686 560.927 651.325 560.226 651.325C559.524 651.325 558.961 651.686 558.961 652.136C558.961 652.585 559.524 652.946 560.226 652.946Z" fill="#E5FF00"/>
<path d="M611.032 652.76C611.572 652.76 612.021 652.48 612.021 652.127C612.021 651.773 611.584 651.493 611.032 651.493C610.48 651.493 610.043 651.773 610.043 652.127C610.043 652.48 610.48 652.76 611.032 652.76Z" fill="#E5FF00"/>
<path d="M661.852 652.495C662.163 652.495 662.416 652.333 662.416 652.134C662.416 651.935 662.163 651.773 661.852 651.773C661.542 651.773 661.289 651.935 661.289 652.134C661.289 652.333 661.542 652.495 661.852 652.495Z" fill="#E5FF00"/>
<path d="M712.661 652.221C712.741 652.221 712.799 652.185 712.799 652.133C712.799 652.082 712.73 652.045 712.661 652.045C712.592 652.045 712.523 652.082 712.523 652.133C712.523 652.185 712.592 652.221 712.661 652.221Z" fill="#E5FF00"/>
</svg>
