<svg width="202" height="26" viewBox="0 0 202 26" fill="none" xmlns="http://www.w3.org/2000/svg">
<path d="M192.289 14.2043L201.554 24.2524H195.231L189.12 17.6535L183.038 24.2524H176.729L185.98 14.2043L177.184 4.66931H183.507L189.12 10.7979L194.762 4.66931H201.085L192.289 14.2043Z" fill="#E5FF00"/>
<path d="M172.978 23.2832C171.377 23.8153 169.776 24.1954 168.175 24.4234C166.583 24.661 164.954 24.7797 163.286 24.7797C161.155 24.7797 159.255 24.5517 157.588 24.0956C155.93 23.63 154.533 22.9601 153.396 22.086C152.259 21.2118 151.392 20.1429 150.796 18.8791C150.199 17.6154 149.9 16.1854 149.9 14.5891C149.9 13.1068 150.199 11.7338 150.796 10.4701C151.402 9.19684 152.255 8.09464 153.353 7.16346C154.462 6.22279 155.798 5.49115 157.361 4.96856C158.924 4.43646 160.667 4.17041 162.59 4.17041C164.362 4.17041 165.982 4.4127 167.45 4.89729C168.928 5.37238 170.192 6.08026 171.244 7.02094C172.305 7.96161 173.124 9.12083 173.702 10.4986C174.29 11.8763 174.583 13.4631 174.583 15.259V16.5702H155.343C155.513 17.1878 155.793 17.7532 156.181 18.2663C156.579 18.7794 157.114 19.2164 157.787 19.5775C158.46 19.9386 159.284 20.2189 160.26 20.4184C161.245 20.618 162.42 20.7177 163.784 20.7177C164.75 20.7177 165.697 20.6607 166.626 20.5467C167.554 20.4232 168.421 20.2664 169.226 20.0764C170.031 19.8768 170.756 19.6583 171.4 19.4207C172.054 19.1832 172.58 18.9456 172.978 18.7081V23.2832ZM169.34 12.6935C169.292 12.2089 169.146 11.7101 168.899 11.197C168.663 10.6744 168.284 10.204 167.763 9.78595C167.241 9.36787 166.559 9.02581 165.716 8.75976C164.873 8.48421 163.822 8.34643 162.562 8.34643C161.377 8.34643 160.354 8.49371 159.492 8.78826C158.63 9.08282 157.905 9.44864 157.318 9.88572C156.74 10.3228 156.29 10.7931 155.968 11.2967C155.646 11.8003 155.438 12.2659 155.343 12.6935H169.34Z" fill="#E5FF00"/>
<path d="M135.221 8.84533C134.606 8.84533 134.051 8.86909 133.559 8.9166C133.076 8.96411 132.664 9.07813 132.323 9.25866C131.981 9.43919 131.721 9.70999 131.541 10.0711C131.361 10.4226 131.271 10.9072 131.271 11.5248V12.2517H145.993V16.4277H131.271V24.2524H125.999V11.083C125.999 10.0758 126.146 9.17314 126.44 8.375C126.743 7.57685 127.245 6.90698 127.946 6.36538C128.647 5.81427 129.575 5.3962 130.731 5.11114C131.887 4.81659 133.327 4.66931 135.051 4.66931H146.689V8.84533H135.221Z" fill="#E5FF00"/>
<path d="M114.702 24.2524V13.2778C114.702 12.5462 114.64 11.8858 114.517 11.2967C114.394 10.6981 114.162 10.1898 113.821 9.7717C113.489 9.34412 113.02 9.01631 112.414 8.78826C111.817 8.55072 111.045 8.43195 110.098 8.43195C109.378 8.43195 108.62 8.53172 107.824 8.73125C107.038 8.92129 106.256 9.17784 105.48 9.5009C104.703 9.82396 103.959 10.1993 103.249 10.6269C102.547 11.0544 101.922 11.501 101.373 11.9666V24.2524H96.1008V4.66925H101.373V7.34875C102.036 6.96868 102.742 6.59336 103.49 6.22279C104.239 5.84272 105.034 5.50066 105.877 5.1966C106.721 4.89254 107.616 4.6455 108.563 4.45546C109.51 4.26543 110.51 4.17041 111.561 4.17041C112.878 4.17041 114.053 4.33194 115.086 4.655C116.128 4.96856 117.009 5.41989 117.729 6.009C118.449 6.58861 118.998 7.29649 119.377 8.13264C119.765 8.9593 119.96 9.88572 119.96 10.9119V24.2524H114.702Z" fill="#E5FF00"/>
<path d="M89.7062 23.2832C88.1052 23.8153 86.5042 24.1954 84.9031 24.4234C83.3116 24.661 81.6822 24.7797 80.0149 24.7797C77.8833 24.7797 75.9839 24.5517 74.3166 24.0956C72.6587 23.63 71.2614 22.9601 70.1246 22.086C68.9878 21.2118 68.121 20.1429 67.5241 18.8791C66.9273 17.6154 66.6289 16.1854 66.6289 14.5891C66.6289 13.1068 66.9273 11.7338 67.5241 10.4701C68.1304 9.19684 68.9831 8.09464 70.082 7.16346C71.1904 6.22279 72.5261 5.49115 74.0892 4.96856C75.6523 4.43646 77.3955 4.17041 79.3186 4.17041C81.0901 4.17041 82.71 4.4127 84.1784 4.89729C85.6563 5.37238 86.921 6.08026 87.9725 7.02094C89.0336 7.96161 89.853 9.12083 90.4309 10.4986C91.0182 11.8763 91.3119 13.4631 91.3119 15.259V16.5702H72.0714C72.2419 17.1878 72.5214 17.7532 72.9098 18.2663C73.3077 18.7794 73.8429 19.2164 74.5155 19.5775C75.1881 19.9386 76.0123 20.2189 76.9881 20.4184C77.9733 20.618 79.148 20.7177 80.5122 20.7177C81.4785 20.7177 82.4258 20.6607 83.3542 20.5467C84.2826 20.4232 85.1495 20.2664 85.9547 20.0764C86.7599 19.8768 87.4847 19.6583 88.1288 19.4207C88.7825 19.1832 89.3083 18.9456 89.7062 18.7081V23.2832ZM86.0684 12.6935C86.021 12.2089 85.8742 11.7101 85.6279 11.197C85.391 10.6744 85.0121 10.204 84.4911 9.78595C83.97 9.36787 83.2879 9.02581 82.4448 8.75976C81.6017 8.48421 80.5501 8.34643 79.2901 8.34643C78.106 8.34643 77.0828 8.49371 76.2208 8.78826C75.3587 9.08282 74.634 9.44864 74.0466 9.88572C73.4687 10.3228 73.0187 10.7931 72.6966 11.2967C72.3745 11.8003 72.1661 12.2659 72.0714 12.6935H86.0684Z" fill="#E5FF00"/>
<path d="M63.1191 18.8507C63.1191 19.6108 63.0196 20.2712 62.8207 20.8318C62.6217 21.3924 62.3423 21.877 61.9823 22.2856C61.6318 22.6846 61.2055 23.0125 60.7034 23.269C60.2108 23.516 59.6613 23.7156 59.055 23.8676C58.4582 24.0101 57.8187 24.1099 57.1366 24.1669C56.4545 24.2239 55.7488 24.2524 55.0193 24.2524H40.8518V4.66931H54.7635C55.3225 4.66931 55.8814 4.69307 56.4403 4.74057C57.0087 4.78808 57.5487 4.87835 58.0603 5.01137C58.5718 5.1349 59.0455 5.31068 59.4813 5.53872C59.9265 5.76676 60.3102 6.06607 60.6323 6.43664C60.9639 6.80721 61.2197 7.25379 61.3997 7.77639C61.5891 8.29898 61.6839 8.9166 61.6839 9.62923C61.6839 10.9025 61.3712 11.9144 60.746 12.665C60.1208 13.4062 59.1355 13.9003 57.7903 14.1473C58.7376 14.2138 59.5476 14.3611 60.2202 14.5891C60.9023 14.8077 61.4565 15.1117 61.8828 15.5013C62.3091 15.8814 62.6217 16.3517 62.8207 16.9123C63.0196 17.4634 63.1191 18.1095 63.1191 18.8507ZM56.5398 10.4701C56.5398 10.2231 56.5019 9.9903 56.4261 9.77176C56.3503 9.54371 56.213 9.34418 56.014 9.17314C55.8151 9.00211 55.5451 8.86434 55.204 8.75982C54.863 8.6553 54.4272 8.60304 53.8967 8.60304H46.1238V12.2802H53.8967C54.4272 12.2802 54.863 12.2327 55.204 12.1377C55.5451 12.0427 55.8151 11.9144 56.014 11.7529C56.213 11.5913 56.3503 11.4013 56.4261 11.1828C56.5019 10.9547 56.5398 10.7172 56.5398 10.4701ZM57.7619 18.2378C57.7619 17.7912 57.6861 17.4349 57.5345 17.1689C57.3829 16.8933 57.1461 16.6843 56.824 16.5418C56.5019 16.3897 56.0851 16.29 55.5735 16.2425C55.0619 16.1949 54.4509 16.1712 53.7404 16.1712H46.1238V20.3187H53.7404C54.4509 20.3187 55.0619 20.295 55.5735 20.2474C56.0851 20.1999 56.5019 20.1002 56.824 19.9481C57.1461 19.7961 57.3829 19.5871 57.5345 19.321C57.6861 19.0455 57.7619 18.6844 57.7619 18.2378Z" fill="#E5FF00"/>
<path d="M10.4251 23.7157V17.7266C8.65591 17.625 6.95332 17.3779 5.46597 16.9916C3.57426 16.5002 1.74836 15.7152 0.757117 14.4629C0.199704 13.7587 -0.141343 12.8348 0.0567985 11.811C0.242583 10.8515 0.842125 10.1235 1.47551 9.60584C2.7094 8.59747 4.62448 7.92514 6.70938 7.51764C7.7125 7.32159 8.6843 7.97804 8.87991 8.98409C9.07538 9.99021 8.42088 10.9649 7.41783 11.1611C5.6561 11.5054 4.5005 11.9861 3.92888 12.3956C4.31916 12.6733 5.0911 13.0595 6.39401 13.398C7.93343 13.7978 9.85215 14.0344 11.8773 14.0623C12.0057 14.034 12.1389 14.0179 12.2758 14.0179C12.4124 14.0179 12.5452 14.0342 12.6734 14.0623C14.6988 14.0345 16.6179 13.7979 18.1576 13.398C19.4598 13.0597 20.2313 12.6733 20.6218 12.3956C20.05 11.9862 18.8949 11.5053 17.1337 11.1611C16.1307 10.9649 15.4762 9.99021 15.6717 8.98409C15.8673 7.97804 16.8391 7.32159 17.8422 7.51764C19.9271 7.92514 21.8422 8.59747 23.0761 9.60584C23.7094 10.1235 24.309 10.8515 24.4948 11.811C24.6929 12.8348 24.3519 13.7587 23.7944 14.4629C22.8032 15.7152 20.9773 16.5002 19.0856 16.9916C17.5982 17.3779 15.8957 17.625 14.1264 17.7266V23.7157C14.1264 24.7409 13.2979 25.5719 12.2758 25.5719C11.2537 25.5719 10.4251 24.7409 10.4251 23.7157ZM10.4251 10.6463V4.66085H3.15447C2.13238 4.66085 1.30382 3.82981 1.30382 2.80467C1.30382 1.77953 2.13238 0.948488 3.15447 0.948486H21.3971C22.4192 0.948489 23.2477 1.77953 23.2477 2.80467C23.2477 3.82981 22.4192 4.66085 21.3971 4.66085H14.1264V10.6463C14.1264 11.6715 13.2979 12.5025 12.2758 12.5025C11.2537 12.5025 10.4251 11.6715 10.4251 10.6463Z" fill="#E5FF00"/>
</svg>
