<svg width="203" height="25" viewBox="0 0 203 25" fill="none" xmlns="http://www.w3.org/2000/svg">
<path d="M192.789 13.4441L202.054 23.4922H195.731L189.62 16.8932L183.538 23.4922H177.229L186.48 13.4441L177.684 3.90906H184.007L189.62 10.0377L195.262 3.90906H201.585L192.789 13.4441Z" fill="#040404"/>
<path d="M173.478 22.5229C171.877 23.055 170.276 23.4351 168.675 23.6632C167.083 23.9007 165.454 24.0195 163.786 24.0195C161.655 24.0195 159.755 23.7914 158.088 23.3353C156.43 22.8698 155.033 22.1999 153.896 21.3257C152.759 20.4516 151.892 19.3826 151.296 18.1189C150.699 16.8551 150.4 15.4251 150.4 13.8288C150.4 12.3466 150.699 10.9736 151.296 9.70982C151.902 8.43659 152.755 7.33438 153.853 6.40321C154.962 5.46254 156.298 4.7309 157.861 4.2083C159.424 3.67621 161.167 3.41016 163.09 3.41016C164.862 3.41016 166.482 3.65245 167.95 4.13704C169.428 4.61213 170.692 5.32001 171.744 6.26068C172.805 7.20136 173.624 8.36057 174.202 9.73833C174.79 11.1161 175.083 12.7029 175.083 14.4987V15.81H155.843C156.013 16.4276 156.293 16.9929 156.681 17.506C157.079 18.0191 157.614 18.4562 158.287 18.8173C158.96 19.1783 159.784 19.4586 160.76 19.6582C161.745 19.8577 162.92 19.9575 164.284 19.9575C165.25 19.9575 166.197 19.9005 167.126 19.7864C168.054 19.6629 168.921 19.5061 169.726 19.3161C170.531 19.1166 171.256 18.898 171.9 18.6605C172.554 18.4229 173.08 18.1854 173.478 17.9478V22.5229ZM169.84 11.9332C169.792 11.4486 169.646 10.9498 169.399 10.4367C169.163 9.91411 168.784 9.44377 168.263 9.0257C167.741 8.60762 167.059 8.26555 166.216 7.99951C165.373 7.72395 164.322 7.58618 163.062 7.58618C161.877 7.58618 160.854 7.73346 159.992 8.02801C159.13 8.32257 158.405 8.68838 157.818 9.12546C157.24 9.56254 156.79 10.0329 156.468 10.5365C156.146 11.0401 155.938 11.5057 155.843 11.9332H169.84Z" fill="#040404"/>
<path d="M135.721 8.08508C135.105 8.08508 134.551 8.10883 134.058 8.15634C133.575 8.20385 133.163 8.31787 132.822 8.49841C132.481 8.67894 132.22 8.94974 132.04 9.31081C131.86 9.66237 131.77 10.147 131.77 10.7646V11.4915H146.492V15.6675H131.77V23.4922H126.499V10.3227C126.499 9.31556 126.645 8.41289 126.939 7.61474C127.242 6.8166 127.744 6.14672 128.445 5.60512C129.146 5.05402 130.075 4.63594 131.231 4.35089C132.386 4.05633 133.826 3.90906 135.55 3.90906H147.188V8.08508H135.721Z" fill="#040404"/>
<path d="M115.202 23.4921V12.5176C115.202 11.786 115.14 11.1256 115.017 10.5365C114.894 9.93786 114.662 9.42952 114.321 9.01144C113.989 8.58386 113.52 8.25605 112.914 8.02801C112.317 7.79047 111.545 7.67169 110.598 7.67169C109.878 7.67169 109.12 7.77146 108.324 7.971C107.538 8.16104 106.756 8.41758 105.979 8.74064C105.202 9.0637 104.459 9.43902 103.748 9.8666C103.047 10.2942 102.422 10.7408 101.873 11.2063V23.4921H96.6006V3.909H101.873V6.58849C102.536 6.20842 103.241 5.8331 103.99 5.46254C104.738 5.08247 105.534 4.7404 106.377 4.43635C107.22 4.13229 108.116 3.88524 109.063 3.69521C110.01 3.50517 111.01 3.41016 112.061 3.41016C113.378 3.41016 114.553 3.57169 115.585 3.89475C116.627 4.2083 117.508 4.65964 118.228 5.24875C118.948 5.82835 119.498 6.53623 119.877 7.37239C120.265 8.19904 120.459 9.12546 120.459 10.1517V23.4921H115.202Z" fill="#040404"/>
<path d="M90.2062 22.5229C88.6052 23.055 87.0042 23.4351 85.4031 23.6632C83.8116 23.9007 82.1822 24.0195 80.5149 24.0195C78.3833 24.0195 76.4839 23.7914 74.8166 23.3353C73.1587 22.8698 71.7614 22.1999 70.6246 21.3257C69.4878 20.4516 68.621 19.3826 68.0241 18.1189C67.4273 16.8551 67.1289 15.4251 67.1289 13.8288C67.1289 12.3466 67.4273 10.9736 68.0241 9.70982C68.6304 8.43659 69.4831 7.33438 70.582 6.40321C71.6904 5.46254 73.0261 4.7309 74.5892 4.2083C76.1523 3.67621 77.8955 3.41016 79.8186 3.41016C81.5901 3.41016 83.21 3.65245 84.6784 4.13704C86.1563 4.61213 87.421 5.32001 88.4725 6.26068C89.5336 7.20136 90.353 8.36057 90.9309 9.73833C91.5182 11.1161 91.8119 12.7029 91.8119 14.4987V15.81H72.5714C72.7419 16.4276 73.0214 16.9929 73.4098 17.506C73.8077 18.0191 74.3429 18.4562 75.0155 18.8173C75.6881 19.1783 76.5123 19.4586 77.4881 19.6582C78.4733 19.8577 79.648 19.9575 81.0122 19.9575C81.9785 19.9575 82.9258 19.9005 83.8542 19.7864C84.7826 19.6629 85.6495 19.5061 86.4547 19.3161C87.2599 19.1166 87.9847 18.898 88.6288 18.6605C89.2825 18.4229 89.8083 18.1854 90.2062 17.9478V22.5229ZM86.5684 11.9332C86.521 11.4486 86.3742 10.9498 86.1279 10.4367C85.891 9.91411 85.5121 9.44377 84.9911 9.0257C84.47 8.60762 83.7879 8.26555 82.9448 7.99951C82.1017 7.72395 81.0501 7.58618 79.7901 7.58618C78.606 7.58618 77.5828 7.73346 76.7208 8.02801C75.8587 8.32257 75.134 8.68838 74.5466 9.12546C73.9687 9.56254 73.5187 10.0329 73.1966 10.5365C72.8745 11.0401 72.6661 11.5057 72.5714 11.9332H86.5684Z" fill="#040404"/>
<path d="M63.6189 18.0904C63.6189 18.8506 63.5194 19.5109 63.3204 20.0715C63.1215 20.6322 62.842 21.1167 62.482 21.5253C62.1315 21.9244 61.7052 22.2522 61.2031 22.5087C60.7105 22.7558 60.1611 22.9553 59.5548 23.1074C58.9579 23.2499 58.3185 23.3497 57.6364 23.4067C56.9543 23.4637 56.2485 23.4922 55.5191 23.4922H41.3516V3.90906H55.2633C55.8222 3.90906 56.3812 3.93281 56.9401 3.98032C57.5085 4.02783 58.0485 4.1181 58.56 4.25112C59.0716 4.37464 59.5453 4.55043 59.9811 4.77847C60.4263 5.00651 60.81 5.30582 61.1321 5.67638C61.4636 6.04695 61.7194 6.49354 61.8994 7.01613C62.0889 7.53873 62.1836 8.15634 62.1836 8.86898C62.1836 10.1422 61.871 11.1541 61.2458 11.9048C60.6205 12.6459 59.6353 13.14 58.29 13.3871C59.2374 13.4536 60.0474 13.6009 60.72 13.8289C61.4021 14.0474 61.9563 14.3515 62.3826 14.7411C62.8089 15.1211 63.1215 15.5915 63.3204 16.1521C63.5194 16.7032 63.6189 17.3493 63.6189 18.0904ZM57.0396 9.70988C57.0396 9.46284 57.0017 9.23004 56.9259 9.0115C56.8501 8.78346 56.7127 8.58392 56.5138 8.41289C56.3148 8.24186 56.0448 8.10408 55.7038 7.99956C55.3628 7.89505 54.927 7.84279 54.3965 7.84279H46.6235V11.52H54.3965C54.927 11.52 55.3628 11.4725 55.7038 11.3774C56.0448 11.2824 56.3148 11.1541 56.5138 10.9926C56.7127 10.8311 56.8501 10.6411 56.9259 10.4225C57.0017 10.1945 57.0396 9.95693 57.0396 9.70988ZM58.2616 17.4776C58.2616 17.031 58.1858 16.6747 58.0343 16.4086C57.8827 16.1331 57.6459 15.924 57.3238 15.7815C57.0017 15.6295 56.5848 15.5297 56.0733 15.4822C55.5617 15.4347 54.9507 15.4109 54.2402 15.4109H46.6235V19.5585H54.2402C54.9507 19.5585 55.5617 19.5347 56.0733 19.4872C56.5848 19.4397 57.0017 19.3399 57.3238 19.1879C57.6459 19.0359 57.8827 18.8268 58.0343 18.5608C58.1858 18.2852 58.2616 17.9242 58.2616 17.4776Z" fill="#040404"/>
<path d="M10.9251 22.9555V16.9664C9.15591 16.8647 7.45332 16.6177 5.96597 16.2314C4.07426 15.74 2.24836 14.9549 1.25712 13.7027C0.699704 12.9985 0.358657 12.0746 0.556798 11.0507C0.742583 10.0912 1.34212 9.36326 1.97551 8.84559C3.2094 7.83722 5.12448 7.16488 7.20938 6.75738C8.2125 6.56134 9.1843 7.21779 9.37991 8.22384C9.57538 9.22996 8.92088 10.2047 7.91783 10.4009C6.1561 10.7452 5.0005 11.2258 4.42888 11.6353C4.81916 11.9131 5.5911 12.2993 6.89401 12.6377C8.43343 13.0376 10.3522 13.2742 12.3773 13.3021C12.5057 13.2738 12.6389 13.2577 12.7758 13.2577C12.9124 13.2577 13.0452 13.2739 13.1734 13.3021C15.1988 13.2742 17.1179 13.0376 18.6576 12.6377C19.9598 12.2995 20.7313 11.913 21.1218 11.6353C20.55 11.2259 19.3949 10.7451 17.6337 10.4009C16.6307 10.2047 15.9762 9.22996 16.1717 8.22384C16.3673 7.21779 17.3391 6.56134 18.3422 6.75738C20.4271 7.16488 22.3422 7.83722 23.5761 8.84559C24.2094 9.36326 24.809 10.0912 24.9948 11.0507C25.1929 12.0746 24.8519 12.9985 24.2944 13.7027C23.3032 14.9549 21.4773 15.74 19.5856 16.2314C18.0982 16.6177 16.3957 16.8647 14.6264 16.9664V22.9555C14.6264 23.9806 13.7979 24.8117 12.7758 24.8117C11.7537 24.8117 10.9251 23.9806 10.9251 22.9555ZM10.9251 9.88607V3.9006H3.65447C2.63238 3.9006 1.80382 3.06956 1.80382 2.04442C1.80382 1.01928 2.63238 0.188234 3.65447 0.188232H21.8971C22.9192 0.188235 23.7477 1.01928 23.7477 2.04442C23.7477 3.06956 22.9192 3.9006 21.8971 3.9006H14.6264V9.88607C14.6264 10.9112 13.7979 11.7423 12.7758 11.7423C11.7537 11.7423 10.9251 10.9112 10.9251 9.88607Z" fill="#040404"/>
</svg>
