<svg width="636" height="693" viewBox="0 0 636 693" fill="none" xmlns="http://www.w3.org/2000/svg">
<path d="M474.899 692.693L421.759 643.259C399.069 660.11 411.1 649.455 376.397 658.217C341.694 666.98 305.322 671.361 267.282 671.361C185.195 671.361 120.127 654.51 72.076 620.807C24.0253 586.43 0 540.594 0 483.299C0 439.486 10.6779 402.412 32.0338 372.08C53.3896 341.747 83.755 315.459 123.13 293.215C105.111 275.016 91.0961 256.479 81.0855 237.605C71.075 218.732 66.0697 196.151 66.0697 169.863C66.0697 118.634 85.0897 77.5166 123.13 46.51C161.17 15.5033 211.89 0 275.29 0C338.691 0 390.078 15.5033 429.453 46.51C468.828 76.8426 488.515 117.96 488.515 169.863C488.515 200.869 482.175 227.831 469.495 250.749C456.815 273.667 456.874 288.379 431.514 309.949L488.76 337.911L498.614 316.11L611.153 352L606.39 378.846C606.39 378.846 599.149 416.135 595.739 443.867C589.185 497.18 589.185 490.56 589.185 497.18L635.017 547.214L474.899 692.693ZM276.291 235.583C289.639 227.494 299.649 219.406 306.323 211.317C313.664 203.228 317.335 192.781 317.335 179.973C317.335 168.514 313.998 159.078 307.324 151.663C301.318 144.248 291.641 140.541 278.293 140.541C263.611 140.541 252.933 144.585 246.26 152.674C240.253 160.089 237.25 169.188 237.25 179.973C237.25 192.106 240.587 202.217 247.261 210.306C253.934 218.395 263.611 226.82 276.291 235.583ZM267.282 525.765C294.644 525.765 316.334 518.687 332.35 504.532L252.266 422.634C237.584 428.027 226.239 435.104 218.23 443.867C210.222 452.63 206.217 464.089 206.217 478.244C206.217 493.073 211.556 504.869 222.234 513.632C233.58 521.721 248.595 525.765 267.282 525.765Z" fill="#E5FF00"/>
<path d="M229.067 27.1718L229.914 33.6447L237.529 32.6484L237.915 35.5993L230.3 36.5955L231.184 43.3539L239.751 42.2332L240.137 45.184L227.953 46.778L225.064 24.6942L237.248 23.1002L237.634 26.051L229.067 27.1718Z" fill="#1F1F1F"/>
<path d="M257.74 34.0613C257.773 32.2909 258.165 30.73 258.916 29.3785C259.688 28.0274 260.71 26.9903 261.982 26.2674C263.277 25.5235 264.692 25.1659 266.227 25.1947C267.614 25.2207 268.814 25.5205 269.827 26.0943C270.862 26.6471 271.681 27.3346 272.285 28.1567L272.333 25.5971L276.012 25.6661L275.682 43.295L272.003 43.226L272.052 40.6025C271.418 41.4228 270.562 42.1002 269.485 42.6348C268.408 43.1694 267.187 43.4239 265.822 43.3983C264.308 43.3699 262.929 42.96 261.685 42.1686C260.441 41.3558 259.459 40.2492 258.738 38.8488C258.039 37.4275 257.706 35.8316 257.74 34.0613ZM272.168 34.3956C272.191 33.1798 271.955 32.1192 271.459 31.2138C270.986 30.3087 270.348 29.614 269.546 29.1296C268.744 28.6451 267.874 28.3941 266.936 28.3765C265.997 28.3589 265.118 28.5772 264.299 29.0313C263.48 29.464 262.806 30.1235 262.278 31.0097C261.771 31.8751 261.506 32.9156 261.483 34.1314C261.46 35.3472 261.686 36.4183 262.159 37.3446C262.654 38.2714 263.302 38.9877 264.103 39.4934C264.926 39.9783 265.796 40.2293 266.713 40.2464C267.652 40.264 268.531 40.0458 269.35 39.5917C270.169 39.1377 270.833 38.4673 271.34 37.5806C271.869 36.6731 272.145 35.6114 272.168 34.3956Z" fill="#1F1F1F"/>
<path d="M300.849 29.6077C301.522 28.8107 302.329 28.2414 303.272 27.9C304.24 27.541 305.323 27.4607 306.523 27.659L305.907 31.3844L304.992 31.2331C303.581 30.9999 302.449 31.1803 301.594 31.7741C300.76 32.3714 300.197 33.5541 299.905 35.3221L298.391 44.4778L294.792 43.8828L297.668 26.4869L301.267 27.082L300.849 29.6077Z" fill="#1F1F1F"/>
<path d="M335.032 34.5009C336.339 34.965 337.408 35.6505 338.241 36.5574C339.093 37.4715 339.622 38.5648 339.827 39.8373C340.031 41.1098 339.866 42.5 339.33 44.0077L335.849 53.8079L332.442 52.5976L335.741 43.31C336.269 41.8224 336.3 40.5545 335.835 39.5063C335.377 38.438 334.505 37.6754 333.218 37.2184C331.931 36.7614 330.763 36.7993 329.714 37.3321C328.692 37.8519 327.916 38.8556 327.388 40.3433L324.089 49.6308L320.651 48.4098L326.553 31.7948L329.99 33.0157L329.316 34.9155C330.121 34.4319 331.024 34.1526 332.024 34.0777C333.044 34.0099 334.047 34.151 335.032 34.5009Z" fill="#1F1F1F"/>
<path d="M384.747 62.8368C385.748 62.6458 386.831 62.6996 387.996 62.9982C389.161 63.2968 390.243 63.8946 391.244 64.7914C392.389 65.8163 393.173 67.0347 393.598 68.4466C394.053 69.8568 394.095 71.3124 393.725 72.8133C393.354 74.3142 392.578 75.7241 391.396 77.0429C390.215 78.3617 388.884 79.3035 387.404 79.8682C385.939 80.4171 384.466 80.5584 382.986 80.2922C381.536 80.0243 380.239 79.3779 379.095 78.353C378.094 77.4562 377.382 76.4604 376.959 75.3657C376.551 74.255 376.371 73.1772 376.419 72.1321L369.116 80.2834L366.399 77.8492L383.759 58.472L386.476 60.9062L384.747 62.8368ZM388.631 74.566C389.443 73.6603 389.95 72.7109 390.152 71.7178C390.384 70.7231 390.34 69.7812 390.019 68.8924C389.729 68.0019 389.234 67.2435 388.535 66.6171C387.851 66.005 387.043 65.5962 386.111 65.3906C385.194 65.1992 384.245 65.2664 383.266 65.5921C382.303 65.9321 381.416 66.5549 380.604 67.4606C379.793 68.3663 379.264 69.3245 379.017 70.3351C378.801 71.3441 378.838 72.2939 379.128 73.1844C379.435 74.0891 379.93 74.8475 380.613 75.4596C381.312 76.086 382.12 76.4948 383.037 76.6862C383.984 76.8759 384.946 76.7928 385.924 76.437C386.917 76.0954 387.82 75.4717 388.631 74.566Z" fill="#1F1F1F"/>
<path d="M404.395 89.0016C405.884 88.0434 407.399 87.4999 408.94 87.371C410.492 87.26 411.922 87.5317 413.231 88.1861C414.57 88.8469 415.655 89.8231 416.486 91.1148C417.236 92.2809 417.655 93.4446 417.743 94.6058C417.86 95.7735 417.745 96.8368 417.398 97.7957L419.551 96.4104L421.543 99.505L406.715 109.047L404.724 105.952L406.931 104.532C405.896 104.462 404.857 104.128 403.813 103.532C402.77 102.935 401.879 102.062 401.14 100.914C400.32 99.6405 399.893 98.2666 399.857 96.7925C399.84 95.3069 400.212 93.875 400.974 92.4967C401.766 91.1248 402.906 89.9598 404.395 89.0016ZM412.151 101.173C413.174 100.514 413.923 99.7277 414.4 98.8123C414.888 97.9148 415.109 96.9982 415.065 96.0626C415.021 95.1269 414.745 94.2643 414.237 93.475C413.73 92.6856 413.059 92.0771 412.226 91.6494C411.41 91.2101 410.487 91.0176 409.457 91.0719C408.456 91.1326 407.444 91.492 406.421 92.15C405.399 92.8081 404.634 93.5916 404.128 94.5006C403.634 95.4276 403.4 96.3647 403.426 97.3119C403.482 98.2656 403.758 99.1281 404.254 99.8995C404.762 100.689 405.433 101.297 406.266 101.725C407.099 102.153 408.026 102.331 409.045 102.258C410.093 102.192 411.129 101.831 412.151 101.173Z" fill="#1F1F1F"/>
<path d="M417.77 130.241C417.346 128.921 417.199 127.658 417.327 126.451C417.482 125.259 417.868 124.228 418.485 123.358C419.123 122.481 419.943 121.86 420.945 121.493L422.099 125.089C421.407 125.378 420.916 125.905 420.624 126.671C420.358 127.451 420.376 128.308 420.676 129.242C420.988 130.217 421.412 130.91 421.947 131.321C422.509 131.745 423.085 131.863 423.674 131.674C424.304 131.472 424.673 131.018 424.782 130.311C424.898 129.624 424.93 128.572 424.879 127.154C424.82 125.784 424.826 124.651 424.897 123.754C424.968 122.858 425.244 122.007 425.725 121.203C426.213 120.419 427.006 119.852 428.103 119.5C428.996 119.213 429.894 119.216 430.794 119.51C431.715 119.797 432.546 120.36 433.285 121.198C434.031 122.056 434.609 123.126 435.02 124.405C435.632 126.315 435.637 128.005 435.033 129.476C434.456 130.96 433.348 132.01 431.708 132.626L430.594 129.152C431.326 128.85 431.828 128.353 432.099 127.661C432.37 126.969 432.355 126.156 432.055 125.222C431.762 124.308 431.365 123.662 430.863 123.285C430.361 122.909 429.826 122.812 429.257 122.994C428.81 123.137 428.487 123.42 428.286 123.843C428.086 124.266 427.969 124.74 427.936 125.266C427.923 125.785 427.932 126.545 427.961 127.543C428.027 128.866 428.011 129.969 427.913 130.852C427.842 131.749 427.573 132.585 427.106 133.363C426.638 134.14 425.869 134.712 424.799 135.077C423.844 135.384 422.906 135.393 421.985 135.106C421.064 134.819 420.234 134.256 419.495 133.418C418.762 132.6 418.187 131.541 417.77 130.241Z" fill="#1F1F1F"/>
<path d="M425.595 159.748C425.451 158.368 425.566 157.102 425.939 155.947C426.335 154.812 426.925 153.882 427.707 153.157C428.511 152.43 429.441 151.99 430.497 151.837L430.889 155.592C430.153 155.733 429.563 156.149 429.12 156.838C428.701 157.547 428.542 158.389 428.644 159.365C428.75 160.384 429.023 161.149 429.462 161.661C429.925 162.192 430.464 162.425 431.08 162.361C431.737 162.293 432.192 161.923 432.444 161.254C432.698 160.605 432.946 159.582 433.186 158.184C433.41 156.831 433.648 155.723 433.901 154.86C434.154 153.997 434.599 153.222 435.235 152.533C435.873 151.866 436.765 151.473 437.911 151.354C438.845 151.256 439.722 151.444 440.544 151.916C441.386 152.386 442.083 153.107 442.635 154.079C443.189 155.072 443.536 156.237 443.675 157.574C443.883 159.568 443.541 161.223 442.648 162.539C441.779 163.873 440.479 164.674 438.748 164.94L438.37 161.312C439.148 161.166 439.741 160.783 440.148 160.161C440.555 159.54 440.708 158.741 440.606 157.765C440.507 156.81 440.25 156.097 439.836 155.625C439.423 155.153 438.919 154.949 438.325 155.01C437.858 155.059 437.483 155.27 437.2 155.642C436.917 156.015 436.706 156.455 436.566 156.963C436.447 157.469 436.299 158.214 436.123 159.197C435.916 160.506 435.674 161.582 435.398 162.426C435.144 163.289 434.709 164.053 434.092 164.717C433.475 165.382 432.605 165.784 431.483 165.922C430.486 166.026 429.566 165.843 428.723 165.374C427.881 164.904 427.183 164.183 426.632 163.211C426.082 162.26 425.737 161.106 425.595 159.748Z" fill="#1F1F1F"/>
<path d="M448.131 187.273C448.157 186.612 448.402 186.066 448.867 185.636C449.332 185.206 449.895 185.003 450.556 185.029C451.217 185.055 451.762 185.3 452.193 185.765C452.623 186.23 452.825 186.793 452.8 187.454C452.775 188.094 452.53 188.628 452.065 189.059C451.6 189.489 451.037 189.691 450.376 189.666C449.715 189.64 449.17 189.395 448.739 188.93C448.309 188.465 448.106 187.912 448.131 187.273ZM445.727 188.973L428.109 188.288L428.25 184.643L445.869 185.327L445.727 188.973Z" fill="#1F1F1F"/>
<path d="M429.022 214.606L442.157 222.275L441.411 226.074L425.406 216.08L426.245 211.81L444.836 208.648L444.083 212.479L429.022 214.606Z" fill="#1F1F1F"/>
<path d="M422.545 256.953C421.943 256.681 421.416 256.397 420.964 256.1L426.502 243.818C425.174 243.337 423.929 243.349 422.765 243.854C421.601 244.359 420.739 245.234 420.177 246.478C419.371 248.267 419.55 249.869 420.714 251.283L419.096 254.872C417.837 253.719 417.021 252.286 416.647 250.573C416.283 248.888 416.526 247.102 417.377 245.216C418.07 243.679 419.032 242.452 420.266 241.533C421.509 240.643 422.911 240.129 424.472 239.99C426.043 239.879 427.655 240.196 429.308 240.942C430.961 241.687 432.261 242.671 433.207 243.893C434.165 245.144 434.712 246.525 434.849 248.038C434.977 249.57 434.686 251.124 433.976 252.699C433.292 254.216 432.352 255.419 431.156 256.307C429.96 257.195 428.61 257.698 427.106 257.816C425.621 257.942 424.101 257.655 422.545 256.953ZM425.161 253.955C426.395 254.488 427.574 254.493 428.699 253.971C429.824 253.448 430.671 252.555 431.241 251.291C431.758 250.143 431.832 248.995 431.461 247.845C431.11 246.703 430.347 245.774 429.172 245.058L425.161 253.955Z" fill="#1F1F1F"/>
<path d="M407.566 302.391C407.994 301.887 408.525 301.61 409.156 301.56C409.788 301.509 410.355 301.698 410.859 302.127C411.362 302.556 411.639 303.086 411.69 303.717C411.741 304.349 411.551 304.917 411.123 305.42C410.708 305.907 410.184 306.176 409.553 306.227C408.921 306.277 408.354 306.088 407.85 305.66C407.347 305.231 407.07 304.701 407.019 304.069C406.969 303.438 407.151 302.878 407.566 302.391ZM404.625 302.241L391.201 290.809L393.567 288.032L406.991 299.463L404.625 302.241Z" fill="#1F1F1F"/>
<path d="M397.228 321.201C397.585 322.541 397.626 323.811 397.35 325.01C397.079 326.231 396.478 327.285 395.545 328.175C394.612 329.064 393.372 329.715 391.826 330.127L381.778 332.809L380.846 329.315L390.368 326.774C391.894 326.367 392.957 325.675 393.557 324.698C394.178 323.715 394.312 322.564 393.96 321.245C393.608 319.926 392.916 318.984 391.882 318.421C390.875 317.873 389.608 317.803 388.083 318.21L378.56 320.751L377.62 317.226L394.656 312.68L395.596 316.205L393.648 316.724C394.503 317.115 395.245 317.701 395.873 318.482C396.506 319.285 396.958 320.191 397.228 321.201Z" fill="#1F1F1F"/>
<path d="M394.112 341.983C395.501 340.817 396.952 340.073 398.464 339.751C400.006 339.431 401.481 339.529 402.89 340.046C404.298 340.563 405.545 341.466 406.628 342.757C408 344.391 408.739 346.068 408.846 347.789C408.984 349.512 408.491 351.165 407.369 352.748L404.838 349.733C405.302 348.926 405.496 348.095 405.419 347.24C405.342 346.385 404.961 345.549 404.275 344.732C403.315 343.589 402.139 343.016 400.745 343.016C399.382 343.018 397.974 343.63 396.52 344.85C395.065 346.071 394.211 347.359 393.956 348.715C393.715 350.087 394.075 351.345 395.035 352.489C396.393 354.106 398.002 354.58 399.863 353.91L402.393 356.924C400.692 357.684 398.98 357.868 397.257 357.475C395.551 357.069 394.026 356.065 392.682 354.464C391.599 353.173 390.924 351.789 390.66 350.312C390.411 348.822 390.57 347.352 391.136 345.902C391.731 344.455 392.724 343.149 394.112 341.983Z" fill="#1F1F1F"/>
<path d="M415.449 381.586C414.38 380.312 413.699 378.92 413.406 377.41C413.131 375.887 413.269 374.393 413.821 372.927C414.389 371.447 415.367 370.124 416.756 368.958C418.129 367.806 419.6 367.086 421.169 366.799C422.739 366.512 424.249 366.652 425.698 367.218C427.148 367.783 428.415 368.711 429.498 370.002C430.582 371.293 431.277 372.701 431.582 374.227C431.888 375.753 431.764 377.264 431.21 378.76C430.655 380.256 429.691 381.58 428.319 382.732C426.946 383.885 425.468 384.596 423.885 384.867C422.302 385.137 420.763 384.98 419.27 384.396C417.807 383.814 416.533 382.877 415.449 381.586ZM417.876 379.549C418.479 380.268 419.213 380.794 420.078 381.127C420.956 381.476 421.902 381.559 422.918 381.375C423.933 381.191 424.931 380.688 425.912 379.865C426.892 379.042 427.559 378.161 427.914 377.223C428.285 376.271 428.381 375.341 428.203 374.432C428.025 373.523 427.634 372.709 427.031 371.99C426.427 371.271 425.693 370.745 424.829 370.412C423.978 370.096 423.059 370.046 422.071 370.262C421.099 370.465 420.123 370.978 419.143 371.801C417.689 373.022 416.87 374.336 416.686 375.743C416.533 377.153 416.93 378.422 417.876 379.549Z" fill="#1F1F1F"/>
<path d="M439.803 369.767C440.109 368.415 440.663 367.271 441.465 366.338C442.272 365.383 443.295 364.729 444.534 364.375C445.779 364.001 447.181 363.99 448.741 364.344L458.884 366.641L458.086 370.168L448.473 367.99C446.934 367.642 445.671 367.76 444.685 368.346C443.678 368.928 443.024 369.884 442.723 371.216C442.421 372.547 442.597 373.703 443.25 374.682C443.887 375.636 444.975 376.287 446.515 376.635L456.128 378.813L455.329 382.339L445.716 380.162C444.177 379.813 442.914 379.932 441.928 380.518C440.921 381.099 440.267 382.056 439.966 383.388C439.664 384.719 439.84 385.874 440.493 386.854C441.13 387.807 442.219 388.458 443.758 388.807L453.371 390.984L452.565 394.542L435.368 390.647L436.174 387.089L438.141 387.535C437.565 386.792 437.181 385.928 436.988 384.944C436.796 383.96 436.815 382.958 437.046 381.939C437.357 380.565 437.926 379.404 438.754 378.454C439.581 377.504 440.612 376.863 441.847 376.53C440.925 375.774 440.287 374.776 439.933 373.537C439.559 372.293 439.515 371.036 439.803 369.767Z" fill="#1F1F1F"/>
<path d="M469.266 352.026C469.356 352.681 469.394 353.279 469.382 353.819L456.033 355.64C456.329 357.02 457 358.07 458.046 358.789C459.091 359.507 460.29 359.774 461.643 359.59C463.588 359.324 464.85 358.323 465.432 356.586L469.331 356.054C469.022 357.733 468.241 359.185 466.987 360.411C465.751 361.613 464.108 362.354 462.058 362.634C460.388 362.861 458.837 362.696 457.404 362.138C455.99 361.556 454.81 360.64 453.865 359.391C452.937 358.118 452.351 356.583 452.106 354.787C451.861 352.99 452.005 351.366 452.54 349.915C453.092 348.441 453.973 347.244 455.183 346.325C456.413 345.404 457.885 344.826 459.597 344.593C461.246 344.368 462.764 344.527 464.151 345.069C465.539 345.612 466.681 346.49 467.578 347.702C468.473 348.894 469.036 350.335 469.266 352.026ZM465.338 351.399C465.135 350.07 464.514 349.068 463.474 348.391C462.434 347.715 461.227 347.471 459.854 347.658C458.606 347.828 457.594 348.375 456.816 349.3C456.035 350.203 455.652 351.343 455.667 352.718L465.338 351.399Z" fill="#1F1F1F"/>
<path d="M512.438 344.5C513.057 343.647 513.899 342.954 514.966 342.42C516.054 341.866 517.259 341.588 518.582 341.588C520.139 341.588 521.547 341.962 522.806 342.708C524.065 343.455 525.057 344.522 525.782 345.908C526.507 347.274 526.87 348.842 526.87 350.612C526.87 352.383 526.507 353.972 525.782 355.38C525.057 356.767 524.054 357.855 522.774 358.644C521.515 359.412 520.118 359.796 518.582 359.796C517.217 359.796 516.001 359.53 514.934 358.996C513.889 358.463 513.057 357.78 512.438 356.948V359.508H508.79V335.828H512.438V344.5ZM523.158 350.612C523.158 349.396 522.902 348.351 522.39 347.476C521.899 346.58 521.238 345.908 520.406 345.46C519.595 344.991 518.721 344.756 517.782 344.756C516.865 344.756 515.99 344.991 515.158 345.46C514.347 345.93 513.686 346.612 513.174 347.508C512.683 348.404 512.438 349.46 512.438 350.676C512.438 351.892 512.683 352.959 513.174 353.876C513.686 354.772 514.347 355.455 515.158 355.924C515.99 356.394 516.865 356.628 517.782 356.628C518.721 356.628 519.595 356.394 520.406 355.924C521.238 355.434 521.899 354.73 522.39 353.812C522.902 352.895 523.158 351.828 523.158 350.612Z" fill="#1F1F1F"/>
<path d="M562.856 343.538L549.763 368.386L546.002 368.048L550.34 359.827L544.977 341.931L549.024 342.295L552.761 356.125L559.096 343.2L562.856 343.538Z" fill="#1F1F1F"/>
<path d="M579.171 381.876C580.02 382.481 580.653 383.24 581.069 384.152C581.505 385.088 581.673 386.161 581.573 387.373L577.81 387.061L577.886 386.136C578.005 384.711 577.733 383.597 577.072 382.793C576.409 382.01 575.185 381.545 573.399 381.397L564.151 380.629L564.452 376.994L582.024 378.452L581.722 382.087L579.171 381.876Z" fill="#1F1F1F"/>
<path d="M567.639 421.428C566.993 421.288 566.418 421.12 565.915 420.924L568.766 407.757C567.367 407.564 566.151 407.835 565.119 408.572C564.086 409.309 563.425 410.344 563.136 411.679C562.721 413.597 563.23 415.126 564.664 416.266L563.831 420.113C562.359 419.248 561.262 418.018 560.538 416.42C559.831 414.848 559.696 413.051 560.134 411.029C560.49 409.382 561.176 407.98 562.19 406.825C563.221 405.694 564.484 404.898 565.981 404.437C567.494 404 569.137 403.974 570.909 404.358C572.682 404.742 574.158 405.432 575.339 406.43C576.536 407.453 577.36 408.69 577.81 410.141C578.255 411.613 578.295 413.193 577.929 414.882C577.577 416.508 576.909 417.88 575.925 418.999C574.941 420.117 573.725 420.891 572.279 421.32C570.854 421.753 569.307 421.79 567.639 421.428ZM569.571 417.95C570.889 418.214 572.043 417.973 573.034 417.227C574.025 416.481 574.667 415.431 574.961 414.075C575.227 412.845 575.059 411.706 574.456 410.659C573.875 409.616 572.934 408.867 571.636 408.411L569.571 417.95Z" fill="#1F1F1F"/>
<path d="M563.289 438.962C565.003 439.555 566.386 440.417 567.44 441.549C568.506 442.708 569.179 444.025 569.459 445.499C569.74 446.973 569.604 448.506 569.053 450.099C568.356 452.115 567.297 453.611 565.876 454.586C564.468 455.589 562.796 456.016 560.862 455.866L562.149 452.146C563.08 452.129 563.892 451.869 564.586 451.364C565.28 450.859 565.801 450.102 566.15 449.094C566.638 447.683 566.525 446.38 565.81 445.184C565.108 444.016 563.86 443.121 562.065 442.501C560.271 441.88 558.727 441.808 557.433 442.286C556.132 442.784 555.237 443.739 554.749 445.15C554.059 447.146 554.479 448.77 556.01 450.022L554.723 453.742C553.197 452.672 552.16 451.298 551.612 449.618C551.084 447.946 551.162 446.122 551.846 444.146C552.397 442.553 553.238 441.264 554.369 440.278C555.52 439.3 556.863 438.681 558.397 438.421C559.945 438.189 561.576 438.369 563.289 438.962Z" fill="#1F1F1F"/>
<path d="M539.687 475.853C540.416 474.357 541.411 473.168 542.671 472.288C543.95 471.416 545.372 470.934 546.935 470.842C548.518 470.759 550.125 471.115 551.755 471.91C553.366 472.695 554.621 473.746 555.522 475.063C556.423 476.38 556.909 477.816 556.982 479.371C557.055 480.925 556.722 482.46 555.984 483.975C555.246 485.49 554.242 486.697 552.972 487.597C551.703 488.497 550.272 488.998 548.68 489.1C547.087 489.202 545.486 488.861 543.875 488.075C542.264 487.29 541.013 486.229 540.122 484.893C539.23 483.557 538.748 482.088 538.675 480.485C538.611 478.912 538.949 477.368 539.687 475.853ZM542.535 477.241C542.123 478.084 541.942 478.969 541.989 479.894C542.027 480.838 542.337 481.737 542.918 482.589C543.499 483.442 544.365 484.149 545.515 484.71C546.666 485.271 547.742 485.522 548.743 485.464C549.763 485.416 550.653 485.126 551.411 484.593C552.168 484.061 552.753 483.373 553.164 482.529C553.576 481.685 553.758 480.801 553.71 479.876C553.653 478.97 553.325 478.11 552.725 477.295C552.145 476.49 551.279 475.807 550.128 475.246C548.422 474.414 546.888 474.201 545.528 474.606C544.177 475.039 543.18 475.918 542.535 477.241Z" fill="#1F1F1F"/>
<path d="M559.37 517.375C560.262 518.436 560.838 519.569 561.097 520.772C561.37 521.992 561.272 523.203 560.805 524.404C560.351 525.621 559.512 526.745 558.287 527.774L550.326 534.466L548 531.698L555.544 525.356C556.753 524.34 557.421 523.263 557.55 522.123C557.695 520.97 557.329 519.871 556.45 518.826C555.572 517.78 554.545 517.222 553.37 517.151C552.225 517.082 551.049 517.555 549.84 518.571L542.296 524.913L539.969 522.145L547.514 515.803C548.722 514.787 549.391 513.71 549.52 512.57C549.665 511.417 549.298 510.318 548.42 509.272C547.541 508.227 546.515 507.669 545.34 507.597C544.195 507.529 543.018 508.002 541.81 509.018L534.265 515.36L531.918 512.567L545.415 501.222L547.762 504.014L546.219 505.312C547.159 505.302 548.079 505.518 548.979 505.959C549.88 506.401 550.666 507.022 551.339 507.822C552.245 508.9 552.826 510.055 553.083 511.289C553.34 512.522 553.227 513.731 552.746 514.916C553.906 514.638 555.086 514.733 556.287 515.2C557.505 515.654 558.532 516.379 559.37 517.375Z" fill="#1F1F1F"/>
<path d="M560.121 563.609C559.211 564.655 558.181 565.4 557.032 565.842C555.87 566.301 554.659 566.393 553.4 566.117C552.127 565.858 550.887 565.203 549.68 564.153L541.834 557.326L544.207 554.598L551.643 561.068C552.834 562.104 554.002 562.598 555.148 562.548C556.31 562.513 557.339 561.98 558.235 560.95C559.131 559.92 559.524 558.82 559.412 557.648C559.302 556.506 558.652 555.417 557.461 554.381L550.026 547.911L552.399 545.183L559.835 551.653C561.026 552.689 562.194 553.183 563.34 553.133C564.502 553.098 565.531 552.565 566.427 551.535C567.323 550.505 567.716 549.405 567.604 548.233C567.494 547.091 566.844 546.002 565.653 544.966L558.218 538.496L560.612 535.744L573.914 547.318L571.519 550.07L569.999 548.747C570.154 549.674 570.083 550.616 569.787 551.574C569.49 552.532 568.999 553.406 568.313 554.194C567.389 555.257 566.337 556.01 565.158 556.455C563.98 556.9 562.768 556.976 561.523 556.685C561.977 557.787 562.067 558.968 561.791 560.227C561.532 561.5 560.975 562.628 560.121 563.609Z" fill="#1F1F1F"/>
<path d="M525.266 589.28C524.786 588.825 524.381 588.384 524.052 587.955L533.312 578.169C532.216 577.279 531.035 576.882 529.77 576.977C528.505 577.072 527.403 577.616 526.465 578.608C525.116 580.033 524.76 581.605 525.396 583.323L522.691 586.182C521.879 584.68 521.578 583.059 521.786 581.318C521.996 579.607 522.811 578 524.234 576.496C525.392 575.272 526.704 574.429 528.17 573.965C529.637 573.533 531.13 573.506 532.65 573.887C534.17 574.297 535.589 575.126 536.906 576.372C538.223 577.618 539.129 578.974 539.622 580.44C540.116 581.935 540.18 583.42 539.813 584.893C539.432 586.383 538.647 587.755 537.46 589.01C536.316 590.219 535.034 591.047 533.612 591.494C532.191 591.94 530.751 591.973 529.291 591.591C527.848 591.223 526.506 590.453 525.266 589.28ZM528.72 587.306C529.711 588.214 530.824 588.606 532.058 588.481C533.292 588.356 534.385 587.79 535.338 586.783C536.203 585.869 536.649 584.807 536.676 583.599C536.719 582.406 536.303 581.278 535.428 580.216L528.72 587.306Z" fill="#1F1F1F"/>
<path d="M511.987 615.932C511.034 616.939 509.975 617.64 508.809 618.034C507.628 618.444 506.414 618.485 505.168 618.158C503.921 617.83 502.717 617.116 501.555 616.017L494 608.869L496.485 606.242L503.645 613.016C504.791 614.101 505.938 614.643 507.085 614.641C508.247 614.655 509.298 614.165 510.236 613.173C511.174 612.182 511.612 611.098 511.55 609.923C511.488 608.778 510.883 607.663 509.737 606.578L502.577 599.804L505.085 597.154L517.892 609.272L515.385 611.922L513.921 610.536C514.037 611.469 513.927 612.407 513.591 613.352C513.24 614.313 512.706 615.173 511.987 615.932Z" fill="#1F1F1F"/>
<path d="M487.247 628.715C488.32 630.123 488.981 631.591 489.23 633.117C489.463 634.655 489.305 636.103 488.756 637.459C488.202 638.846 487.306 640.01 486.067 640.954C485.15 641.651 484.096 642.132 482.903 642.397C481.706 642.691 480.592 642.708 479.562 642.446L484.718 649.219L481.79 651.448L467.447 632.606L470.375 630.377L471.984 632.49C471.942 631.45 472.178 630.386 472.691 629.298C473.187 628.224 473.978 627.273 475.064 626.446C476.286 625.516 477.639 624.968 479.123 624.804C480.603 624.67 482.059 624.928 483.493 625.58C484.923 626.261 486.175 627.306 487.247 628.715ZM475.725 637.405C476.461 638.372 477.304 639.058 478.255 639.46C479.188 639.876 480.119 640.025 481.048 639.908C481.978 639.79 482.816 639.447 483.563 638.879C484.309 638.31 484.863 637.594 485.224 636.729C485.598 635.882 485.717 634.946 485.582 633.923C485.442 632.93 485.004 631.95 484.268 630.982C483.531 630.015 482.69 629.314 481.744 628.882C480.781 628.462 479.829 628.302 478.886 628.403C477.94 628.533 477.102 628.876 476.372 629.432C475.625 630 475.071 630.717 474.71 631.581C474.35 632.446 474.245 633.383 474.398 634.393C474.546 635.433 474.988 636.437 475.725 637.405Z" fill="#1F1F1F"/>
<path d="M454.391 651.79C454.819 652.295 455.006 652.863 454.953 653.494C454.901 654.126 454.622 654.655 454.117 655.082C453.613 655.509 453.044 655.697 452.413 655.644C451.782 655.592 451.252 655.313 450.825 654.808C450.412 654.32 450.231 653.76 450.284 653.128C450.336 652.497 450.615 651.968 451.12 651.54C451.625 651.113 452.193 650.926 452.824 650.978C453.456 651.031 453.978 651.301 454.391 651.79ZM455.017 648.913L468.476 637.523L470.833 640.307L457.374 651.698L455.017 648.913Z" fill="#1F1F1F"/>
<path d="M435.62 626.439C434.725 625.38 434.145 624.25 433.882 623.047C433.605 621.828 433.698 620.618 434.162 619.415C434.625 618.212 435.467 617.094 436.689 616.061L444.628 609.342L446.964 612.102L439.44 618.469C438.235 619.489 437.57 620.569 437.445 621.709C437.303 622.863 437.673 623.961 438.555 625.003C439.437 626.045 440.466 626.6 441.641 626.668C442.786 626.733 443.961 626.255 445.166 625.236L452.69 618.869L455.046 621.653L441.587 633.044L439.23 630.259L440.769 628.957C439.83 628.969 438.909 628.756 438.007 628.318C437.091 627.863 436.296 627.237 435.62 626.439Z" fill="#1F1F1F"/>
<path d="M417.604 612.151C416.316 612.605 415.087 612.743 413.917 612.567C412.734 612.418 411.726 612.06 410.893 611.493L411.743 613.908L408.271 615.129L402.324 598.225C401.786 596.696 401.63 595.224 401.857 593.81C402.076 592.376 402.679 591.101 403.666 589.985C404.632 588.876 405.961 588.024 407.651 587.429C409.905 586.636 411.964 586.511 413.829 587.054C415.686 587.576 417.034 588.708 417.873 590.448L414.461 591.648C413.895 590.875 413.098 590.375 412.068 590.15C411.012 589.911 409.89 590 408.703 590.418C407.314 590.906 406.346 591.722 405.798 592.864C405.23 594.014 405.229 595.394 405.796 597.004L406.773 599.781C407.08 598.791 407.641 597.847 408.457 596.95C409.259 596.079 410.293 595.421 411.561 594.975C413.01 594.466 414.466 594.361 415.928 594.66C417.378 594.987 418.684 595.681 419.849 596.741C421 597.829 421.87 599.207 422.458 600.878C423.045 602.548 423.224 604.148 422.992 605.676C422.741 607.212 422.146 608.541 421.206 609.663C420.254 610.812 419.053 611.642 417.604 612.151ZM408.822 605.607C409.226 606.754 409.818 607.665 410.598 608.341C411.358 609.023 412.199 609.451 413.119 609.625C414.04 609.798 414.943 609.729 415.828 609.418C416.714 609.106 417.461 608.595 418.07 607.883C418.686 607.191 419.087 606.338 419.272 605.323C419.445 604.335 419.329 603.267 418.926 602.12C418.522 600.973 417.937 600.048 417.17 599.346C416.382 598.65 415.525 598.206 414.597 598.012C413.657 597.845 412.754 597.914 411.888 598.219C411.003 598.53 410.256 599.042 409.647 599.754C409.038 600.465 408.65 601.325 408.485 602.333C408.306 603.369 408.419 604.46 408.822 605.607Z" fill="#1F1F1F"/>
<path d="M359.983 615.662C361.568 615.158 363.115 615.059 364.622 615.363C366.135 615.688 367.465 616.385 368.61 617.454C369.762 618.543 370.613 619.951 371.162 621.68C371.704 623.387 371.809 625.022 371.477 626.582C371.145 628.143 370.441 629.486 369.366 630.611C368.291 631.736 366.95 632.553 365.344 633.064C363.738 633.574 362.171 633.68 360.644 633.382C359.116 633.084 357.766 632.394 356.594 631.311C355.422 630.228 354.565 628.833 354.022 627.125C353.479 625.418 353.384 623.78 353.737 622.213C354.09 620.646 354.821 619.283 355.93 618.125C357.026 616.994 358.376 616.173 359.983 615.662ZM360.942 618.682C360.047 618.966 359.282 619.444 358.645 620.117C357.987 620.795 357.55 621.639 357.334 622.648C357.117 623.657 357.203 624.772 357.59 625.992C357.978 627.212 358.538 628.164 359.27 628.849C360.009 629.554 360.833 629.998 361.741 630.179C362.649 630.361 363.551 630.309 364.445 630.025C365.34 629.741 366.106 629.263 366.743 628.59C367.359 627.924 367.756 627.093 367.932 626.097C368.114 625.121 368.012 624.024 367.624 622.804C367.049 620.994 366.146 619.737 364.914 619.031C363.669 618.352 362.345 618.236 360.942 618.682Z" fill="#1F1F1F"/>
<path d="M321.425 644.16L318.309 626.805L321.9 626.161L322.268 628.208C322.706 627.392 323.35 626.692 324.198 626.106C325.03 625.545 325.96 625.172 326.989 624.987C328.354 624.742 329.633 624.805 330.827 625.176C331.999 625.551 333 626.238 333.83 627.238C334.639 628.241 335.184 629.531 335.467 631.105L337.299 641.31L333.74 641.949L332.004 632.28C331.725 630.726 331.122 629.599 330.194 628.898C329.27 628.219 328.136 628 326.793 628.241C325.449 628.482 324.462 629.082 323.832 630.04C323.185 631.024 323.001 632.292 323.28 633.846L325.015 643.515L321.425 644.16Z" fill="#1F1F1F"/>
<path d="M296.43 645.377C295.963 646.309 295.311 647.052 294.474 647.604C293.617 648.179 292.582 648.511 291.369 648.599L291.097 644.832L292.022 644.766C293.448 644.662 294.507 644.222 295.199 643.445C295.871 642.669 296.142 641.388 296.012 639.6L295.343 630.344L298.981 630.081L300.253 647.667L296.615 647.93L296.43 645.377Z" fill="#1F1F1F"/>
<path d="M243.295 646.253C242.605 647.004 241.703 647.606 240.59 648.061C239.477 648.515 238.251 648.681 236.913 648.558C235.384 648.417 234.027 647.907 232.844 647.026C231.638 646.166 230.736 645.022 230.139 643.596C229.542 642.17 229.325 640.575 229.487 638.812C229.649 637.049 230.156 635.5 231.007 634.164C231.857 632.85 232.955 631.858 234.302 631.189C235.626 630.54 237.052 630.286 238.582 630.426C239.92 630.55 241.085 630.925 242.077 631.552C243.068 632.2 243.855 632.958 244.439 633.826L245.442 622.928L249.075 623.262L246.69 649.168L243.058 648.834L243.295 646.253ZM233.183 639.152C233.072 640.363 233.231 641.428 233.661 642.346C234.067 643.283 234.664 644.013 235.452 644.535C236.216 645.077 237.065 645.39 238 645.476C238.914 645.561 239.806 645.407 240.678 645.016C241.528 644.623 242.249 644.004 242.841 643.158C243.412 642.311 243.753 641.282 243.864 640.071C243.976 638.86 243.829 637.776 243.425 636.817C242.997 635.878 242.401 635.138 241.637 634.596C240.851 634.052 240.002 633.738 239.088 633.654C238.153 633.568 237.261 633.722 236.411 634.115C235.537 634.527 234.814 635.168 234.241 636.036C233.648 636.903 233.295 637.942 233.183 639.152Z" fill="#1F1F1F"/>
<path d="M203.799 650.598L208.399 627.369L211.978 628.078L207.378 651.307L203.799 650.598Z" fill="#1F1F1F"/>
<path d="M187.795 632.223C187.233 633.902 186.392 635.274 185.271 636.339C184.13 637.397 182.844 638.08 181.414 638.389C179.956 638.711 178.499 638.629 177.042 638.141C175.727 637.701 174.672 637.056 173.877 636.205C173.055 635.368 172.479 634.467 172.149 633.502L171.337 635.929L167.847 634.762L173.441 618.041L176.931 619.208L176.098 621.696C176.949 621.104 177.968 620.714 179.155 620.526C180.343 620.338 181.584 620.461 182.879 620.894C184.315 621.375 185.509 622.179 186.459 623.306C187.402 624.454 188.008 625.804 188.276 627.356C188.517 628.921 188.357 630.544 187.795 632.223ZM174.129 627.584C173.743 628.737 173.651 629.82 173.852 630.832C174.033 631.837 174.434 632.691 175.054 633.393C175.674 634.096 176.429 634.596 177.319 634.893C178.209 635.191 179.113 635.246 180.031 635.058C180.942 634.89 181.782 634.463 182.552 633.776C183.295 633.102 183.859 632.188 184.245 631.035C184.63 629.882 184.736 628.792 184.562 627.767C184.367 626.734 183.963 625.857 183.35 625.135C182.71 624.425 181.955 623.926 181.085 623.635C180.195 623.337 179.291 623.282 178.373 623.47C177.456 623.658 176.622 624.099 175.872 624.793C175.096 625.5 174.515 626.431 174.129 627.584Z" fill="#1F1F1F"/>
<path d="M144.983 622.821L149.501 614.17C149.808 613.584 149.897 613.089 149.771 612.686C149.616 612.292 149.207 611.923 148.545 611.577L146.56 610.54L147.967 607.845L150.52 609.179C151.976 609.939 152.914 610.862 153.334 611.948C153.753 613.034 153.563 614.342 152.763 615.874L148.245 624.525L150.088 625.488L148.71 628.126L146.867 627.163L144.837 631.049L141.575 629.345L143.605 625.459L139.804 623.474L141.182 620.836L144.983 622.821Z" fill="#1F1F1F"/>
<path d="M117.819 606.94L120.454 608.866L129.103 597.033L132.074 599.205L123.425 611.037L125.104 612.265L123.348 614.667L121.669 613.44L120.933 614.447C119.737 616.084 118.437 616.957 117.035 617.068C115.603 617.184 113.956 616.562 112.096 615.203L113.89 612.748C114.786 613.403 115.54 613.69 116.154 613.61C116.755 613.547 117.357 613.102 117.962 612.276L118.698 611.268L116.063 609.342L117.819 606.94Z" fill="#1F1F1F"/>
<path d="M107.918 579.052C109.046 580.275 109.791 581.634 110.154 583.128C110.5 584.637 110.432 586.136 109.949 587.627C109.45 589.131 108.534 590.498 107.201 591.727C105.883 592.942 104.447 593.729 102.893 594.089C101.338 594.449 99.8238 594.38 98.3493 593.882C96.8749 593.385 95.5664 592.516 94.4239 591.277C93.2815 590.038 92.5219 588.664 92.1453 587.154C91.7687 585.644 91.8226 584.129 92.3069 582.609C92.7913 581.088 93.6921 579.721 95.0096 578.506C96.327 577.291 97.7702 576.512 99.3391 576.168C100.908 575.824 102.452 575.909 103.971 576.424C105.46 576.937 106.776 577.813 107.918 579.052ZM105.589 581.2C104.953 580.509 104.195 580.018 103.316 579.726C102.423 579.418 101.474 579.379 100.468 579.61C99.462 579.841 98.4886 580.391 97.5476 581.259C96.6066 582.126 95.9808 583.037 95.6704 583.991C95.3443 584.959 95.2914 585.893 95.5116 586.792C95.7318 587.692 96.16 588.487 96.7963 589.177C97.4326 589.867 98.1902 590.358 99.0691 590.65C99.9336 590.927 100.854 590.934 101.831 590.672C102.792 590.424 103.743 589.866 104.684 588.998C106.08 587.711 106.837 586.361 106.955 584.946C107.042 583.531 106.587 582.282 105.589 581.2Z" fill="#1F1F1F"/>
<path d="M75.2516 564.257C74.2089 564.251 73.2546 563.994 72.3886 563.489C71.4935 562.975 70.7381 562.194 70.1224 561.145L73.3788 559.234L73.8486 560.034C74.5722 561.267 75.4358 562.021 76.4393 562.298C77.432 562.556 78.7011 562.232 80.2465 561.324L88.2493 556.626L90.0962 559.772L74.8908 568.699L73.0439 565.553L75.2516 564.257Z" fill="#1F1F1F"/>
<path d="M54.4854 522.095C54.1119 520.759 54.056 519.49 54.3176 518.287C54.5735 517.064 55.1626 516.002 56.0848 515.101C57.0013 514.181 58.23 513.505 59.7709 513.074L69.7865 510.272L70.7605 513.755L61.2688 516.409C59.7484 516.835 58.694 517.539 58.1053 518.524C57.4961 519.514 57.3754 520.666 57.7432 521.981C58.111 523.296 58.8149 524.229 59.8551 524.78C60.869 525.316 62.136 525.371 63.6564 524.946L73.1481 522.291L74.1221 525.773L64.6304 528.428C63.1101 528.853 62.0556 529.558 61.4669 530.542C60.8578 531.532 60.7371 532.685 61.1048 534C61.4726 535.315 62.1766 536.247 63.2167 536.798C64.2306 537.334 65.4977 537.39 67.018 536.965L76.5097 534.31L77.4923 537.823L60.512 542.572L59.5294 539.059L61.4709 538.516C60.6115 538.136 59.863 537.559 59.2256 536.785C58.5881 536.011 58.1286 535.12 57.8471 534.113C57.4678 532.758 57.4164 531.465 57.6928 530.236C57.9693 529.006 58.5715 527.952 59.4995 527.072C58.3286 526.846 57.2929 526.272 56.3926 525.349C55.4717 524.433 54.836 523.348 54.4854 522.095Z" fill="#1F1F1F"/>
<path d="M49.6083 464.811L59.3541 465.338C60.0144 465.374 60.5018 465.251 60.8162 464.969C61.1104 464.664 61.2777 464.139 61.318 463.394L61.4391 461.157L64.4746 461.321L64.319 464.197C64.2302 465.837 63.7788 467.073 62.9647 467.905C62.1505 468.737 60.8807 469.106 59.1552 469.013L49.4095 468.486L49.2971 470.562L46.3254 470.402L46.4378 468.325L42.0602 468.088L42.2591 464.413L46.6367 464.65L46.8684 460.368L49.84 460.529L49.6083 464.811Z" fill="#1F1F1F"/>
<path d="M67.4515 436.2C67.1234 437.832 66.4608 439.232 65.4638 440.403C64.4458 441.569 63.1919 442.394 61.7019 442.878C60.191 443.357 58.5467 443.418 56.769 443.06C55.0121 442.707 53.5319 442.007 52.3281 440.959C51.1243 439.912 50.291 438.646 49.8283 437.16C49.3655 435.674 49.3003 434.105 49.6326 432.453C49.965 430.801 50.6318 429.379 51.633 428.188C52.6343 426.996 53.8925 426.15 55.4076 425.65C56.9226 425.15 58.5586 425.076 60.3154 425.43C62.0722 425.783 63.5504 426.494 64.75 427.562C65.9496 428.63 66.787 429.93 67.2622 431.462C67.7208 432.969 67.7839 434.548 67.4515 436.2ZM64.3458 435.576C64.5309 434.655 64.4837 433.754 64.2044 432.871C63.9293 431.967 63.403 431.175 62.6255 430.497C61.8481 429.818 60.832 429.352 59.5771 429.1C58.3222 428.848 57.2177 428.876 56.2634 429.184C55.2883 429.489 54.5011 429.994 53.9021 430.7C53.303 431.407 52.9109 432.22 52.7258 433.14C52.5407 434.061 52.5878 434.962 52.8672 435.845C53.1507 436.707 53.6854 437.457 54.4713 438.094C55.2362 438.726 56.2461 439.169 57.501 439.421C59.3624 439.796 60.9001 439.615 62.1142 438.88C63.3116 438.12 64.0555 437.019 64.3458 435.576Z" fill="#1F1F1F"/>
<path d="M73.9829 366.469L90.5655 389.137L88.6115 392.368L83.1277 384.864L64.6931 381.831L66.7962 378.353L80.8634 381.064L72.0289 369.7L73.9829 366.469Z" fill="#1F1F1F"/>
<path d="M103.186 355.931C102.084 357.178 100.808 358.057 99.3579 358.569C97.8922 359.067 96.3936 359.152 94.8621 358.822C93.3146 358.479 91.8616 357.707 90.5033 356.505C89.161 355.318 88.2319 353.97 87.7161 352.46C87.2003 350.95 87.115 349.436 87.4602 347.919C87.8055 346.401 88.5363 345.011 89.6528 343.749C90.7693 342.487 92.0595 341.591 93.5233 341.063C94.9871 340.535 96.4999 340.435 98.0615 340.762C99.6232 341.09 101.075 341.847 102.417 343.034C103.76 344.221 104.682 345.578 105.183 347.104C105.685 348.629 105.757 350.174 105.4 351.738C105.04 353.271 104.302 354.669 103.186 355.931ZM100.813 353.833C101.435 353.129 101.846 352.326 102.048 351.422C102.263 350.502 102.205 349.553 101.873 348.576C101.541 347.599 100.896 346.686 99.9371 345.839C98.9783 344.991 98.0088 344.461 97.0285 344.249C96.0323 344.023 95.0979 344.065 94.2252 344.375C93.3526 344.686 92.6053 345.193 91.9835 345.896C91.3616 346.599 90.95 347.402 90.7485 348.306C90.5612 349.194 90.6476 350.111 91.0079 351.056C91.3521 351.987 92.0037 352.877 92.9625 353.725C94.3847 354.983 95.8053 355.598 97.2244 355.572C98.6415 355.515 99.8377 354.935 100.813 353.833Z" fill="#1F1F1F"/>
<path d="M122.112 311.965L133.318 325.579L130.501 327.897L129.179 326.291C129.196 327.217 128.977 328.143 128.523 329.069C128.073 329.965 127.444 330.745 126.637 331.41C125.566 332.291 124.42 332.862 123.197 333.122C121.991 333.369 120.781 333.259 119.569 332.793C118.373 332.313 117.266 331.455 116.249 330.22L109.66 322.215L112.452 319.917L118.695 327.502C119.699 328.721 120.776 329.409 121.928 329.566C123.066 329.707 124.162 329.343 125.216 328.476C126.27 327.608 126.838 326.602 126.919 325.458C127.002 324.284 126.542 323.088 125.539 321.869L119.296 314.284L122.112 311.965Z" fill="#1F1F1F"/>
<path d="M136.349 299.341C135.44 298.83 134.73 298.144 134.217 297.282C133.683 296.399 133.4 295.35 133.37 294.134L137.144 294.039L137.168 294.967C137.204 296.396 137.594 297.474 138.337 298.202C139.081 298.909 140.348 299.24 142.14 299.195L151.417 298.962L151.508 302.609L133.882 303.052L133.79 299.405L136.349 299.341Z" fill="#1F1F1F"/>
<path d="M115.503 258.216C114.928 256.955 114.676 255.709 114.749 254.48C114.812 253.232 115.23 252.092 116.002 251.06C116.774 250.027 117.888 249.179 119.343 248.515L128.805 244.198L130.306 247.488L121.339 251.579C119.903 252.234 118.97 253.094 118.541 254.157C118.092 255.23 118.151 256.387 118.718 257.629C119.284 258.871 120.124 259.684 121.237 260.067C122.322 260.44 123.582 260.299 125.018 259.643L133.985 255.552L135.499 258.871L119.458 266.19L117.944 262.871L119.778 262.034C118.87 261.792 118.041 261.338 117.292 260.671C116.534 259.985 115.937 259.167 115.503 258.216Z" fill="#1F1F1F"/>
<path d="M110.001 213.689C110.654 213.582 111.25 213.528 111.79 213.525L113.969 226.82C115.342 226.487 116.373 225.788 117.063 224.724C117.753 223.66 117.988 222.454 117.767 221.106C117.45 219.17 116.415 217.934 114.663 217.4L114.026 213.516C115.712 213.78 117.185 214.522 118.444 215.742C119.679 216.945 120.464 218.567 120.799 220.61C121.071 222.273 120.948 223.828 120.428 225.275C119.885 226.704 119.001 227.908 117.778 228.887C116.53 229.848 115.012 230.476 113.222 230.769C111.433 231.062 109.806 230.961 108.341 230.466C106.852 229.954 105.632 229.105 104.681 227.921C103.727 226.715 103.11 225.26 102.83 223.555C102.561 221.913 102.679 220.391 103.185 218.989C103.69 217.588 104.537 216.422 105.724 215.493C106.891 214.566 108.317 213.965 110.001 213.689ZM109.48 217.633C108.157 217.872 107.172 218.52 106.524 219.577C105.876 220.634 105.664 221.847 105.888 223.216C106.092 224.458 106.666 225.455 107.611 226.209C108.535 226.965 109.684 227.317 111.059 227.265L109.48 217.633Z" fill="#1F1F1F"/>
<path d="M101.946 190.41L111.705 190.549C112.366 190.559 112.848 190.416 113.151 190.122C113.433 189.806 113.579 189.274 113.59 188.528L113.622 186.288L116.662 186.331L116.621 189.211C116.597 190.854 116.195 192.107 115.415 192.97C114.635 193.834 113.381 194.254 111.653 194.229L101.894 194.09L101.864 196.17L98.8884 196.127L98.918 194.048L94.5344 193.985L94.5868 190.306L98.9704 190.368L99.0314 186.08L102.007 186.123L101.946 190.41Z" fill="#1F1F1F"/>
<path d="M104.828 142.377L120.939 151.39L120.142 155.147L106.664 155.917L118.667 162.096L117.87 165.852L99.4795 167.576L100.25 163.944L114.881 163.288L101.791 156.682L102.582 152.957L117.131 152.381L104.084 145.883L104.828 142.377Z" fill="#1F1F1F"/>
<path d="M129.309 124.205C128.544 125.683 127.521 126.847 126.241 127.698C124.941 128.538 123.508 128.986 121.942 129.041C120.358 129.085 118.761 128.691 117.15 127.858C115.558 127.034 114.328 125.953 113.46 124.615C112.591 123.277 112.139 121.829 112.103 120.274C112.067 118.718 112.437 117.192 113.211 115.695C113.986 114.198 115.019 113.015 116.309 112.146C117.6 111.276 119.042 110.81 120.637 110.746C122.231 110.682 123.824 111.062 125.415 111.886C127.007 112.709 128.232 113.8 129.091 115.157C129.95 116.514 130.397 117.995 130.432 119.598C130.458 121.173 130.083 122.708 129.309 124.205ZM126.495 122.749C126.927 121.916 127.13 121.036 127.104 120.11C127.089 119.165 126.801 118.259 126.241 117.393C125.68 116.526 124.831 115.799 123.695 115.211C122.558 114.622 121.488 114.345 120.486 114.379C119.465 114.403 118.569 114.672 117.798 115.186C117.028 115.7 116.427 116.374 115.996 117.208C115.564 118.041 115.361 118.921 115.386 119.847C115.422 120.754 115.729 121.622 116.309 122.45C116.87 123.269 117.719 123.973 118.856 124.561C120.542 125.434 122.07 125.684 123.44 125.312C124.8 124.911 125.819 124.057 126.495 122.749Z" fill="#1F1F1F"/>
<path d="M132.207 88.4973C131.878 87.5076 131.815 86.5216 132.016 85.5391C132.216 84.5266 132.713 83.5606 133.509 82.6412L136.364 85.1125L135.757 85.8141C134.821 86.8948 134.383 87.9548 134.443 88.9941C134.517 90.0172 135.231 91.1152 136.586 92.288L143.602 98.3615L141.215 101.12L127.884 89.58L130.271 86.8218L132.207 88.4973Z" fill="#1F1F1F"/>
<path d="M158.604 70.5494L170.385 72.7179L166.441 75.6729L156.669 73.5181L161.217 79.5874L158.298 81.7748L144.098 62.8244L147.018 60.6369L155.269 71.6487L155.766 61.6393L159.812 58.6075L158.604 70.5494Z" fill="#1F1F1F"/>
<path d="M185.491 62.2142C184.912 62.5332 184.318 62.6045 183.709 62.4282C183.101 62.2518 182.637 61.874 182.318 61.2946C181.999 60.7153 181.928 60.1214 182.104 59.5129C182.281 58.9043 182.658 58.4406 183.238 58.1216C183.798 57.8129 184.383 57.7468 184.991 57.9231C185.6 58.0995 186.064 58.4773 186.383 59.0567C186.702 59.636 186.773 60.2299 186.597 60.8384C186.42 61.447 186.052 61.9056 185.491 62.2142Z" fill="#1F1F1F"/>
</svg>
