<svg width="646" height="330" viewBox="0 0 646 330" fill="none" xmlns="http://www.w3.org/2000/svg">
<path d="M582.687 327.887V245.455H645.151V263.887H606.75V277.327H640.414V296.015H606.75V309.455H645.151V327.887H582.687Z" fill="#040404"/>
<path d="M543.087 329.166C528.41 329.166 517.231 325.582 509.551 318.414C501.871 311.161 498.031 300.835 498.031 287.438C498.031 273.614 501.999 262.947 509.935 255.438C517.871 247.929 529.477 244.174 544.751 244.174C549.871 244.174 554.479 244.472 558.575 245.07C562.757 245.667 566.682 246.563 570.351 247.758V268.366C566.597 266.915 562.714 265.934 558.703 265.422C554.693 264.91 550.597 264.654 546.415 264.654C538.479 264.654 532.506 266.446 528.495 270.03C524.57 273.614 522.607 279.417 522.607 287.438C522.607 294.947 524.314 300.366 527.727 303.694C531.226 307.022 536.346 308.686 543.087 308.686C545.306 308.686 547.397 308.558 549.359 308.302C551.322 307.96 553.157 307.534 554.863 307.022V294.99H538.479V280.142H574.959V321.614C571.802 323.576 567.578 325.326 562.287 326.862C557.082 328.398 550.682 329.166 543.087 329.166Z" fill="#040404"/>
<path d="M414.747 327.887V245.455H435.227L466.331 289.103V245.455H490.395V327.887H469.787L438.811 284.367V327.887H414.747Z" fill="#040404"/>
<path d="M318.342 327.887L349.958 245.455H375.43L407.046 327.887H381.958L375.046 310.351H350.214L343.43 327.887H318.342ZM353.414 293.071H371.846L362.63 268.879L353.414 293.071Z" fill="#040404"/>
<path d="M234.057 327.887V245.455H258.121V276.175H286.537V245.455H310.601V327.887H286.537V297.167H258.121V327.887H234.057Z" fill="#040404"/>
<path d="M200.979 329.166C186.046 329.166 174.654 325.497 166.803 318.158C158.953 310.819 155.027 300.451 155.027 287.054C155.027 273.23 158.867 262.649 166.547 255.31C174.227 247.886 185.662 244.174 200.851 244.174C205.971 244.174 210.537 244.558 214.547 245.326C218.558 246.094 222.398 247.161 226.067 248.526V269.518C218.729 266.275 210.878 264.654 202.515 264.654C194.75 264.654 188.99 266.446 185.235 270.03C181.481 273.528 179.603 279.203 179.603 287.054C179.603 294.734 181.566 300.28 185.491 303.694C189.502 307.022 195.262 308.686 202.771 308.686C206.867 308.686 210.835 308.302 214.675 307.534C218.601 306.766 222.483 305.571 226.323 303.95V325.07C222.654 326.35 218.771 327.331 214.675 328.014C210.665 328.782 206.099 329.166 200.979 329.166Z" fill="#040404"/>
<path d="M68.3066 327.887L98.7706 286.159L69.4586 245.455H98.1306L113.235 267.087L128.467 245.455H157.139L127.827 286.159L158.291 327.887H129.235L113.235 305.487L97.3626 327.887H68.3066Z" fill="#040404"/>
<path d="M5.27148 327.887V245.455H67.7355V263.887H29.3355V277.327H62.9995V296.015H29.3355V309.455H67.7355V327.887H5.27148Z" fill="#040404"/>
<path d="M393.967 205.887V123.455H418.031V187.455H455.151V205.887H393.967Z" fill="#040404"/>
<path d="M297.562 205.887L329.178 123.455H354.65L386.267 205.887H361.178L354.266 188.351H329.434L322.65 205.887H297.562ZM332.634 171.071H351.066L341.85 146.879L332.634 171.071Z" fill="#040404"/>
<path d="M258.699 205.887V141.375H222.531V123.455H305.931V141.375H282.763V205.887H258.699Z" fill="#040404"/>
<path d="M206.307 205.887V123.455H230.371V205.887H206.307Z" fill="#040404"/>
<path d="M166.708 207.166C152.031 207.166 140.852 203.582 133.172 196.414C125.492 189.16 121.652 178.835 121.652 165.438C121.652 151.614 125.62 140.947 133.556 133.438C141.492 125.929 153.098 122.174 168.372 122.174C173.492 122.174 178.1 122.472 182.196 123.07C186.378 123.667 190.303 124.563 193.972 125.758V146.366C190.218 144.915 186.335 143.934 182.324 143.422C178.314 142.91 174.218 142.654 170.036 142.654C162.1 142.654 156.127 144.446 152.116 148.03C148.191 151.614 146.228 157.417 146.228 165.438C146.228 172.947 147.935 178.366 151.348 181.694C154.847 185.022 159.967 186.686 166.708 186.686C168.927 186.686 171.018 186.558 172.98 186.302C174.943 185.961 176.778 185.534 178.484 185.022V172.99H162.1V158.142H198.58V199.614C195.423 201.576 191.199 203.326 185.908 204.862C180.703 206.398 174.303 207.166 166.708 207.166Z" fill="#040404"/>
<path d="M89.8672 205.887V123.455H113.931V205.887H89.8672Z" fill="#040404"/>
<path d="M5.27148 205.887V123.455H42.1355C50.5835 123.455 57.7942 124.863 63.7675 127.679C69.7408 130.41 74.3062 134.847 77.4635 140.991C80.6208 147.05 82.1995 155.114 82.1995 165.183C82.1995 179.348 78.7435 189.674 71.8315 196.159C64.9195 202.644 55.0208 205.887 42.1355 205.887H5.27148ZM29.3355 187.455H39.0635C43.0742 187.455 46.4448 186.9 49.1755 185.791C51.9062 184.596 53.9968 182.42 55.4475 179.263C56.8982 176.02 57.6235 171.327 57.6235 165.183C57.6235 159.039 56.9408 154.303 55.5755 150.975C54.2955 147.562 52.2901 145.215 49.5595 143.935C46.8288 142.57 43.3302 141.887 39.0635 141.887H29.3355V187.455Z" fill="#040404"/>
<path d="M451.467 83.8871V1.45508H488.331C496.779 1.45508 503.989 2.86308 509.963 5.67908C515.936 8.40975 520.501 12.8471 523.659 18.9911C526.816 25.0497 528.395 33.1138 528.395 43.1831C528.395 57.3484 524.939 67.6738 518.027 74.1591C511.115 80.6444 501.216 83.8871 488.331 83.8871H451.467ZM475.531 65.4551H485.259C489.269 65.4551 492.64 64.9004 495.371 63.7911C498.101 62.5964 500.192 60.4204 501.643 57.2631C503.093 54.0204 503.819 49.3271 503.819 43.1831C503.819 37.0391 503.136 32.3031 501.771 28.9751C500.491 25.5618 498.485 23.2151 495.755 21.9351C493.024 20.5697 489.525 19.8871 485.259 19.8871H475.531V65.4551Z" fill="#040404"/>
<path d="M382.622 83.8871V1.45508H445.086V19.8871H406.686V33.3271H440.35V52.0151H406.686V65.4551H445.086V83.8871H382.622Z" fill="#040404"/>
<path d="M330.324 83.8871V19.3751H307.156V1.45508H389.556V19.3751H354.388V83.8871H330.324Z" fill="#040404"/>
<path d="M269.564 85.1658C264.017 85.1658 258.769 84.7392 253.82 83.8858C248.871 82.9472 244.647 81.6672 241.148 80.0458V60.2058C244.988 61.9978 249.255 63.4485 253.948 64.5578C258.641 65.6672 263.036 66.2218 267.132 66.2218C271.399 66.2218 274.599 65.8805 276.732 65.1978C278.951 64.4298 280.06 62.7658 280.06 60.2058C280.06 58.4138 279.42 57.0058 278.14 55.9818C276.945 54.9578 275.025 54.0192 272.38 53.1658C269.82 52.3125 266.449 51.2458 262.268 49.9658C256.721 48.1738 252.327 46.2112 249.084 44.0778C245.841 41.9445 243.495 39.3418 242.044 36.2698C240.679 33.1978 239.996 29.4432 239.996 25.0058C239.996 16.8992 242.855 10.7552 248.572 6.57383C254.375 2.30716 262.951 0.173828 274.3 0.173828C278.823 0.173828 283.473 0.557828 288.252 1.32583C293.116 2.09383 297.041 2.94716 300.028 3.88583V23.8538C296.017 22.2325 292.177 21.0805 288.508 20.3978C284.839 19.7152 281.383 19.3738 278.14 19.3738C274.385 19.3738 271.185 19.6725 268.54 20.2698C265.895 20.8672 264.572 22.4032 264.572 24.8778C264.572 27.0112 265.681 28.5898 267.9 29.6138C270.204 30.5525 274.257 31.7898 280.06 33.3258C286.801 35.1178 291.921 37.2938 295.42 39.8538C299.004 42.4138 301.436 45.4005 302.716 48.8138C303.996 52.1418 304.636 55.9392 304.636 60.2058C304.636 67.7152 301.735 73.7738 295.932 78.3818C290.129 82.9045 281.34 85.1658 269.564 85.1658Z" fill="#040404"/>
<path d="M193.987 85.1671C186.307 85.1671 179.523 83.9298 173.635 81.4551C167.833 78.8951 163.267 75.1831 159.939 70.3191C156.611 65.3698 154.947 59.3111 154.947 52.1431V1.45508H179.011V49.5831C179.011 59.6524 184.003 64.6871 193.987 64.6871C198.766 64.6871 202.435 63.4497 204.995 60.9751C207.555 58.5004 208.835 54.7031 208.835 49.5831V1.45508H232.899V52.1431C232.899 59.3111 231.235 65.3698 227.907 70.3191C224.665 75.1831 220.099 78.8951 214.211 81.4551C208.409 83.9298 201.667 85.1671 193.987 85.1671Z" fill="#040404"/>
<path d="M75.6172 83.8871V1.45508H118.497C125.239 1.45508 130.743 2.69241 135.009 5.16708C139.361 7.64175 142.604 11.0977 144.737 15.5351C146.871 19.8871 147.937 24.9644 147.937 30.7671C147.937 36.3137 146.529 41.2204 143.713 45.4871C140.983 49.6684 137.313 52.8684 132.705 55.0871C133.644 55.8551 134.455 56.7938 135.137 57.9031C135.82 58.9271 136.588 60.3777 137.441 62.2551L146.913 83.8871H121.825L113.121 64.0471C112.439 62.5111 111.585 61.4444 110.561 60.8471C109.623 60.1644 108.257 59.8231 106.465 59.8231H99.6812V83.8871H75.6172ZM99.6812 41.3911H112.353C115.852 41.3911 118.54 40.4951 120.417 38.7031C122.38 36.8257 123.361 34.1804 123.361 30.7671C123.361 23.5138 119.948 19.8871 113.121 19.8871H99.6812V41.3911Z" fill="#040404"/>
<path d="M23.3203 83.8871V19.3751H0.152344V1.45508H80.5523V19.3751H47.3843V83.8871H23.3203Z" fill="#040404"/>
</svg>
