<svg width="81" height="21" viewBox="0 0 81 21" fill="none" xmlns="http://www.w3.org/2000/svg">
<path d="M21.6428 7.61328H29.7294V9.1134H26.5497V17.5463H24.8013V9.1134H21.6357V7.61328H21.6428ZM29.3839 10.3542H30.8786V11.7421H30.9068C30.9561 11.5458 31.0478 11.3566 31.1817 11.1743C31.3157 10.9921 31.4778 10.8168 31.6682 10.6696C31.8586 10.5154 32.0701 10.3962 32.3027 10.2981C32.5354 10.2069 32.7751 10.1579 33.0148 10.1579C33.1981 10.1579 33.3321 10.1649 33.4026 10.1719C33.4731 10.1789 33.5436 10.1929 33.6211 10.1999V11.7281C33.5083 11.7071 33.3955 11.693 33.2757 11.679C33.1558 11.665 33.043 11.658 32.9302 11.658C32.6623 11.658 32.4085 11.7141 32.1688 11.8192C31.9291 11.9244 31.7246 12.0856 31.5484 12.2889C31.3721 12.4992 31.2311 12.7515 31.1253 13.06C31.0196 13.3684 30.9702 13.7189 30.9702 14.1185V17.5393H29.3769V10.3542L29.3839 10.3542ZM40.9463 17.5463H39.3811V16.5439H39.3529C39.1555 16.9084 38.8665 17.1958 38.4787 17.4131C38.091 17.6304 37.6961 17.7426 37.2943 17.7426C36.3425 17.7426 35.6516 17.5113 35.2286 17.0416C34.8056 16.5719 34.594 15.8639 34.594 14.9176V10.3542H36.1874V14.7634C36.1874 15.3943 36.3073 15.8429 36.554 16.1023C36.7937 16.3616 37.1392 16.4948 37.5763 16.4948C37.9147 16.4948 38.1897 16.4458 38.4153 16.3406C38.6409 16.2355 38.8242 16.1023 38.9581 15.927C39.0991 15.7588 39.1978 15.5485 39.2613 15.3102C39.3247 15.0718 39.3529 14.8125 39.3529 14.5321V10.3612H40.9463V17.5463ZM43.6606 15.2401C43.71 15.7027 43.8862 16.0252 44.1894 16.2144C44.4996 16.3967 44.8662 16.4948 45.2963 16.4948C45.4443 16.4948 45.6135 16.4808 45.8039 16.4598C45.9943 16.4388 46.1776 16.3897 46.3397 16.3266C46.5089 16.2635 46.6429 16.1654 46.7557 16.0392C46.8614 15.913 46.9108 15.7518 46.9037 15.5485C46.8967 15.3452 46.8191 15.177 46.6781 15.0508C46.5371 14.9176 46.3609 14.8195 46.1423 14.7353C45.9237 14.6582 45.677 14.5881 45.395 14.5321C45.113 14.476 44.831 14.4129 44.5419 14.3498C44.2458 14.2867 43.9567 14.2026 43.6818 14.1115C43.4068 14.0203 43.1601 13.8942 42.9415 13.7329C42.7229 13.5787 42.5467 13.3754 42.4198 13.1301C42.2858 12.8847 42.2224 12.5833 42.2224 12.2188C42.2224 11.8262 42.3211 11.5038 42.5114 11.2374C42.7018 10.971 42.9486 10.7607 43.2376 10.5995C43.5337 10.4383 43.858 10.3261 44.2176 10.256C44.5772 10.1929 44.9226 10.1579 45.2469 10.1579C45.6206 10.1579 45.9801 10.1999 46.3186 10.277C46.657 10.3542 46.9672 10.4803 47.2421 10.6626C47.5171 10.8378 47.7427 11.0692 47.926 11.3496C48.1093 11.63 48.2221 11.9734 48.2715 12.373H46.6076C46.5301 11.9945 46.3609 11.7351 46.0859 11.6089C45.8109 11.4757 45.4937 11.4127 45.1412 11.4127C45.0284 11.4127 44.8944 11.4197 44.7393 11.4407C44.5842 11.4617 44.4432 11.4968 44.3022 11.5458C44.1682 11.5949 44.0554 11.672 43.9567 11.7702C43.8651 11.8683 43.8157 11.9945 43.8157 12.1557C43.8157 12.352 43.8862 12.5062 44.0202 12.6254C44.1541 12.7445 44.3304 12.8427 44.549 12.9268C44.7675 13.0039 45.0143 13.074 45.2963 13.1301C45.5783 13.1862 45.8673 13.2492 46.1635 13.3123C46.4525 13.3754 46.7345 13.4595 47.0165 13.5507C47.2985 13.6418 47.5453 13.768 47.7639 13.9292C47.9824 14.0904 48.1587 14.2867 48.2926 14.5251C48.4266 14.7634 48.4971 15.0648 48.4971 15.4153C48.4971 15.8429 48.3984 16.2004 48.201 16.5018C48.0036 16.7963 47.7498 17.0416 47.4395 17.2239C47.1293 17.4061 46.7768 17.5463 46.3961 17.6304C46.0154 17.7146 45.6347 17.7566 45.261 17.7566C44.8028 17.7566 44.3798 17.7076 43.992 17.6024C43.6042 17.4973 43.2658 17.343 42.9838 17.1397C42.7018 16.9295 42.4762 16.6701 42.314 16.3616C42.1519 16.0532 42.0673 15.6817 42.0532 15.2541H43.6606V15.2401ZM48.9201 10.3542H50.1257V8.1951H51.719V10.3542H53.1573V11.5388H51.719V15.3803C51.719 15.5485 51.7261 15.6887 51.7402 15.8149C51.7543 15.934 51.7895 16.0392 51.8389 16.1233C51.8882 16.2074 51.9658 16.2705 52.0715 16.3126C52.1773 16.3546 52.3112 16.3757 52.4946 16.3757C52.6074 16.3757 52.7202 16.3757 52.833 16.3687C52.9458 16.3616 53.0586 16.3476 53.1714 16.3196V17.5463C52.9951 17.5674 52.8189 17.5814 52.6567 17.6024C52.4875 17.6234 52.3183 17.6304 52.142 17.6304C51.719 17.6304 51.3806 17.5884 51.1268 17.5113C50.873 17.4342 50.6685 17.315 50.5275 17.1608C50.3795 17.0066 50.2878 16.8173 50.2314 16.586C50.1821 16.3546 50.1468 16.0883 50.1398 15.7938V11.5529H48.9342V10.3542H48.9201ZM54.2853 10.3542H55.7941V11.3285H55.8223C56.0479 10.9079 56.3581 10.6135 56.7599 10.4313C57.1618 10.249 57.5919 10.1579 58.0642 10.1579C58.6353 10.1579 59.1288 10.256 59.5518 10.4593C59.9748 10.6556 60.3273 10.929 60.6094 11.2795C60.8914 11.63 61.0958 12.0365 61.2368 12.4992C61.3778 12.9618 61.4483 13.4595 61.4483 13.9853C61.4483 14.469 61.3849 14.9386 61.258 15.3873C61.1311 15.8429 60.9407 16.2425 60.6869 16.593C60.4331 16.9435 60.1088 17.2169 59.714 17.4272C59.3192 17.6375 58.8609 17.7426 58.3251 17.7426C58.0924 17.7426 57.8598 17.7216 57.6271 17.6795C57.3945 17.6374 57.1688 17.5674 56.9573 17.4762C56.7458 17.3851 56.5414 17.2659 56.3651 17.1187C56.1818 16.9715 56.0338 16.8033 55.9069 16.614H55.8787V20.2031H54.2853V10.3542ZM59.855 13.9572C59.855 13.6348 59.8127 13.3193 59.7281 13.0109C59.6435 12.7025 59.5166 12.4361 59.3474 12.1978C59.1782 11.9594 58.9667 11.7702 58.7199 11.63C58.4661 11.4898 58.177 11.4127 57.8527 11.4127C57.183 11.4127 56.6753 11.644 56.3369 12.1066C55.9985 12.5693 55.8293 13.1862 55.8293 13.9572C55.8293 14.3218 55.8716 14.6582 55.9633 14.9667C56.0549 15.2751 56.1818 15.5415 56.3651 15.7658C56.5414 15.9901 56.7529 16.1654 56.9996 16.2915C57.2464 16.4247 57.5355 16.4878 57.8598 16.4878C58.2264 16.4878 58.5295 16.4107 58.7833 16.2635C59.0372 16.1163 59.2416 15.92 59.4038 15.6887C59.5659 15.4504 59.6858 15.184 59.7563 14.8826C59.8197 14.5811 59.855 14.2727 59.855 13.9572ZM62.668 7.61328H64.2614V9.1134H62.668V7.61328ZM62.668 10.3542H64.2614V17.5463H62.668V10.3542ZM65.6855 7.61328H67.2789V17.5463H65.6855V7.61328ZM72.1647 17.7426C71.5865 17.7426 71.0719 17.6445 70.6207 17.4552C70.1695 17.2659 69.7887 16.9995 69.4715 16.6701C69.1613 16.3336 68.9216 15.934 68.7594 15.4714C68.5973 15.0087 68.5126 14.497 68.5126 13.9432C68.5126 13.3965 68.5973 12.8917 68.7594 12.4291C68.9216 11.9664 69.1613 11.5669 69.4715 11.2304C69.7817 10.8939 70.1695 10.6346 70.6207 10.4453C71.0719 10.256 71.5865 10.1579 72.1647 10.1579C72.7428 10.1579 73.2575 10.256 73.7087 10.4453C74.1599 10.6346 74.5406 10.9009 74.8579 11.2304C75.1681 11.5669 75.4078 11.9664 75.5699 12.4291C75.7321 12.8917 75.8167 13.3965 75.8167 13.9432C75.8167 14.497 75.7321 15.0087 75.5699 15.4714C75.4078 15.934 75.1681 16.3336 74.8579 16.6701C74.5476 17.0066 74.1599 17.2659 73.7087 17.4552C73.2575 17.6445 72.7428 17.7426 72.1647 17.7426ZM72.1647 16.4878C72.5172 16.4878 72.8274 16.4107 73.0882 16.2635C73.3491 16.1163 73.5606 15.92 73.7298 15.6817C73.899 15.4433 74.0189 15.17 74.1035 14.8685C74.181 14.5671 74.2233 14.2587 74.2233 13.9432C74.2233 13.6348 74.181 13.3334 74.1035 13.0249C74.0259 12.7165 73.899 12.4501 73.7298 12.2118C73.5606 11.9734 73.3491 11.7842 73.0882 11.637C72.8274 11.4898 72.5172 11.4127 72.1647 11.4127C71.8122 11.4127 71.5019 11.4898 71.2411 11.637C70.9802 11.7842 70.7687 11.9805 70.5995 12.2118C70.4303 12.4501 70.3105 12.7165 70.2258 13.0249C70.1483 13.3334 70.106 13.6348 70.106 13.9432C70.106 14.2587 70.1483 14.5671 70.2258 14.8685C70.3034 15.17 70.4303 15.4433 70.5995 15.6817C70.7687 15.92 70.9802 16.1163 71.2411 16.2635C71.5019 16.4177 71.8122 16.4878 72.1647 16.4878ZM76.282 10.3542H77.4876V8.1951H79.0809V10.3542H80.5192V11.5388H79.0809V15.3803C79.0809 15.5485 79.088 15.6887 79.1021 15.8149C79.1162 15.934 79.1514 16.0392 79.2008 16.1233C79.2501 16.2074 79.3277 16.2705 79.4334 16.3126C79.5392 16.3546 79.6731 16.3757 79.8565 16.3757C79.9693 16.3757 80.0821 16.3757 80.1949 16.3687C80.3077 16.3616 80.4205 16.3476 80.5333 16.3196V17.5463C80.357 17.5674 80.1808 17.5814 80.0186 17.6024C79.8494 17.6234 79.6802 17.6304 79.5039 17.6304C79.0809 17.6304 78.7425 17.5884 78.4887 17.5113C78.2349 17.4342 78.0304 17.315 77.8894 17.1608C77.7414 17.0066 77.6497 16.8173 77.5933 16.586C77.544 16.3546 77.5087 16.0883 77.5017 15.7938V11.5529H76.2961V10.3542L76.282 10.3542Z" fill="#040404"/>
<path d="M19.7786 7.6149H12.4746L10.2185 0.703125L7.95539 7.61489L0.651367 7.60789L6.5665 11.8839L4.30338 18.7887L10.2185 14.5197L16.1266 18.7887L13.8705 11.8839L19.7786 7.6149Z" fill="#00B67A"/>
<path d="M14.3813 13.4462L13.8737 11.8828L10.2217 14.5188L14.3813 13.4462Z" fill="#005128"/>
</svg>
