<svg width="22" height="21" viewBox="0 0 22 21" fill="none" xmlns="http://www.w3.org/2000/svg">
<g clip-path="url(#clip0_1_3346)">
<path d="M11.1126 0.626953C16.6344 0.626953 21.111 5.10364 21.111 10.6254C21.111 16.1471 16.6342 20.6238 11.1126 20.6238C5.59114 20.6238 1.11426 16.1483 1.11426 10.6254C1.11426 5.10244 5.59034 0.626953 11.1126 0.626953Z" fill="#53AE94"/>
<path d="M12.346 9.29263V7.8053H15.7472V5.53906H6.48551V7.8053H9.88715V9.29146C7.12261 9.41844 5.04395 9.96594 5.04395 10.6218C5.04395 11.2777 7.12361 11.8252 9.88715 11.953V16.7173H12.3468V11.9526C15.1063 11.8252 17.1808 11.2781 17.1808 10.6228C17.1808 9.96752 15.1063 9.42044 12.3468 9.29304L12.346 9.29263ZM12.3468 11.5491V11.5479C12.2774 11.5523 11.9208 11.5737 11.127 11.5737C10.4923 11.5737 10.0457 11.5557 9.8884 11.5475V11.5495C7.44596 11.4413 5.62285 11.016 5.62285 10.5071C5.62285 9.99818 7.44616 9.57342 9.8884 9.46502V11.1258C10.0484 11.1367 10.5059 11.1637 11.1374 11.1637C11.8958 11.1637 12.2772 11.1322 12.3472 11.1258V9.46502C14.7848 9.57358 16.6037 9.99935 16.6037 10.5064C16.6037 11.0136 14.7835 11.4394 12.3468 11.5479" fill="white"/>
</g>
<defs>
<clipPath id="clip0_1_3346">
<rect width="20.83" height="19.9968" fill="white" transform="translate(0.282227 0.626953)"/>
</clipPath>
</defs>
</svg>
